<svg width="343" height="183" viewBox="0 0 343 183" fill="none" xmlns="http://www.w3.org/2000/svg">
<rect x="125.313" y="8.40741" width="103.52" height="40.76" rx="20.38" transform="rotate(4.23232 125.313 8.40741)" fill="#04C33A"/>
<rect x="125.313" y="8.40741" width="103.52" height="40.76" rx="20.38" transform="rotate(4.23232 125.313 8.40741)" fill="white" fill-opacity="0.8"/>
<path d="M136.782 37.2124L144.717 22.4474L148.207 22.7057L153.905 38.4795L150.196 38.2051L145.61 24.3119L147.006 24.4152L140.403 37.4803L136.782 37.2124ZM140.427 34.1924L141.563 31.5789L149.416 32.16L150.177 34.9139L140.427 34.1924ZM159.382 30.4411L166.711 30.9835L166.501 33.8191L159.172 33.2767L159.382 30.4411ZM159.022 38.8582L155.489 38.5967L156.619 23.3282L168.157 24.1821L167.947 27.0176L159.942 26.4252L159.022 38.8582ZM172.689 39.8696L173.606 27.4802L168.72 27.1187L168.933 24.2394L182.238 25.2241L182.025 28.1033L177.139 27.7417L176.222 40.1311L172.689 39.8696ZM186.934 31.7563L194.285 32.3003L194.082 35.0487L186.731 34.5047L186.934 31.7563ZM186.731 38.0576L195.042 38.6726L194.832 41.5082L183.01 40.6334L184.14 25.3648L195.678 26.2187L195.468 29.0543L187.441 28.4603L186.731 38.0576ZM197.643 41.7163L198.773 26.4477L205.382 26.9368C206.749 27.038 207.91 27.3505 208.866 27.8745C209.822 28.3839 210.539 29.073 211.016 29.9416C211.493 30.8103 211.688 31.819 211.603 32.9678C211.519 34.1021 211.178 35.0637 210.578 35.8528C209.98 36.6273 209.17 37.1961 208.149 37.5591C207.128 37.9222 205.934 38.0531 204.567 37.952L199.921 37.6082L201.606 36.1757L201.177 41.9778L197.643 41.7163ZM207.35 42.4346L203.943 36.6118L207.716 36.8911L211.167 42.7171L207.35 42.4346ZM201.577 36.5683L200.129 34.7944L204.579 35.1237C205.67 35.2044 206.501 35.032 207.074 34.6065C207.647 34.1664 207.965 33.532 208.026 32.7031C208.089 31.8597 207.868 31.1854 207.364 30.6803C206.861 30.1751 206.064 29.8822 204.973 29.8015L200.523 29.4722L202.218 27.9089L201.577 36.5683Z" fill="#04C33A"/>
<g clip-path="url(#clip0_2_1643)">
<rect x="7.98521" y="50.2505" width="331.361" height="108.199" rx="23.1856" transform="rotate(4.23232 7.98521 50.2505)" fill="#141414"/>
<path d="M24.1767 104.83L24.5124 100.294L31.3797 100.802L32.9169 80.0305L35.5451 80.225L26.3388 84.829L26.7215 79.6573L34.8241 75.5684L38.7241 75.857L36.8481 101.207L43.2916 101.684L42.9559 106.219L24.1767 104.83ZM57.5753 107.728C54.0709 107.468 51.4703 105.94 49.7735 103.144C48.0787 100.319 47.4143 96.4335 47.7803 91.4879C48.1504 86.4857 49.3785 82.7547 51.4643 80.2949C53.5502 77.835 56.3453 76.7347 59.8496 76.9941C63.3822 77.2555 65.9849 78.7552 67.6577 81.4932C69.3587 84.2333 70.0252 88.0903 69.6571 93.0642C69.2891 98.038 68.0589 101.797 65.9668 104.342C63.905 106.86 61.1078 107.989 57.5753 107.728ZM57.9078 103.234C59.8295 103.376 61.3215 102.606 62.3838 100.923C63.4481 99.2113 64.1204 96.4621 64.4007 92.6752C64.6809 88.8883 64.4175 86.1125 63.6103 84.3478C62.8053 82.5549 61.4419 81.5873 59.5202 81.4451C57.6268 81.305 56.1358 82.0613 55.0474 83.7141C53.9893 85.3408 53.3201 88.0475 53.0399 91.8345C52.7596 95.6214 53.0199 98.4396 53.8208 100.289C54.652 102.112 56.0143 103.094 57.9078 103.234ZM82.9933 109.609C79.4889 109.349 76.8884 107.821 75.1915 105.025C73.4967 102.2 72.8323 98.3145 73.1983 93.3689C73.5685 88.3667 74.7965 84.6357 76.8823 82.1759C78.9682 79.716 81.7633 78.6157 85.2676 78.8751C88.8002 79.1365 91.4029 80.6362 93.0757 83.3742C94.7767 86.1143 95.4432 89.9713 95.0752 94.9452C94.7071 99.919 93.477 103.678 91.3848 106.223C89.323 108.741 86.5258 109.87 82.9933 109.609ZM83.3258 105.115C85.2475 105.257 86.7395 104.487 87.8018 102.804C88.8661 101.092 89.5384 98.3431 89.8187 94.5562C90.0989 90.7693 89.8355 87.9935 89.0284 86.2288C88.2233 84.4359 86.86 83.4683 84.9382 83.3261C83.0448 83.186 81.5538 83.9423 80.4654 85.5951C79.4073 87.2218 78.7381 89.9285 78.4579 93.7155C78.1777 97.5024 78.438 100.321 79.2388 102.17C80.07 103.993 81.4323 104.975 83.3258 105.115ZM109.333 111.131L104.797 110.796L124.643 82.2152L129.179 82.5509L109.333 111.131ZM106.027 98.7819C103.625 98.6041 101.806 97.6455 100.571 95.906C99.3358 94.1665 98.8228 91.8837 99.0319 89.0576C99.2431 86.2033 100.087 84.0209 101.562 82.5104C103.066 81.0021 105.005 80.3357 107.379 80.5114C109.781 80.6891 111.6 81.6478 112.835 83.3873C114.07 85.1268 114.584 87.3954 114.377 90.1932C114.168 93.0193 113.325 95.2017 111.847 96.7404C110.369 98.2792 108.429 98.9596 106.027 98.7819ZM106.278 95.3906C107.324 95.468 108.164 95.0613 108.798 94.1705C109.46 93.2818 109.865 91.8484 110.011 89.8701C110.16 87.8636 109.97 86.4004 109.441 85.4804C108.943 84.5342 108.171 84.0224 107.125 83.945C106.079 83.8677 105.227 84.2451 104.569 85.0772C103.939 85.9115 103.549 87.346 103.398 89.3807C103.248 91.4155 103.421 92.906 103.92 93.8521C104.446 94.8004 105.232 95.3132 106.278 95.3906ZM126.597 112.835C124.195 112.658 122.376 111.699 121.141 109.959C119.908 108.192 119.396 105.895 119.605 103.069C119.816 100.214 120.659 98.0461 122.132 96.5639C123.636 95.0555 125.575 94.3891 127.949 94.5648C130.351 94.7426 132.17 95.7012 133.405 97.4407C134.642 99.1519 135.158 101.406 134.951 104.204C134.741 107.03 133.897 109.227 132.417 110.794C130.939 112.333 128.999 113.013 126.597 112.835ZM126.851 109.402C127.897 109.479 128.736 109.086 129.368 108.224C130.03 107.335 130.436 105.888 130.584 103.881C130.733 101.875 130.543 100.411 130.014 99.4914C129.516 98.5452 128.744 98.0335 127.698 97.9561C126.652 97.8787 125.799 98.2702 125.139 99.1306C124.509 99.9649 124.12 101.385 123.971 103.392C123.821 105.427 123.995 106.917 124.493 107.863C125.019 108.811 125.805 109.324 126.851 109.402Z" fill="#F2F7FF"/>
<path d="M18.6552 137.239L19.6605 123.655L25.4218 124.081C26.8734 124.189 27.9584 124.624 28.6769 125.388C29.4091 126.139 29.7296 127.132 29.6384 128.365C29.5471 129.598 29.0835 130.539 28.2477 131.187C27.4246 131.837 26.2873 132.108 24.8358 132.001L21.0784 131.722L20.6592 137.387L18.6552 137.239ZM21.1967 130.123L24.7422 130.386C25.6542 130.453 26.3567 130.298 26.8495 129.922C27.3424 129.545 27.6169 128.977 27.673 128.219C27.7281 127.474 27.5396 126.879 27.1076 126.434C26.6756 125.989 26.0036 125.732 25.0915 125.665L21.5461 125.402L21.1967 130.123ZM30.9378 138.148L31.4782 130.845C31.5077 130.447 31.5243 130.048 31.5281 129.648C31.5456 129.236 31.5499 128.829 31.5408 128.428L33.4291 128.568L33.4557 131.088L33.1474 131.066C33.3206 130.471 33.576 129.987 33.9138 129.611C34.2515 129.236 34.6459 128.968 35.097 128.808C35.5608 128.648 36.0368 128.586 36.525 128.623C36.7305 128.638 36.903 128.664 37.0424 128.7C37.1827 128.723 37.3221 128.759 37.4606 128.808L37.313 130.541C37.1012 130.435 36.9123 130.369 36.7463 130.344C36.5941 130.307 36.4023 130.28 36.1711 130.263C35.6059 130.221 35.1147 130.314 34.6974 130.541C34.2812 130.756 33.9546 131.067 33.7177 131.476C33.4808 131.885 33.3442 132.333 33.3081 132.821L32.9032 138.294L30.9378 138.148ZM42.2571 139.16C41.2937 139.089 40.4735 138.828 39.7964 138.377C39.1203 137.914 38.6172 137.296 38.2869 136.522C37.9576 135.736 37.8315 134.822 37.9085 133.782C37.9855 132.741 38.2442 131.863 38.6848 131.146C39.1262 130.417 39.7149 129.879 40.4509 129.533C41.1879 129.174 42.038 129.031 43.0015 129.102C43.9649 129.173 44.7847 129.441 45.4608 129.904C46.1506 130.355 46.6602 130.974 46.9895 131.761C47.3326 132.535 47.4656 133.443 47.3886 134.483C47.3116 135.524 47.046 136.408 46.5917 137.137C46.1512 137.853 45.556 138.39 44.8063 138.748C44.0703 139.094 43.2206 139.231 42.2571 139.16ZM42.3698 137.638C43.2176 137.701 43.9139 137.455 44.4586 136.901C45.0033 136.347 45.3184 135.492 45.404 134.336C45.4895 133.18 45.3032 132.295 44.845 131.679C44.3877 131.051 43.7352 130.706 42.8874 130.643C42.0524 130.582 41.3626 130.828 40.8179 131.381C40.2741 131.922 39.9594 132.771 39.8739 133.927C39.7883 135.083 39.9678 135.975 40.4122 136.602C40.8694 137.23 41.522 137.575 42.3698 137.638ZM52.9738 139.953C51.9204 139.875 51.1449 139.534 50.6472 138.929C50.1505 138.311 49.9444 137.43 50.029 136.287L50.3955 131.335L48.5072 131.195L48.6184 129.692L50.5067 129.832L50.6964 127.269L52.681 126.893L52.4528 129.976L55.1504 130.175L55.0392 131.678L52.3416 131.479L51.988 136.257C51.9347 136.977 52.0252 137.5 52.2593 137.827C52.4934 138.155 52.8545 138.336 53.3426 138.372C53.5867 138.39 53.8001 138.387 53.9828 138.362C54.1793 138.325 54.357 138.28 54.5159 138.227L54.3989 139.807C54.2006 139.87 53.9715 139.911 53.7117 139.93C53.451 139.963 53.205 139.97 52.9738 139.953ZM60.5926 140.517C59.0254 140.401 57.825 139.867 56.9914 138.914C56.1578 137.961 55.799 136.701 55.9149 135.134C55.99 134.119 56.2483 133.247 56.6898 132.517C57.1441 131.789 57.7333 131.245 58.4574 130.885C59.1953 130.513 60.0266 130.362 60.9515 130.43C61.8636 130.498 62.6136 130.747 63.2017 131.178C63.7898 131.609 64.2183 132.19 64.4871 132.92C64.7569 133.637 64.8567 134.471 64.7863 135.422L64.7407 136.039L57.4186 135.497L57.5013 134.379L63.4939 134.823L63.1478 135.049C63.2191 134.085 63.0558 133.324 62.658 132.765C62.2741 132.194 61.6774 131.879 60.8681 131.819C59.9689 131.752 59.252 132.016 58.7173 132.609C58.1835 133.19 57.8762 134.026 57.7954 135.118L57.7811 135.31C57.6965 136.454 57.909 137.335 58.4186 137.954C58.9411 138.574 59.7161 138.922 60.7438 138.998C61.309 139.039 61.8414 139.001 62.3409 138.883C62.8542 138.753 63.3495 138.519 63.8267 138.18L64.3641 139.556C63.8851 139.921 63.3163 140.189 62.6579 140.36C62.0004 140.518 61.3119 140.57 60.5926 140.517ZM70.8801 141.278C69.9038 141.206 69.0643 140.944 68.3615 140.491C67.6726 140.027 67.1571 139.401 66.8149 138.614C66.4866 137.815 66.3614 136.888 66.4394 135.835C66.5164 134.794 66.7815 133.916 67.2349 133.201C67.6882 132.485 68.2889 131.961 69.0367 131.629C69.7856 131.284 70.6481 131.148 71.6244 131.22C72.2538 131.267 72.8559 131.421 73.4307 131.683C74.0064 131.932 74.4726 132.264 74.8295 132.678L74.0924 133.999C73.7584 133.625 73.3727 133.339 72.9355 133.138C72.4992 132.925 72.0691 132.803 71.6452 132.772C70.7203 132.703 69.9727 132.945 69.4023 133.497C68.8319 134.049 68.5053 134.883 68.4226 136.001C68.3389 137.131 68.5381 138.018 69.0201 138.661C69.5021 139.303 70.2055 139.659 71.1304 139.728C71.5415 139.758 71.9775 139.713 72.4386 139.592C72.9005 139.458 73.3311 139.225 73.7302 138.893L74.2648 140.308C73.8381 140.664 73.3148 140.929 72.6949 141.103C72.0887 141.264 71.4838 141.323 70.8801 141.278ZM80.0327 141.956C78.9793 141.878 78.2038 141.536 77.7061 140.931C77.2093 140.313 77.0033 139.432 77.0879 138.289L77.4543 133.337L75.566 133.197L75.6772 131.694L77.5656 131.834L77.7552 129.271L79.7398 128.895L79.5117 131.978L82.2093 132.178L82.0981 133.681L79.4005 133.481L79.0468 138.26C78.9936 138.979 79.084 139.502 79.3181 139.83C79.5522 140.157 79.9134 140.339 80.4015 140.375C80.6456 140.393 80.859 140.389 81.0416 140.364C81.2381 140.327 81.4158 140.282 81.5747 140.229L81.4578 141.809C81.2594 141.872 81.0303 141.913 80.7706 141.933C80.5099 141.965 80.2639 141.973 80.0327 141.956ZM87.6514 142.519C86.0843 142.403 84.8839 141.869 84.0503 140.916C83.2166 139.963 82.8578 138.703 82.9738 137.136C83.0489 136.121 83.3072 135.249 83.7486 134.52C84.2029 133.791 84.7921 133.247 85.5162 132.887C86.2541 132.516 87.0855 132.364 88.0104 132.433C88.9224 132.5 89.6725 132.749 90.2606 133.18C90.8487 133.611 91.2771 134.192 91.546 134.922C91.8158 135.64 91.9155 136.474 91.8452 137.424L91.7996 138.041L84.4775 137.499L84.5602 136.382L90.5527 136.825L90.2066 137.051C90.2779 136.088 90.1147 135.327 89.7169 134.768C89.3329 134.197 88.7363 133.881 87.927 133.821C87.0278 133.755 86.3108 134.018 85.7761 134.612C85.2424 135.192 84.9351 136.028 84.8543 137.12L84.84 137.313C84.7554 138.456 84.9679 139.337 85.4775 139.956C85.9999 140.576 86.775 140.924 87.8026 141C88.3678 141.042 88.9002 141.004 89.3998 140.886C89.9131 140.756 90.4084 140.521 90.8855 140.182L91.423 141.559C90.9439 141.924 90.3752 142.191 89.7167 142.362C89.0592 142.52 88.3708 142.573 87.6514 142.519ZM97.3994 143.241C96.5516 143.178 95.8148 142.923 95.1892 142.477C94.5764 142.031 94.1181 141.416 93.8146 140.631C93.5238 139.848 93.4169 138.936 93.4939 137.895C93.5719 136.842 93.8118 135.955 94.2138 135.236C94.6286 134.518 95.1719 133.983 95.8437 133.632C96.5292 133.27 97.2959 133.12 98.1437 133.183C98.9787 133.244 99.6952 133.51 100.293 133.981C100.905 134.44 101.287 135.036 101.44 135.771L101.208 135.754L101.699 129.125L103.645 129.269L102.595 143.451L100.669 143.308L100.831 141.112L101.062 141.129C100.79 141.845 100.323 142.392 99.6623 142.769C99.0015 143.146 98.2472 143.304 97.3994 143.241ZM97.9938 141.754C98.8287 141.816 99.525 141.57 100.083 141.018C100.64 140.465 100.962 139.61 101.047 138.454C101.133 137.298 100.94 136.412 100.469 135.796C99.9989 135.167 99.3463 134.821 98.5114 134.76C97.6636 134.697 96.9609 134.942 96.4033 135.495C95.8595 136.036 95.5449 136.884 95.4593 138.041C95.3738 139.197 95.5596 140.089 96.0169 140.717C96.487 141.346 97.1459 141.691 97.9938 141.754Z" fill="#F2F7FF"/>
<g clip-path="url(#clip1_2_1643)">
<circle cx="261.762" cy="102.936" r="18.3552" transform="rotate(4.23232 261.762 102.936)" fill="white" fill-opacity="0.4"/>
<circle cx="302.227" cy="105.93" r="18.3552" transform="rotate(4.23232 302.227 105.93)" fill="white" fill-opacity="0.4"/>
<circle cx="258.768" cy="143.4" r="18.3552" transform="rotate(4.23232 258.768 143.4)" fill="white" fill-opacity="0.4"/>
<circle cx="299.232" cy="146.394" r="18.3552" transform="rotate(4.23232 299.232 146.394)" fill="white" fill-opacity="0.4"/>
<path d="M256.945 102.579L260.325 106.499C260.429 106.62 260.612 106.633 260.733 106.529L268.792 99.581" stroke="white" stroke-width="2.31856"/>
<path d="M262.832 88.4841C266.627 88.7649 270.159 90.5272 272.666 93.3904C275.172 96.2536 276.452 99.9878 276.228 103.787C276.005 107.585 274.296 111.144 271.471 113.693C268.646 116.243 264.932 117.579 261.13 117.413C257.328 117.247 253.744 115.592 251.153 112.806C248.561 110.019 247.169 106.325 247.277 102.522C247.386 98.7179 248.987 95.1095 251.733 92.4758C254.48 89.8422 258.153 88.3946 261.958 88.4459" stroke="white" stroke-width="1.93213" stroke-linecap="round"/>
<path d="M253.951 143.043L257.33 146.963C257.435 147.084 257.618 147.097 257.739 146.993L265.797 140.045" stroke="white" stroke-width="2.31856"/>
<path d="M259.837 128.948C263.615 129.228 267.133 130.976 269.638 133.817C272.143 136.659 273.436 140.369 273.239 144.152C273.043 147.935 271.373 151.491 268.587 154.057C265.8 156.624 262.12 157.998 258.333 157.884C254.547 157.771 250.956 156.179 248.328 153.45C245.701 150.72 244.247 147.071 244.277 143.283C244.308 139.495 245.821 135.869 248.491 133.183C251.162 130.496 254.779 128.963 258.567 128.91" stroke="white" stroke-width="1.93213" stroke-linecap="round"/>
<path d="M297.409 105.573L300.789 109.493C300.893 109.614 301.076 109.628 301.197 109.523L309.256 102.575" stroke="white" stroke-width="2.31856"/>
<path d="M303.296 91.4784C307.103 91.7602 310.645 93.5325 313.152 96.4106C315.66 99.2886 316.931 103.04 316.688 106.849C316.446 110.659 314.711 114.219 311.859 116.756C309.007 119.294 305.269 120.603 301.457 120.4C297.645 120.198 294.067 118.499 291.501 115.674C288.934 112.848 287.586 109.124 287.749 105.311C287.912 101.497 289.573 97.9016 292.372 95.3057C295.17 92.7098 298.88 91.323 302.696 91.4465" stroke="white" stroke-width="1.93213" stroke-linecap="round"/>
<path d="M294.415 146.038L297.794 149.957C297.899 150.078 298.082 150.092 298.203 149.987L306.261 143.039" stroke="white" stroke-width="2.31856"/>
<path d="M300.302 131.943C304.083 132.222 307.604 133.973 310.11 136.82C312.615 139.666 313.905 143.381 313.702 147.168C313.5 150.954 311.821 154.51 309.027 157.073C306.232 159.636 302.545 161.002 298.755 160.877C294.965 160.752 291.375 159.147 288.755 156.405C286.136 153.664 284.695 150.005 284.742 146.213C284.79 142.421 286.321 138.799 289.009 136.124C291.696 133.449 295.325 131.934 299.117 131.903" stroke="white" stroke-width="1.93213" stroke-linecap="round"/>
</g>
</g>
<defs>
<clipPath id="clip0_2_1643">
<rect x="7.98521" y="50.2505" width="331.361" height="108.199" rx="23.1856" transform="rotate(4.23232 7.98521 50.2505)" fill="white"/>
</clipPath>
<clipPath id="clip1_2_1643">
<rect width="77.2852" height="77.2852" fill="white" transform="translate(244.812 83.2757) rotate(4.23232)"/>
</clipPath>
</defs>
</svg>
