<svg width="273" height="351" viewBox="0 0 273 351" fill="none" xmlns="http://www.w3.org/2000/svg">
<path d="M271.137 166.004C271.298 166.004 271.425 166.005 271.528 166.013C271.632 166.022 271.721 166.039 271.802 166.081C271.933 166.147 272.04 166.254 272.107 166.385C272.148 166.466 272.166 166.555 272.174 166.659C272.182 166.761 272.182 166.889 272.182 167.05V226.76C272.182 226.921 272.182 227.048 272.174 227.151C272.166 227.255 272.148 227.344 272.107 227.425C272.04 227.556 271.933 227.663 271.802 227.73C271.721 227.771 271.632 227.789 271.528 227.797C271.425 227.806 271.298 227.806 271.137 227.806H270.207V166.004H271.137Z" fill="#757D8C"/>
<path d="M271.137 166.004C271.298 166.004 271.425 166.005 271.528 166.013C271.632 166.022 271.721 166.039 271.802 166.081C271.933 166.147 272.04 166.254 272.107 166.385C272.148 166.466 272.166 166.555 272.174 166.659C272.182 166.761 272.182 166.889 272.182 167.05V226.76C272.182 226.921 272.182 227.048 272.174 227.151C272.166 227.255 272.148 227.344 272.107 227.425C272.04 227.556 271.933 227.663 271.802 227.73C271.721 227.771 271.632 227.789 271.528 227.797C271.425 227.806 271.298 227.806 271.137 227.806H270.207V166.004H271.137Z" fill="url(#paint0_radial_2_1307)" style="mix-blend-mode:plus-darker"/>
<path d="M271.137 166.004C271.298 166.004 271.425 166.005 271.528 166.013C271.632 166.022 271.721 166.039 271.802 166.081C271.933 166.147 272.04 166.254 272.107 166.385C272.148 166.466 272.166 166.555 272.174 166.659C272.182 166.761 272.182 166.889 272.182 167.05V226.76C272.182 226.921 272.182 227.048 272.174 227.151C272.166 227.255 272.148 227.344 272.107 227.425C272.04 227.556 271.933 227.663 271.802 227.73C271.721 227.771 271.632 227.789 271.528 227.797C271.425 227.806 271.298 227.806 271.137 227.806H270.207V166.004H271.137Z" fill="url(#paint1_linear_2_1307)" style="mix-blend-mode:plus-darker"/>
<path d="M271.137 166.004C271.298 166.004 271.425 166.005 271.528 166.013C271.632 166.022 271.721 166.039 271.802 166.081C271.933 166.147 272.04 166.254 272.107 166.385C272.148 166.466 272.166 166.555 272.174 166.659C272.182 166.761 272.182 166.889 272.182 167.05V226.76C272.182 226.921 272.182 227.048 272.174 227.151C272.166 227.255 272.148 227.344 272.107 227.425C272.04 227.556 271.933 227.663 271.802 227.73C271.721 227.771 271.632 227.789 271.528 227.797C271.425 227.806 271.298 227.806 271.137 227.806H270.207V166.004H271.137Z" fill="url(#paint2_radial_2_1307)" style="mix-blend-mode:plus-lighter"/>
<path d="M271.137 166.004C271.298 166.004 271.425 166.005 271.528 166.013C271.632 166.022 271.721 166.039 271.802 166.081C271.933 166.147 272.04 166.254 272.107 166.385C272.148 166.466 272.166 166.555 272.174 166.659C272.182 166.761 272.182 166.889 272.182 167.05V226.76C272.182 226.921 272.182 227.048 272.174 227.151C272.166 227.255 272.148 227.344 272.107 227.425C272.04 227.556 271.933 227.663 271.802 227.73C271.721 227.771 271.632 227.789 271.528 227.797C271.425 227.806 271.298 227.806 271.137 227.806H270.207V166.004H271.137Z" stroke="#414256" stroke-width="0.232336"/>
<path d="M2.09076 100.369V122.093H1.16205C1.00131 122.093 0.873131 122.093 0.770447 122.084C0.66662 122.076 0.578108 122.058 0.497009 122.017C0.365858 121.95 0.259146 121.843 0.192322 121.712C0.15101 121.631 0.133451 121.542 0.124939 121.439C0.116549 121.336 0.11615 121.208 0.11615 121.047V101.415C0.11615 101.254 0.116549 101.126 0.124939 101.024C0.133446 100.92 0.151025 100.831 0.192322 100.75C0.259146 100.619 0.365859 100.512 0.497009 100.445C0.578116 100.404 0.666607 100.387 0.770447 100.378C0.873131 100.37 1.00131 100.369 1.16205 100.369H2.09076Z" fill="#757D8C"/>
<path d="M2.09076 100.369V122.093H1.16205C1.00131 122.093 0.873131 122.093 0.770447 122.084C0.66662 122.076 0.578108 122.058 0.497009 122.017C0.365858 121.95 0.259146 121.843 0.192322 121.712C0.15101 121.631 0.133451 121.542 0.124939 121.439C0.116549 121.336 0.11615 121.208 0.11615 121.047V101.415C0.11615 101.254 0.116549 101.126 0.124939 101.024C0.133446 100.92 0.151025 100.831 0.192322 100.75C0.259146 100.619 0.365859 100.512 0.497009 100.445C0.578116 100.404 0.666607 100.387 0.770447 100.378C0.873131 100.37 1.00131 100.369 1.16205 100.369H2.09076Z" fill="url(#paint3_radial_2_1307)" style="mix-blend-mode:plus-darker"/>
<path d="M2.09076 100.369V122.093H1.16205C1.00131 122.093 0.873131 122.093 0.770447 122.084C0.66662 122.076 0.578108 122.058 0.497009 122.017C0.365858 121.95 0.259146 121.843 0.192322 121.712C0.15101 121.631 0.133451 121.542 0.124939 121.439C0.116549 121.336 0.11615 121.208 0.11615 121.047V101.415C0.11615 101.254 0.116549 101.126 0.124939 101.024C0.133446 100.92 0.151025 100.831 0.192322 100.75C0.259146 100.619 0.365859 100.512 0.497009 100.445C0.578116 100.404 0.666607 100.387 0.770447 100.378C0.873131 100.37 1.00131 100.369 1.16205 100.369H2.09076Z" fill="url(#paint4_linear_2_1307)" style="mix-blend-mode:plus-darker"/>
<path d="M2.09076 100.369V122.093H1.16205C1.00131 122.093 0.873131 122.093 0.770447 122.084C0.66662 122.076 0.578108 122.058 0.497009 122.017C0.365858 121.95 0.259146 121.843 0.192322 121.712C0.15101 121.631 0.133451 121.542 0.124939 121.439C0.116549 121.336 0.11615 121.208 0.11615 121.047V101.415C0.11615 101.254 0.116549 101.126 0.124939 101.024C0.133446 100.92 0.151025 100.831 0.192322 100.75C0.259146 100.619 0.365859 100.512 0.497009 100.445C0.578116 100.404 0.666607 100.387 0.770447 100.378C0.873131 100.37 1.00131 100.369 1.16205 100.369H2.09076Z" fill="url(#paint5_radial_2_1307)" style="mix-blend-mode:plus-lighter"/>
<path d="M2.09076 100.369V122.093H1.16205C1.00131 122.093 0.873131 122.093 0.770447 122.084C0.66662 122.076 0.578108 122.058 0.497009 122.017C0.365858 121.95 0.259146 121.843 0.192322 121.712C0.15101 121.631 0.133451 121.542 0.124939 121.439C0.116549 121.336 0.11615 121.208 0.11615 121.047V101.415C0.11615 101.254 0.116549 101.126 0.124939 101.024C0.133446 100.92 0.151025 100.831 0.192322 100.75C0.259146 100.619 0.365859 100.512 0.497009 100.445C0.578116 100.404 0.666607 100.387 0.770447 100.378C0.873131 100.37 1.00131 100.369 1.16205 100.369H2.09076Z" stroke="#414256" stroke-width="0.232336"/>
<path d="M2.09076 139.286V178.434H1.16205C1.00131 178.434 0.873131 178.435 0.770447 178.426C0.666696 178.418 0.578059 178.4 0.497009 178.359C0.365988 178.292 0.259159 178.185 0.192322 178.054C0.150934 177.973 0.13344 177.884 0.124939 177.78C0.116555 177.677 0.11615 177.55 0.11615 177.389V140.332C0.11615 140.171 0.116549 140.043 0.124939 139.94C0.133446 139.836 0.151024 139.748 0.192322 139.667C0.259146 139.535 0.365859 139.429 0.497009 139.362C0.578116 139.321 0.666607 139.303 0.770447 139.294C0.873131 139.286 1.00131 139.286 1.16205 139.286H2.09076Z" fill="#757D8C"/>
<path d="M2.09076 139.286V178.434H1.16205C1.00131 178.434 0.873131 178.435 0.770447 178.426C0.666696 178.418 0.578059 178.4 0.497009 178.359C0.365988 178.292 0.259159 178.185 0.192322 178.054C0.150934 177.973 0.13344 177.884 0.124939 177.78C0.116555 177.677 0.11615 177.55 0.11615 177.389V140.332C0.11615 140.171 0.116549 140.043 0.124939 139.94C0.133446 139.836 0.151024 139.748 0.192322 139.667C0.259146 139.535 0.365859 139.429 0.497009 139.362C0.578116 139.321 0.666607 139.303 0.770447 139.294C0.873131 139.286 1.00131 139.286 1.16205 139.286H2.09076Z" fill="url(#paint6_radial_2_1307)" style="mix-blend-mode:plus-darker"/>
<path d="M2.09076 139.286V178.434H1.16205C1.00131 178.434 0.873131 178.435 0.770447 178.426C0.666696 178.418 0.578059 178.4 0.497009 178.359C0.365988 178.292 0.259159 178.185 0.192322 178.054C0.150934 177.973 0.13344 177.884 0.124939 177.78C0.116555 177.677 0.11615 177.55 0.11615 177.389V140.332C0.11615 140.171 0.116549 140.043 0.124939 139.94C0.133446 139.836 0.151024 139.748 0.192322 139.667C0.259146 139.535 0.365859 139.429 0.497009 139.362C0.578116 139.321 0.666607 139.303 0.770447 139.294C0.873131 139.286 1.00131 139.286 1.16205 139.286H2.09076Z" fill="url(#paint7_linear_2_1307)" style="mix-blend-mode:plus-darker"/>
<path d="M2.09076 139.286V178.434H1.16205C1.00131 178.434 0.873131 178.435 0.770447 178.426C0.666696 178.418 0.578059 178.4 0.497009 178.359C0.365988 178.292 0.259159 178.185 0.192322 178.054C0.150934 177.973 0.13344 177.884 0.124939 177.78C0.116555 177.677 0.11615 177.55 0.11615 177.389V140.332C0.11615 140.171 0.116549 140.043 0.124939 139.94C0.133446 139.836 0.151024 139.748 0.192322 139.667C0.259146 139.535 0.365859 139.429 0.497009 139.362C0.578116 139.321 0.666607 139.303 0.770447 139.294C0.873131 139.286 1.00131 139.286 1.16205 139.286H2.09076Z" fill="url(#paint8_radial_2_1307)" style="mix-blend-mode:plus-lighter"/>
<path d="M2.09076 139.286V178.434H1.16205C1.00131 178.434 0.873131 178.435 0.770447 178.426C0.666696 178.418 0.578059 178.4 0.497009 178.359C0.365988 178.292 0.259159 178.185 0.192322 178.054C0.150934 177.973 0.13344 177.884 0.124939 177.78C0.116555 177.677 0.11615 177.55 0.11615 177.389V140.332C0.11615 140.171 0.116549 140.043 0.124939 139.94C0.133446 139.836 0.151024 139.748 0.192322 139.667C0.259146 139.535 0.365859 139.429 0.497009 139.362C0.578116 139.321 0.666607 139.303 0.770447 139.294C0.873131 139.286 1.00131 139.286 1.16205 139.286H2.09076Z" stroke="#414256" stroke-width="0.232336"/>
<path d="M2.09076 188.657V227.806H1.16205C1.00131 227.806 0.873131 227.806 0.770447 227.798C0.666696 227.789 0.578059 227.772 0.497009 227.73C0.365988 227.664 0.259159 227.557 0.192322 227.426C0.150934 227.344 0.13344 227.255 0.124939 227.151C0.116555 227.049 0.11615 226.921 0.11615 226.761V189.703C0.11615 189.542 0.116549 189.414 0.124939 189.311C0.133446 189.208 0.151024 189.119 0.192322 189.038C0.259146 188.907 0.365859 188.8 0.497009 188.733C0.578116 188.692 0.666607 188.674 0.770447 188.666C0.873131 188.658 1.00131 188.657 1.16205 188.657H2.09076Z" fill="#757D8C"/>
<path d="M2.09076 188.657V227.806H1.16205C1.00131 227.806 0.873131 227.806 0.770447 227.798C0.666696 227.789 0.578059 227.772 0.497009 227.73C0.365988 227.664 0.259159 227.557 0.192322 227.426C0.150934 227.344 0.13344 227.255 0.124939 227.151C0.116555 227.049 0.11615 226.921 0.11615 226.761V189.703C0.11615 189.542 0.116549 189.414 0.124939 189.311C0.133446 189.208 0.151024 189.119 0.192322 189.038C0.259146 188.907 0.365859 188.8 0.497009 188.733C0.578116 188.692 0.666607 188.674 0.770447 188.666C0.873131 188.658 1.00131 188.657 1.16205 188.657H2.09076Z" fill="url(#paint9_radial_2_1307)" style="mix-blend-mode:plus-darker"/>
<path d="M2.09076 188.657V227.806H1.16205C1.00131 227.806 0.873131 227.806 0.770447 227.798C0.666696 227.789 0.578059 227.772 0.497009 227.73C0.365988 227.664 0.259159 227.557 0.192322 227.426C0.150934 227.344 0.13344 227.255 0.124939 227.151C0.116555 227.049 0.11615 226.921 0.11615 226.761V189.703C0.11615 189.542 0.116549 189.414 0.124939 189.311C0.133446 189.208 0.151024 189.119 0.192322 189.038C0.259146 188.907 0.365859 188.8 0.497009 188.733C0.578116 188.692 0.666607 188.674 0.770447 188.666C0.873131 188.658 1.00131 188.657 1.16205 188.657H2.09076Z" fill="url(#paint10_linear_2_1307)" style="mix-blend-mode:plus-darker"/>
<path d="M2.09076 188.657V227.806H1.16205C1.00131 227.806 0.873131 227.806 0.770447 227.798C0.666696 227.789 0.578059 227.772 0.497009 227.73C0.365988 227.664 0.259159 227.557 0.192322 227.426C0.150934 227.344 0.13344 227.255 0.124939 227.151C0.116555 227.049 0.11615 226.921 0.11615 226.761V189.703C0.11615 189.542 0.116549 189.414 0.124939 189.311C0.133446 189.208 0.151024 189.119 0.192322 189.038C0.259146 188.907 0.365859 188.8 0.497009 188.733C0.578116 188.692 0.666607 188.674 0.770447 188.666C0.873131 188.658 1.00131 188.657 1.16205 188.657H2.09076Z" fill="url(#paint11_radial_2_1307)" style="mix-blend-mode:plus-lighter"/>
<path d="M2.09076 188.657V227.806H1.16205C1.00131 227.806 0.873131 227.806 0.770447 227.798C0.666696 227.789 0.578059 227.772 0.497009 227.73C0.365988 227.664 0.259159 227.557 0.192322 227.426C0.150934 227.344 0.13344 227.255 0.124939 227.151C0.116555 227.049 0.11615 226.921 0.11615 226.761V189.703C0.11615 189.542 0.116549 189.414 0.124939 189.311C0.133446 189.208 0.151024 189.119 0.192322 189.038C0.259146 188.907 0.365859 188.8 0.497009 188.733C0.578116 188.692 0.666607 188.674 0.770447 188.666C0.873131 188.658 1.00131 188.657 1.16205 188.657H2.09076Z" stroke="#414256" stroke-width="0.232336"/>
<g filter="url(#filter0_i_2_1307)">
<rect x="1.97491" width="268.349" height="559.931" rx="41.2397" fill="#88919D"/>
</g>
<path d="M2.01096 506.493C2.0002 505.367 1.99265 504.206 1.98737 503.008H5.46001V506.493H2.01096Z" fill="#EAEAEA" style="mix-blend-mode:plus-darker"/>
<path d="M270.311 503.008C270.306 504.206 270.298 505.367 270.288 506.493H266.838V503.008H270.311Z" fill="#EAEAEA" style="mix-blend-mode:plus-darker"/>
<path d="M270.293 54.0182C270.302 55.1447 270.309 56.3058 270.314 57.5033H266.838V54.0182H270.293Z" fill="#EAEAEA" style="mix-blend-mode:plus-darker"/>
<path d="M215.144 0.0219727C216.343 0.0299616 217.504 0.0408562 218.629 0.0557132V3.48505H215.144V0.0219727Z" fill="#EAEAEA" style="mix-blend-mode:plus-darker"/>
<path d="M1.98499 57.5033C1.98953 56.3058 1.99612 55.1447 2.00571 54.0182H5.46001V57.5033H1.98499Z" fill="#EAEAEA" style="mix-blend-mode:plus-darker"/>
<rect x="5.16948" y="3.19456" width="261.959" height="553.541" rx="38.0451" stroke="#2B364D" stroke-width="0.580841"/>
<rect x="5.34373" y="3.36882" width="261.611" height="553.193" rx="37.8708" stroke="black" stroke-width="0.232336"/>
<rect x="110.011" y="3.48499" width="51.6949" height="1.74252" fill="url(#paint12_linear_2_1307)"/>
<g filter="url(#filter1_i_2_1307)">
<path d="M5.4599 63.8924C5.4599 42.7478 5.4599 32.1756 9.57491 24.0994C13.1946 16.9954 18.9703 11.2197 26.0743 7.6C34.1505 3.48499 44.7228 3.48499 65.8674 3.48499L110.255 3.48499C110.803 3.48499 111.29 3.83594 111.463 4.35625C111.637 4.87656 112.124 5.22751 112.672 5.22751H159.045C159.594 5.22751 160.081 4.87656 160.254 4.35625C160.427 3.83594 160.914 3.48499 161.463 3.48499L206.431 3.48499C227.575 3.48499 238.148 3.48499 246.224 7.6C253.328 11.2197 259.104 16.9954 262.723 24.0994C266.838 32.1756 266.838 42.7479 266.838 63.8925V496.038C266.838 517.183 266.838 527.755 262.723 535.831C259.104 542.935 253.328 548.711 246.224 552.331C238.148 556.446 227.575 556.446 206.431 556.446H65.8674C44.7228 556.446 34.1505 556.446 26.0743 552.331C18.9703 548.711 13.1946 542.935 9.57491 535.831C5.4599 527.755 5.4599 517.183 5.4599 496.038V63.8924Z" fill="black"/>
</g>
<path d="M65.8671 3.6012H110.255C110.753 3.6013 111.196 3.92039 111.353 4.39319C111.543 4.96067 112.074 5.34322 112.672 5.34338H159.045C159.643 5.34338 160.175 4.96083 160.364 4.39319C160.522 3.92032 160.964 3.6012 161.463 3.6012H206.431C217.005 3.6012 224.929 3.60097 231.219 4.11487C237.507 4.62865 242.152 5.65603 246.171 7.70374C253.253 11.3123 259.012 17.0699 262.62 24.152C264.668 28.171 265.694 32.8166 266.208 39.1051C266.722 45.3948 266.723 53.3183 266.723 63.8922V496.039C266.723 506.613 266.722 514.536 266.208 520.826C265.694 527.114 264.668 531.76 262.62 535.779C259.012 542.861 253.253 548.619 246.171 552.227C242.152 554.275 237.507 555.301 231.219 555.815C224.929 556.329 217.005 556.33 206.431 556.33H65.8671C55.2932 556.33 47.3698 556.329 41.08 555.815C34.7915 555.301 30.1459 554.275 26.1269 552.227C19.0449 548.619 13.2872 542.861 9.67865 535.779C7.63088 531.76 6.60357 527.114 6.08978 520.826C5.57589 514.536 5.57611 506.612 5.57611 496.038V63.8922C5.57611 53.3183 5.57592 45.3948 6.08978 39.1051C6.60357 32.8166 7.63088 28.171 9.67865 24.152C13.2871 17.07 19.0449 11.3122 26.1269 7.70374C30.1459 5.65596 34.7915 4.62866 41.08 4.11487C47.3697 3.601 55.2933 3.6012 65.8671 3.6012Z" stroke="white" stroke-opacity="0.09" stroke-width="0.232336"/>
<path d="M65.8671 3.6012H110.255C110.753 3.6013 111.196 3.92039 111.353 4.39319C111.543 4.96067 112.074 5.34322 112.672 5.34338H159.045C159.643 5.34338 160.175 4.96083 160.364 4.39319C160.522 3.92032 160.964 3.6012 161.463 3.6012H206.431C217.005 3.6012 224.929 3.60097 231.219 4.11487C237.507 4.62865 242.152 5.65603 246.171 7.70374C253.253 11.3123 259.012 17.0699 262.62 24.152C264.668 28.171 265.694 32.8166 266.208 39.1051C266.722 45.3948 266.723 53.3183 266.723 63.8922V496.039C266.723 506.613 266.722 514.536 266.208 520.826C265.694 527.114 264.668 531.76 262.62 535.779C259.012 542.861 253.253 548.619 246.171 552.227C242.152 554.275 237.507 555.301 231.219 555.815C224.929 556.329 217.005 556.33 206.431 556.33H65.8671C55.2932 556.33 47.3698 556.329 41.08 555.815C34.7915 555.301 30.1459 554.275 26.1269 552.227C19.0449 548.619 13.2872 542.861 9.67865 535.779C7.63088 531.76 6.60357 527.114 6.08978 520.826C5.57589 514.536 5.57611 506.612 5.57611 496.038V63.8922C5.57611 53.3183 5.57592 45.3948 6.08978 39.1051C6.60357 32.8166 7.63088 28.171 9.67865 24.152C13.2871 17.07 19.0449 11.3122 26.1269 7.70374C30.1459 5.65596 34.7915 4.62866 41.08 4.11487C47.3697 3.601 55.2933 3.6012 65.8671 3.6012Z" stroke="url(#paint13_radial_2_1307)" stroke-width="0.232336"/>
<g clip-path="url(#clip0_2_1307)">
<rect x="11.2683" y="9.29346" width="249.762" height="541.344" rx="31.9463" fill="#938E8E"/>
<g clip-path="url(#clip1_2_1307)">
<rect width="249.92" height="541.161" transform="translate(11.2683 9.29346)" fill="#242535"/>
<rect width="249.92" height="111.298" transform="translate(11.2683 9.29346)" fill="#242535"/>
<path d="M44.9353 26.6044C45.3631 26.6044 45.7688 26.6837 46.1523 26.8423C46.5359 26.9972 46.8752 27.2406 47.1702 27.5725C47.469 27.9008 47.7032 28.3231 47.8728 28.8394C48.0425 29.352 48.1273 29.9698 48.1273 30.6926V30.7037C48.1273 31.5999 47.9982 32.367 47.7401 33.005C47.4819 33.6431 47.1112 34.1336 46.6281 34.4766C46.1487 34.8159 45.5752 34.9855 44.9076 34.9855C44.4171 34.9855 43.9745 34.897 43.5799 34.72C43.189 34.5393 42.8644 34.2922 42.6063 33.9787C42.3518 33.6615 42.1803 33.3001 42.0918 32.8944L42.0807 32.8335H43.4803L43.5025 32.8889C43.5725 33.0733 43.6721 33.2355 43.8012 33.3757C43.934 33.5158 44.0926 33.6246 44.277 33.7021C44.4651 33.7758 44.6753 33.8127 44.9076 33.8127C45.3281 33.8127 45.6711 33.6892 45.9366 33.4421C46.2058 33.1913 46.4068 32.8575 46.5396 32.4408C46.676 32.0203 46.7535 31.5556 46.7719 31.0467C46.7756 30.9914 46.7775 30.9379 46.7775 30.8863C46.7775 30.8309 46.7775 30.7775 46.7775 30.7258L46.5285 29.3926C46.5285 29.0902 46.4585 28.8154 46.3183 28.5683C46.1782 28.3212 45.9882 28.1257 45.7485 27.9819C45.5125 27.8381 45.2451 27.7662 44.9463 27.7662C44.6587 27.7662 44.395 27.8362 44.1553 27.9764C43.9155 28.1165 43.7238 28.3083 43.5799 28.5517C43.4361 28.7914 43.3642 29.0607 43.3642 29.3594V29.3705C43.3642 29.6803 43.4324 29.955 43.5689 30.1947C43.7053 30.4308 43.8916 30.617 44.1276 30.7535C44.3636 30.8899 44.6329 30.9582 44.9353 30.9582C45.2377 30.9582 45.5088 30.8918 45.7485 30.759C45.9882 30.6262 46.1782 30.4418 46.3183 30.2058C46.4585 29.9698 46.5285 29.7024 46.5285 29.4037V29.3926H46.8605V30.8641H46.6668C46.5709 31.0743 46.4289 31.2698 46.2409 31.4505C46.0528 31.6312 45.8204 31.7769 45.5438 31.8876C45.2709 31.9982 44.95 32.0535 44.5812 32.0535C44.0723 32.0535 43.6223 31.9392 43.2314 31.7105C42.8405 31.4819 42.5325 31.1684 42.3075 30.7701C42.0863 30.3718 41.9756 29.9218 41.9756 29.4203V29.4092C41.9756 28.867 42.101 28.3857 42.3518 27.9653C42.6063 27.5412 42.9566 27.2093 43.4029 26.9695C43.8528 26.7261 44.3636 26.6044 44.9353 26.6044ZM50.6389 33.7132C50.3881 33.7132 50.1779 33.6302 50.0082 33.4642C49.8422 33.2946 49.7593 33.088 49.7593 32.8446C49.7593 32.5975 49.8422 32.391 50.0082 32.225C50.1779 32.0554 50.3881 31.9705 50.6389 31.9705C50.8933 31.9705 51.1036 32.0554 51.2695 32.225C51.4355 32.391 51.5185 32.5975 51.5185 32.8446C51.5185 33.088 51.4355 33.2946 51.2695 33.4642C51.1036 33.6302 50.8933 33.7132 50.6389 33.7132ZM50.6389 29.6083C50.3881 29.6083 50.1779 29.5254 50.0082 29.3594C49.8422 29.1897 49.7593 28.9832 49.7593 28.7398C49.7593 28.4927 49.8422 28.2862 50.0082 28.1202C50.1779 27.9506 50.3881 27.8657 50.6389 27.8657C50.8933 27.8657 51.1036 27.9506 51.2695 28.1202C51.4355 28.2862 51.5185 28.4927 51.5185 28.7398C51.5185 28.9832 51.4355 29.1897 51.2695 29.3594C51.1036 29.5254 50.8933 29.6083 50.6389 29.6083ZM57.0229 34.7864V33.254H53.1172V32.0867C53.3275 31.729 53.5377 31.3694 53.7479 31.008C53.9618 30.6465 54.1776 30.2869 54.3952 29.9292C54.6164 29.5678 54.8359 29.2119 55.0535 28.8615C55.2748 28.5075 55.4942 28.1589 55.7118 27.8159C55.9331 27.4693 56.1544 27.1318 56.3756 26.8036H58.3838V32.0757H59.4626V33.254H58.3838V34.7864H57.0229ZM54.4449 32.1088H57.045V27.9432H56.962C56.7998 28.194 56.632 28.4521 56.4586 28.7177C56.289 28.9832 56.1175 29.2543 55.9441 29.5309C55.7708 29.8075 55.5993 30.0859 55.4297 30.3662C55.26 30.6428 55.0922 30.9213 54.9262 31.2016C54.7603 31.4782 54.5998 31.7529 54.4449 32.0259V32.1088ZM62.7652 34.7864V28.2087H62.6656L60.6796 29.6083V28.2696L62.7652 26.8036H64.187V34.7864H62.7652Z" fill="#F2F7FF"/>
<path fill-rule="evenodd" clip-rule="evenodd" d="M205.95 27.6429C205.95 27.221 205.631 26.879 205.239 26.879H204.528C204.135 26.879 203.817 27.221 203.817 27.6429V34.2635C203.817 34.6854 204.135 35.0274 204.528 35.0274H205.239C205.631 35.0274 205.95 34.6854 205.95 34.2635V27.6429ZM200.995 28.5087H201.706C202.099 28.5087 202.417 28.8589 202.417 29.2909V34.2451C202.417 34.6772 202.099 35.0274 201.706 35.0274H200.995C200.602 35.0274 200.284 34.6772 200.284 34.2451V29.2909C200.284 28.8589 200.602 28.5087 200.995 28.5087ZM198.108 30.2742H197.397C197.005 30.2742 196.686 30.6288 196.686 31.0664V34.2352C196.686 34.6727 197.005 35.0274 197.397 35.0274H198.108C198.501 35.0274 198.819 34.6727 198.819 34.2352V31.0664C198.819 30.6288 198.501 30.2742 198.108 30.2742ZM194.575 31.9038H193.865C193.472 31.9038 193.154 32.2535 193.154 32.6847V34.2465C193.154 34.6778 193.472 35.0274 193.865 35.0274H194.575C194.968 35.0274 195.286 34.6778 195.286 34.2465V32.6847C195.286 32.2535 194.968 31.9038 194.575 31.9038Z" fill="#F2F7FF"/>
<path fill-rule="evenodd" clip-rule="evenodd" d="M216.327 28.4888C217.985 28.4888 219.579 29.1034 220.78 30.2053C220.871 30.2904 221.015 30.2893 221.104 30.2029L221.969 29.3609C222.014 29.317 222.039 29.2577 222.039 29.1959C222.039 29.1341 222.013 29.0751 221.967 29.0318C218.814 26.1162 213.84 26.1162 210.687 29.0318C210.641 29.075 210.615 29.1341 210.615 29.1959C210.614 29.2576 210.64 29.317 210.685 29.3609L211.55 30.2029C211.639 30.2895 211.783 30.2905 211.874 30.2053C213.075 29.1033 214.67 28.4888 216.327 28.4888ZM216.325 31.3014C217.23 31.3013 218.102 31.6424 218.772 32.2583C218.863 32.3457 219.006 32.3438 219.094 32.254L219.952 31.3747C219.998 31.3286 220.023 31.266 220.022 31.201C220.021 31.136 219.995 31.074 219.949 31.0288C217.907 29.1022 214.745 29.1022 212.703 31.0288C212.657 31.074 212.63 31.1361 212.63 31.2011C212.629 31.2661 212.654 31.3287 212.7 31.3747L213.557 32.254C213.646 32.3438 213.789 32.3457 213.879 32.2583C214.549 31.6428 215.421 31.3018 216.325 31.3014ZM218.007 33.1631C218.009 33.2334 217.984 33.3011 217.939 33.3502L216.489 34.9862C216.446 35.0343 216.388 35.0613 216.328 35.0613C216.267 35.0613 216.209 35.0343 216.167 34.9862L214.716 33.3502C214.671 33.301 214.646 33.2333 214.647 33.1631C214.649 33.0929 214.676 33.0264 214.723 32.9793C215.649 32.1037 217.006 32.1037 217.932 32.9793C217.979 33.0264 218.006 33.0929 218.007 33.1631Z" fill="#F2F7FF"/>
<rect opacity="0.35" x="227.037" y="26.9544" width="15.9949" height="7.99745" rx="2.53253" stroke="#F2F7FF" stroke-width="0.666454"/>
<path opacity="0.4" d="M244.032 29.8076V32.5237C244.568 32.2937 244.917 31.7586 244.917 31.1657C244.917 30.5728 244.568 30.0377 244.032 29.8076Z" fill="#F2F7FF"/>
<rect x="228.037" y="27.9541" width="13.9955" height="5.99809" rx="1.66614" fill="#F2F7FF"/>
<rect x="178.548" y="50.6136" width="29.324" height="29.324" rx="14.662" fill="#242535"/>
<rect x="214.537" y="50.6136" width="35.9885" height="29.324" rx="14.662" fill="#242535"/>
<path d="M29.1373 108.806C27.8532 108.806 26.7052 108.64 25.693 108.308C24.6809 107.975 23.7972 107.499 23.0419 106.88L23.7217 105.385C24.2504 105.777 24.7791 106.11 25.3078 106.382C25.8517 106.638 26.4333 106.835 27.0526 106.971C27.672 107.092 28.3669 107.152 29.1373 107.152C30.4817 107.152 31.4788 106.903 32.1283 106.404C32.7779 105.906 33.1027 105.241 33.1027 104.41C33.1027 103.7 32.8761 103.156 32.4229 102.779C31.9697 102.401 31.1766 102.099 30.0437 101.872L27.6644 101.396C26.1991 101.094 25.1039 100.603 24.3788 99.9236C23.6688 99.2438 23.3138 98.3223 23.3138 97.1592C23.3138 96.2075 23.5555 95.3766 24.0389 94.6666C24.5374 93.9566 25.2323 93.4052 26.1236 93.0125C27.0148 92.6197 28.0496 92.4233 29.2279 92.4233C30.3609 92.4233 31.3957 92.5971 32.3323 92.9445C33.2689 93.2768 34.0695 93.7678 34.7342 94.4174L34.077 95.8676C33.367 95.2331 32.6193 94.7799 31.8338 94.508C31.0633 94.221 30.1872 94.0775 29.2053 94.0775C27.9665 94.0775 26.9846 94.3494 26.2595 94.8932C25.5495 95.4219 25.1945 96.147 25.1945 97.0685C25.1945 97.8087 25.4211 98.3903 25.8743 98.8133C26.3275 99.2212 27.0753 99.5308 28.1176 99.7423L30.5195 100.218C32.0603 100.535 33.1933 101.011 33.9184 101.646C34.6435 102.28 35.0061 103.171 35.0061 104.32C35.0061 105.196 34.7644 105.974 34.281 106.653C33.8127 107.333 33.1404 107.862 32.2643 108.24C31.3881 108.617 30.3458 108.806 29.1373 108.806ZM42.5527 108.806C40.7702 108.806 39.3653 108.292 38.3381 107.265C37.3108 106.223 36.7972 104.78 36.7972 102.937C36.7972 101.744 37.0238 100.709 37.477 99.833C37.9302 98.9417 38.5647 98.2544 39.3804 97.771C40.1961 97.2725 41.1327 97.0232 42.1902 97.0232C43.2325 97.0232 44.1087 97.2422 44.8187 97.6803C45.5287 98.1184 46.0725 98.7453 46.4502 99.5611C46.8278 100.362 47.0166 101.313 47.0166 102.416V103.096H38.2021V101.94H45.8157L45.4305 102.235C45.4305 101.026 45.1586 100.082 44.6147 99.4024C44.0709 98.7227 43.2627 98.3828 42.1902 98.3828C41.0572 98.3828 40.1735 98.7831 39.539 99.5837C38.9046 100.369 38.5873 101.434 38.5873 102.779V102.983C38.5873 104.403 38.9348 105.483 39.6297 106.223C40.3397 106.948 41.3291 107.311 42.5981 107.311C43.2778 107.311 43.9123 107.212 44.5014 107.016C45.1057 106.805 45.6797 106.465 46.2236 105.996L46.858 107.288C46.3595 107.771 45.7251 108.149 44.9546 108.421C44.1993 108.678 43.3987 108.806 42.5527 108.806ZM54.2664 108.806C53.1486 108.806 52.1742 108.564 51.3434 108.081C50.5276 107.598 49.8932 106.91 49.44 106.019C49.0019 105.128 48.7828 104.07 48.7828 102.847C48.7828 101.608 49.0094 100.558 49.4626 99.697C49.9158 98.8208 50.5503 98.1562 51.366 97.703C52.1969 97.2498 53.1637 97.0232 54.2664 97.0232C54.9915 97.0232 55.694 97.1516 56.3738 97.4084C57.0686 97.6652 57.6427 98.0278 58.0959 98.4961L57.4387 99.8103C56.9856 99.3722 56.487 99.0474 55.9432 98.836C55.4145 98.6245 54.8933 98.5187 54.3797 98.5187C53.2014 98.5187 52.2875 98.8888 51.6379 99.629C50.9884 100.369 50.6636 101.449 50.6636 102.869C50.6636 104.274 50.9884 105.362 51.6379 106.132C52.2875 106.903 53.2014 107.288 54.3797 107.288C54.8782 107.288 55.3918 107.19 55.9206 106.993C56.4644 106.797 56.9704 106.472 57.4387 106.019L58.0959 107.311C57.6276 107.794 57.046 108.164 56.3511 108.421C55.6562 108.678 54.9613 108.806 54.2664 108.806ZM64.3752 108.806C63.0307 108.806 62.0111 108.436 61.3162 107.696C60.6364 106.956 60.2965 105.823 60.2965 104.297V97.2271H62.1319V104.252C62.1319 105.294 62.3434 106.064 62.7664 106.563C63.1893 107.046 63.8465 107.288 64.7377 107.288C65.7348 107.288 66.5354 106.963 67.1396 106.314C67.7439 105.664 68.046 104.795 68.046 103.708V97.2271H69.8814V108.602H68.0913V106.042H68.3859C68.0687 106.918 67.5551 107.598 66.8451 108.081C66.1502 108.564 65.3269 108.806 64.3752 108.806ZM73.0571 108.602V99.9689C73.0571 99.5157 73.042 99.055 73.0118 98.5867C72.9967 98.1184 72.9665 97.6652 72.9212 97.2271H74.6886L74.9152 99.9916L74.598 100.014C74.749 99.3345 75.0134 98.7755 75.391 98.3374C75.7687 97.8994 76.2143 97.5746 76.7279 97.3631C77.2416 97.1365 77.7778 97.0232 78.3368 97.0232C78.5634 97.0232 78.7597 97.0308 78.9259 97.0459C79.1072 97.061 79.2734 97.0987 79.4244 97.1592L79.4018 98.7906C79.1752 98.7151 78.9637 98.6698 78.7673 98.6547C78.586 98.6245 78.3745 98.6094 78.1328 98.6094C77.4682 98.6094 76.8866 98.768 76.3881 99.0852C75.9047 99.4024 75.5345 99.8103 75.2777 100.309C75.036 100.807 74.9152 101.336 74.9152 101.895V108.602H73.0571ZM80.9943 108.602V97.2271H82.8297V108.602H80.9943ZM80.7677 94.644V92.5819H83.0336V94.644H80.7677ZM90.0871 108.806C88.9692 108.806 88.1157 108.489 87.5266 107.854C86.9374 107.205 86.6429 106.23 86.6429 104.931V98.6547H84.4222V97.2271H86.6429V94.1228L88.4783 93.6016V97.2271H91.7412V98.6547H88.4783V104.727C88.4783 105.634 88.6293 106.283 88.9315 106.676C89.2487 107.054 89.717 107.243 90.3364 107.243C90.6234 107.243 90.8802 107.22 91.1068 107.175C91.3334 107.114 91.5373 107.046 91.7186 106.971V108.512C91.5071 108.602 91.2503 108.67 90.9482 108.715C90.6611 108.776 90.3741 108.806 90.0871 108.806ZM93.3154 113.746L92.8848 112.228C93.5948 112.062 94.184 111.865 94.6523 111.639C95.1357 111.427 95.536 111.14 95.8532 110.777C96.1705 110.415 96.4424 109.962 96.669 109.418L97.2581 108.081L97.2128 108.851L92.2504 97.2271H94.2444L98.3458 107.22H97.7566L101.813 97.2271H103.739L98.4817 109.554C98.1796 110.279 97.8472 110.883 97.4847 111.367C97.1221 111.865 96.7294 112.265 96.3064 112.568C95.8985 112.885 95.4453 113.134 94.9468 113.315C94.4483 113.497 93.9045 113.64 93.3154 113.746ZM118.195 108.806C116.594 108.806 115.234 108.474 114.117 107.809C112.999 107.144 112.138 106.2 111.533 104.977C110.944 103.753 110.65 102.295 110.65 100.603C110.65 98.9115 110.944 97.4613 111.533 96.2528C112.138 95.0292 112.999 94.085 114.117 93.4203C115.234 92.7557 116.594 92.4233 118.195 92.4233C119.328 92.4233 120.34 92.5971 121.232 92.9445C122.123 93.2919 122.901 93.798 123.566 94.4627L122.863 95.9582C122.138 95.3237 121.42 94.863 120.71 94.576C120 94.2739 119.17 94.1228 118.218 94.1228C116.39 94.1228 115 94.6893 114.049 95.8222C113.097 96.9552 112.621 98.5489 112.621 100.603C112.621 102.658 113.097 104.259 114.049 105.407C115 106.54 116.39 107.107 118.218 107.107C119.17 107.107 120 106.963 120.71 106.676C121.42 106.374 122.138 105.898 122.863 105.249L123.566 106.767C122.901 107.416 122.123 107.922 121.232 108.285C120.34 108.632 119.328 108.806 118.195 108.806ZM130.441 108.806C128.659 108.806 127.254 108.292 126.227 107.265C125.199 106.223 124.686 104.78 124.686 102.937C124.686 101.744 124.912 100.709 125.366 99.833C125.819 98.9417 126.453 98.2544 127.269 97.771C128.085 97.2725 129.021 97.0232 130.079 97.0232C131.121 97.0232 131.997 97.2422 132.707 97.6803C133.417 98.1184 133.961 98.7453 134.339 99.5611C134.716 100.362 134.905 101.313 134.905 102.416V103.096H126.091V101.94H133.704L133.319 102.235C133.319 101.026 133.047 100.082 132.503 99.4024C131.959 98.7227 131.151 98.3828 130.079 98.3828C128.946 98.3828 128.062 98.7831 127.428 99.5837C126.793 100.369 126.476 101.434 126.476 102.779V102.983C126.476 104.403 126.823 105.483 127.518 106.223C128.228 106.948 129.218 107.311 130.487 107.311C131.166 107.311 131.801 107.212 132.39 107.016C132.994 106.805 133.568 106.465 134.112 105.996L134.747 107.288C134.248 107.771 133.614 108.149 132.843 108.421C132.088 108.678 131.287 108.806 130.441 108.806ZM137.374 108.602V99.8556C137.374 99.4327 137.351 99.0021 137.306 98.564C137.276 98.1109 137.238 97.6652 137.193 97.2271H138.96L139.187 99.7197H138.915C139.247 98.8435 139.776 98.1788 140.501 97.7256C141.241 97.2573 142.095 97.0232 143.061 97.0232C144.406 97.0232 145.418 97.3857 146.098 98.1109C146.793 98.8208 147.14 99.9463 147.14 101.487V108.602H145.305V101.6C145.305 100.528 145.086 99.7499 144.647 99.2665C144.225 98.768 143.56 98.5187 142.653 98.5187C141.596 98.5187 140.758 98.8435 140.138 99.4931C139.519 100.143 139.209 101.011 139.209 102.099V108.602H137.374ZM154.344 108.806C153.226 108.806 152.373 108.489 151.784 107.854C151.195 107.205 150.9 106.23 150.9 104.931V98.6547H148.679V97.2271H150.9V94.1228L152.735 93.6016V97.2271H155.998V98.6547H152.735V104.727C152.735 105.634 152.887 106.283 153.189 106.676C153.506 107.054 153.974 107.243 154.594 107.243C154.881 107.243 155.137 107.22 155.364 107.175C155.591 107.114 155.795 107.046 155.976 106.971V108.512C155.764 108.602 155.507 108.67 155.205 108.715C154.918 108.776 154.631 108.806 154.344 108.806ZM162.835 108.806C161.053 108.806 159.648 108.292 158.621 107.265C157.594 106.223 157.08 104.78 157.08 102.937C157.08 101.744 157.306 100.709 157.76 99.833C158.213 98.9417 158.847 98.2544 159.663 97.771C160.479 97.2725 161.415 97.0232 162.473 97.0232C163.515 97.0232 164.391 97.2422 165.101 97.6803C165.811 98.1184 166.355 98.7453 166.733 99.5611C167.11 100.362 167.299 101.313 167.299 102.416V103.096H158.485V101.94H166.098L165.713 102.235C165.713 101.026 165.441 100.082 164.897 99.4024C164.354 98.7227 163.545 98.3828 162.473 98.3828C161.34 98.3828 160.456 98.7831 159.822 99.5837C159.187 100.369 158.87 101.434 158.87 102.779V102.983C158.87 104.403 159.217 105.483 159.912 106.223C160.622 106.948 161.612 107.311 162.881 107.311C163.561 107.311 164.195 107.212 164.784 107.016C165.388 106.805 165.962 106.465 166.506 105.996L167.141 107.288C166.642 107.771 166.008 108.149 165.237 108.421C164.482 108.678 163.681 108.806 162.835 108.806ZM169.723 108.602V99.9689C169.723 99.5157 169.708 99.055 169.677 98.5867C169.662 98.1184 169.632 97.6652 169.587 97.2271H171.354L171.581 99.9916L171.263 100.014C171.415 99.3345 171.679 98.7755 172.057 98.3374C172.434 97.8994 172.88 97.5746 173.393 97.3631C173.907 97.1365 174.443 97.0232 175.002 97.0232C175.229 97.0232 175.425 97.0308 175.591 97.0459C175.773 97.061 175.939 97.0987 176.09 97.1592L176.067 98.7906C175.841 98.7151 175.629 98.6698 175.433 98.6547C175.252 98.6245 175.04 98.6094 174.798 98.6094C174.134 98.6094 173.552 98.768 173.054 99.0852C172.57 99.4024 172.2 99.8103 171.943 100.309C171.702 100.807 171.581 101.336 171.581 101.895V108.602H169.723Z" fill="#F2F7FF"/>
<rect x="21.9316" y="131.255" width="228.594" height="74.6429" rx="15.9949" fill="#2D2E42"/>
<path d="M35.8498 168.41V165.273H40.6003V150.904H42.4184L36.319 154.54V150.963L41.6853 147.737H44.3831V165.273H48.8403V168.41H35.8498ZM58.975 168.704C56.5509 168.704 54.6839 167.785 53.3741 165.947C52.0643 164.09 51.4094 161.451 51.4094 158.03C51.4094 154.569 52.0643 151.94 53.3741 150.142C54.6839 148.343 56.5509 147.444 58.975 147.444C61.4186 147.444 63.2856 148.343 64.5759 150.142C65.8857 151.94 66.5406 154.56 66.5406 158C66.5406 161.441 65.8857 164.09 64.5759 165.947C63.2856 167.785 61.4186 168.704 58.975 168.704ZM58.975 165.595C60.3043 165.595 61.2916 164.989 61.9367 163.777C62.5818 162.546 62.9044 160.62 62.9044 158C62.9044 155.381 62.5818 153.484 61.9367 152.312C61.2916 151.119 60.3043 150.523 58.975 150.523C57.6652 150.523 56.6779 151.119 56.0133 152.312C55.3681 153.484 55.0456 155.381 55.0456 158C55.0456 160.62 55.3681 162.546 56.0133 163.777C56.6779 164.989 57.6652 165.595 58.975 165.595ZM76.5579 168.704C74.1338 168.704 72.2668 167.785 70.957 165.947C69.6472 164.09 68.9923 161.451 68.9923 158.03C68.9923 154.569 69.6472 151.94 70.957 150.142C72.2668 148.343 74.1338 147.444 76.5579 147.444C79.0016 147.444 80.8685 148.343 82.1588 150.142C83.4686 151.94 84.1235 154.56 84.1235 158C84.1235 161.441 83.4686 164.09 82.1588 165.947C80.8685 167.785 79.0016 168.704 76.5579 168.704ZM76.5579 165.595C77.8873 165.595 78.8745 164.989 79.5196 163.777C80.1648 162.546 80.4873 160.62 80.4873 158C80.4873 155.381 80.1648 153.484 79.5196 152.312C78.8745 151.119 77.8873 150.523 76.5579 150.523C75.2481 150.523 74.2609 151.119 73.5962 152.312C72.9511 153.484 72.6285 155.381 72.6285 158C72.6285 160.62 72.9511 162.546 73.5962 163.777C74.2609 164.989 75.2481 165.595 76.5579 165.595ZM94.7566 168.41H91.619L103.818 147.737H106.955L94.7566 168.41ZM91.8536 160.082C90.1919 160.082 88.8919 159.515 87.9535 158.382C87.0151 157.248 86.5459 155.703 86.5459 153.748C86.5459 151.774 87.0151 150.23 87.9535 149.115C88.9114 148.001 90.2114 147.444 91.8536 147.444C93.5153 147.444 94.8153 148.011 95.7537 149.145C96.692 150.278 97.1612 151.813 97.1612 153.748C97.1612 155.703 96.692 157.248 95.7537 158.382C94.8153 159.515 93.5153 160.082 91.8536 160.082ZM91.8536 157.736C92.5769 157.736 93.1341 157.414 93.525 156.769C93.9356 156.124 94.1408 155.117 94.1408 153.748C94.1408 152.36 93.9356 151.363 93.525 150.757C93.1341 150.132 92.5769 149.819 91.8536 149.819C91.1302 149.819 90.5633 150.122 90.1528 150.728C89.7618 151.334 89.5663 152.341 89.5663 153.748C89.5663 155.156 89.7618 156.173 90.1528 156.798C90.5633 157.424 91.1302 157.736 91.8536 157.736ZM106.721 168.704C105.059 168.704 103.759 168.137 102.821 167.003C101.882 165.849 101.413 164.295 101.413 162.34C101.413 160.366 101.882 158.831 102.821 157.736C103.779 156.622 105.079 156.065 106.721 156.065C108.383 156.065 109.683 156.632 110.621 157.766C111.559 158.88 112.028 160.405 112.028 162.34C112.028 164.295 111.559 165.849 110.621 167.003C109.683 168.137 108.383 168.704 106.721 168.704ZM106.721 166.328C107.444 166.328 108.001 166.016 108.392 165.39C108.803 164.745 109.008 163.728 109.008 162.34C109.008 160.952 108.803 159.955 108.392 159.349C108.001 158.724 107.444 158.411 106.721 158.411C105.998 158.411 105.431 158.724 105.02 159.349C104.629 159.955 104.434 160.952 104.434 162.34C104.434 163.748 104.629 164.764 105.02 165.39C105.431 166.016 105.998 166.328 106.721 166.328Z" fill="#04C33A"/>
<path d="M33.7012 190.742V181.345H37.6866C38.6907 181.345 39.4593 181.589 39.9925 182.078C40.5345 182.558 40.8056 183.224 40.8056 184.078C40.8056 184.931 40.5345 185.601 39.9925 186.09C39.4593 186.579 38.6907 186.823 37.6866 186.823H35.0874V190.742H33.7012ZM35.0874 185.717H37.5399C38.1708 185.717 38.6463 185.575 38.9662 185.29C39.286 185.006 39.446 184.602 39.446 184.078C39.446 183.562 39.286 183.162 38.9662 182.878C38.6463 182.594 38.1708 182.451 37.5399 182.451H35.0874V185.717ZM42.1976 190.742V185.69C42.1976 185.415 42.1887 185.139 42.171 184.864C42.1621 184.58 42.1443 184.3 42.1176 184.024H43.4239L43.5705 185.757H43.3572C43.4461 185.339 43.5972 184.993 43.8104 184.717C44.0237 184.442 44.2814 184.237 44.5835 184.104C44.8945 183.971 45.2189 183.904 45.5565 183.904C45.6987 183.904 45.8187 183.913 45.9164 183.931C46.0142 183.94 46.1119 183.958 46.2097 183.984L46.1963 185.184C46.0453 185.122 45.912 185.086 45.7965 185.077C45.6898 185.059 45.5565 185.051 45.3966 185.051C45.0056 185.051 44.6724 185.139 44.3969 185.317C44.1215 185.486 43.9126 185.717 43.7705 186.01C43.6283 186.303 43.5572 186.619 43.5572 186.957V190.742H42.1976ZM50.0367 190.862C49.3702 190.862 48.7926 190.724 48.3039 190.449C47.8152 190.164 47.4375 189.765 47.1709 189.249C46.9043 188.725 46.7711 188.103 46.7711 187.383C46.7711 186.663 46.9043 186.046 47.1709 185.53C47.4375 185.006 47.8152 184.606 48.3039 184.331C48.7926 184.046 49.3702 183.904 50.0367 183.904C50.7031 183.904 51.2807 184.046 51.7695 184.331C52.2671 184.606 52.6492 185.006 52.9158 185.53C53.1912 186.046 53.329 186.663 53.329 187.383C53.329 188.103 53.1912 188.725 52.9158 189.249C52.6492 189.765 52.2671 190.164 51.7695 190.449C51.2807 190.724 50.7031 190.862 50.0367 190.862ZM50.0367 189.809C50.6232 189.809 51.0897 189.605 51.4362 189.196C51.7828 188.787 51.9561 188.183 51.9561 187.383C51.9561 186.583 51.7828 185.984 51.4362 185.584C51.0897 185.175 50.6232 184.971 50.0367 184.971C49.4591 184.971 48.997 185.175 48.6505 185.584C48.3039 185.984 48.1306 186.583 48.1306 187.383C48.1306 188.183 48.2995 188.787 48.6371 189.196C48.9837 189.605 49.4502 189.809 50.0367 189.809ZM57.4499 190.862C56.7213 190.862 56.1703 190.667 55.7971 190.276C55.4239 189.876 55.2373 189.28 55.2373 188.489V185.064H53.9311V184.024H55.2373V182.251L56.5836 181.892V184.024H58.4496V185.064H56.5836V188.369C56.5836 188.867 56.6724 189.223 56.8501 189.436C57.0279 189.649 57.2855 189.756 57.6232 189.756C57.7921 189.756 57.9387 189.742 58.0631 189.716C58.1964 189.68 58.3163 189.64 58.423 189.596V190.689C58.2897 190.742 58.1342 190.782 57.9564 190.809C57.7787 190.844 57.6099 190.862 57.4499 190.862ZM62.7202 190.862C61.6361 190.862 60.7831 190.555 60.1611 189.942C59.539 189.329 59.228 188.481 59.228 187.396C59.228 186.694 59.3613 186.081 59.6279 185.557C59.9034 185.033 60.281 184.628 60.7609 184.344C61.2496 184.051 61.8139 183.904 62.4537 183.904C63.0846 183.904 63.6133 184.038 64.0398 184.304C64.4664 184.571 64.7907 184.948 65.0128 185.437C65.235 185.917 65.3461 186.486 65.3461 187.143V187.57H60.281V186.797H64.4264L64.1998 186.97C64.1998 186.303 64.0487 185.788 63.7466 185.424C63.4533 185.051 63.0268 184.864 62.467 184.864C61.845 184.864 61.3651 185.082 61.0274 185.517C60.6898 185.944 60.5209 186.535 60.5209 187.29V187.423C60.5209 188.214 60.712 188.809 61.0941 189.209C61.4851 189.609 62.036 189.809 62.7469 189.809C63.1379 189.809 63.5022 189.756 63.8399 189.649C64.1864 189.534 64.5152 189.347 64.8262 189.089L65.2661 190.009C64.9551 190.284 64.5774 190.498 64.1331 190.649C63.6888 190.791 63.2179 190.862 62.7202 190.862ZM69.8366 190.862C69.1613 190.862 68.5704 190.724 68.0638 190.449C67.5662 190.164 67.1797 189.76 66.9042 189.236C66.6376 188.703 66.5043 188.072 66.5043 187.343C66.5043 186.623 66.6421 186.006 66.9175 185.49C67.193 184.975 67.5796 184.584 68.0772 184.317C68.5748 184.042 69.1613 183.904 69.8366 183.904C70.272 183.904 70.6941 183.98 71.1029 184.131C71.5116 184.273 71.8493 184.477 72.1159 184.744L71.676 185.69C71.4272 185.45 71.1473 185.273 70.8363 185.157C70.5253 185.033 70.2232 184.971 69.9299 184.971C69.2901 184.971 68.7881 185.175 68.4237 185.584C68.0594 185.992 67.8772 186.583 67.8772 187.356C67.8772 188.138 68.0594 188.738 68.4237 189.156C68.7881 189.574 69.2901 189.782 69.9299 189.782C70.2143 189.782 70.512 189.729 70.823 189.622C71.134 189.507 71.4183 189.325 71.676 189.076L72.1159 190.022C71.8404 190.289 71.4939 190.498 71.0762 190.649C70.6675 190.791 70.2543 190.862 69.8366 190.862ZM76.1679 190.862C75.4393 190.862 74.8883 190.667 74.5151 190.276C74.1419 189.876 73.9553 189.28 73.9553 188.489V185.064H72.6491V184.024H73.9553V182.251L75.3015 181.892V184.024H77.1676V185.064H75.3015V188.369C75.3015 188.867 75.3904 189.223 75.5681 189.436C75.7458 189.649 76.0035 189.756 76.3412 189.756C76.51 189.756 76.6567 189.742 76.7811 189.716C76.9144 189.68 77.0343 189.64 77.141 189.596V190.689C77.0077 190.742 76.8522 190.782 76.6744 190.809C76.4967 190.844 76.3279 190.862 76.1679 190.862ZM81.4382 190.862C80.3541 190.862 79.5011 190.555 78.879 189.942C78.257 189.329 77.946 188.481 77.946 187.396C77.946 186.694 78.0793 186.081 78.3459 185.557C78.6214 185.033 78.999 184.628 79.4789 184.344C79.9676 184.051 80.5319 183.904 81.1716 183.904C81.8026 183.904 82.3313 184.038 82.7578 184.304C83.1843 184.571 83.5087 184.948 83.7308 185.437C83.953 185.917 84.0641 186.486 84.0641 187.143V187.57H78.999V186.797H83.1444L82.9178 186.97C82.9178 186.303 82.7667 185.788 82.4646 185.424C82.1713 185.051 81.7448 184.864 81.185 184.864C80.563 184.864 80.0831 185.082 79.7454 185.517C79.4078 185.944 79.2389 186.535 79.2389 187.29V187.423C79.2389 188.214 79.43 188.809 79.8121 189.209C80.2031 189.609 80.754 189.809 81.4649 189.809C81.8559 189.809 82.2202 189.756 82.5579 189.649C82.9044 189.534 83.2332 189.347 83.5442 189.089L83.9841 190.009C83.6731 190.284 83.2954 190.498 82.8511 190.649C82.4068 190.791 81.9359 190.862 81.4382 190.862ZM88.1814 190.862C87.5949 190.862 87.0751 190.724 86.6219 190.449C86.1776 190.173 85.831 189.773 85.5822 189.249C85.3423 188.725 85.2223 188.103 85.2223 187.383C85.2223 186.654 85.3423 186.032 85.5822 185.517C85.831 185.002 86.1776 184.606 86.6219 184.331C87.0751 184.046 87.5949 183.904 88.1814 183.904C88.759 183.904 89.2655 184.051 89.7009 184.344C90.1452 184.628 90.4385 185.019 90.5806 185.517H90.4207V180.932H91.7669V190.742H90.434V189.223H90.594C90.4429 189.729 90.1497 190.129 89.7142 190.422C89.2788 190.715 88.7679 190.862 88.1814 190.862ZM88.5146 189.809C89.0922 189.809 89.5587 189.605 89.9142 189.196C90.2696 188.787 90.4473 188.183 90.4473 187.383C90.4473 186.583 90.2696 185.984 89.9142 185.584C89.5587 185.175 89.0922 184.971 88.5146 184.971C87.9281 184.971 87.4572 185.175 87.1017 185.584C86.7552 185.984 86.5819 186.583 86.5819 187.383C86.5819 188.183 86.7552 188.787 87.1017 189.196C87.4572 189.605 87.9281 189.809 88.5146 189.809Z" fill="#F2F7FF"/>
<g clip-path="url(#clip2_2_1307)">
<circle cx="199.208" cy="154.58" r="12.6626" fill="#04C33A"/>
<circle cx="227.199" cy="154.58" r="12.6626" fill="#04C33A"/>
<circle cx="199.208" cy="182.571" r="12.6626" fill="#04C33A"/>
<circle cx="227.199" cy="182.571" r="12.6626" fill="#04C33A"/>
</g>
<rect x="21.9316" y="213.895" width="228.594" height="53.3163" rx="15.9949" fill="#2D2E42"/>
<path d="M53.3205 230.587L57.1175 232.215C57.6075 232.425 57.9253 232.907 57.9253 233.44V241.774C57.9253 244.357 56.678 246.781 54.5763 248.282L49.3697 252.001C48.9062 252.332 48.2837 252.332 47.8202 252.001L42.6136 248.282C40.5119 246.781 39.2646 244.357 39.2646 241.774V233.44C39.2646 232.907 39.5823 232.425 40.0724 232.215L43.8694 230.587C46.887 229.294 50.3028 229.294 53.3205 230.587Z" fill="#F2F7FF"/>
<circle cx="48.5949" cy="239.759" r="1.86607" fill="#7067FB" stroke="#7067FB" stroke-width="1.59949"/>
<path d="M48.5949 241.092V244.424" stroke="#7067FB" stroke-width="1.33291" stroke-linecap="round"/>
<path d="M71.0227 239.053V229.656H74.275C75.3324 229.656 76.2255 229.838 76.9541 230.203C77.6917 230.567 78.2471 231.1 78.6203 231.802C79.0024 232.495 79.1934 233.344 79.1934 234.348C79.1934 235.343 79.0024 236.192 78.6203 236.894C78.2471 237.596 77.6917 238.134 76.9541 238.507C76.2255 238.871 75.3324 239.053 74.275 239.053H71.0227ZM72.4089 237.894H74.195C75.4035 237.894 76.301 237.6 76.8875 237.014C77.4829 236.427 77.7805 235.539 77.7805 234.348C77.7805 233.157 77.4829 232.273 76.8875 231.696C76.301 231.109 75.4035 230.816 74.195 230.816H72.4089V237.894ZM84.0573 239.173C82.9732 239.173 82.1201 238.867 81.4981 238.254C80.8761 237.64 80.5651 236.792 80.5651 235.708C80.5651 235.006 80.6984 234.393 80.9649 233.868C81.2404 233.344 81.6181 232.94 82.0979 232.655C82.5866 232.362 83.1509 232.215 83.7907 232.215C84.4216 232.215 84.9503 232.349 85.3769 232.615C85.8034 232.882 86.1277 233.26 86.3499 233.748C86.572 234.228 86.6831 234.797 86.6831 235.454V235.881H81.6181V235.108H85.7634L85.5368 235.281C85.5368 234.615 85.3858 234.099 85.0836 233.735C84.7904 233.362 84.3639 233.175 83.804 233.175C83.182 233.175 82.7022 233.393 82.3645 233.828C82.0268 234.255 81.858 234.846 81.858 235.601V235.734C81.858 236.525 82.049 237.121 82.4311 237.52C82.8221 237.92 83.3731 238.12 84.0839 238.12C84.4749 238.12 84.8393 238.067 85.1769 237.96C85.5235 237.845 85.8523 237.658 86.1633 237.4L86.6031 238.32C86.2921 238.596 85.9145 238.809 85.4702 238.96C85.0259 239.102 84.5549 239.173 84.0573 239.173ZM90.1095 239.053L87.2304 232.335H88.67L90.9359 237.947H90.5494L92.8553 232.335H94.2282L91.3358 239.053H90.1095ZM95.296 239.053V232.335H96.6422V239.053H95.296ZM95.1894 230.936V229.536H96.7489V230.936H95.1894ZM101.561 239.173C100.886 239.173 100.295 239.036 99.7882 238.76C99.2906 238.476 98.904 238.071 98.6286 237.547C98.362 237.014 98.2287 236.383 98.2287 235.654C98.2287 234.935 98.3664 234.317 98.6419 233.802C98.9174 233.286 99.3039 232.895 99.8015 232.629C100.299 232.353 100.886 232.215 101.561 232.215C101.996 232.215 102.418 232.291 102.827 232.442C103.236 232.584 103.574 232.789 103.84 233.055L103.4 234.002C103.152 233.762 102.872 233.584 102.561 233.468C102.25 233.344 101.948 233.282 101.654 233.282C101.014 233.282 100.512 233.486 100.148 233.895C99.7838 234.304 99.6016 234.895 99.6016 235.668C99.6016 236.45 99.7838 237.049 100.148 237.467C100.512 237.885 101.014 238.094 101.654 238.094C101.939 238.094 102.236 238.04 102.547 237.934C102.858 237.818 103.143 237.636 103.4 237.387L103.84 238.334C103.565 238.6 103.218 238.809 102.801 238.96C102.392 239.102 101.979 239.173 101.561 239.173ZM108.242 239.173C107.158 239.173 106.305 238.867 105.683 238.254C105.061 237.64 104.75 236.792 104.75 235.708C104.75 235.006 104.883 234.393 105.15 233.868C105.425 233.344 105.803 232.94 106.283 232.655C106.772 232.362 107.336 232.215 107.976 232.215C108.607 232.215 109.135 232.349 109.562 232.615C109.988 232.882 110.313 233.26 110.535 233.748C110.757 234.228 110.868 234.797 110.868 235.454V235.881H105.803V235.108H109.948L109.722 235.281C109.722 234.615 109.571 234.099 109.269 233.735C108.975 233.362 108.549 233.175 107.989 233.175C107.367 233.175 106.887 233.393 106.549 233.828C106.212 234.255 106.043 234.846 106.043 235.601V235.734C106.043 236.525 106.234 237.121 106.616 237.52C107.007 237.92 107.558 238.12 108.269 238.12C108.66 238.12 109.024 238.067 109.362 237.96C109.708 237.845 110.037 237.658 110.348 237.4L110.788 238.32C110.477 238.596 110.099 238.809 109.655 238.96C109.211 239.102 108.74 239.173 108.242 239.173ZM119.259 239.173C118.503 239.173 117.819 239.08 117.206 238.893C116.593 238.698 116.06 238.422 115.607 238.067L116.073 236.974C116.375 237.205 116.686 237.396 117.006 237.547C117.335 237.698 117.681 237.814 118.046 237.894C118.419 237.965 118.823 238 119.259 238C120.005 238 120.552 237.867 120.898 237.6C121.254 237.334 121.431 236.983 121.431 236.547C121.431 236.174 121.307 235.885 121.058 235.681C120.818 235.477 120.392 235.312 119.779 235.188L118.326 234.895C117.464 234.717 116.82 234.428 116.393 234.028C115.975 233.619 115.767 233.064 115.767 232.362C115.767 231.793 115.918 231.296 116.22 230.869C116.522 230.443 116.94 230.114 117.473 229.883C118.015 229.652 118.646 229.536 119.365 229.536C120.032 229.536 120.645 229.634 121.205 229.83C121.765 230.016 122.236 230.296 122.618 230.669L122.165 231.722C121.765 231.376 121.338 231.122 120.885 230.963C120.432 230.794 119.916 230.709 119.339 230.709C118.655 230.709 118.117 230.851 117.726 231.136C117.344 231.42 117.153 231.807 117.153 232.295C117.153 232.686 117.273 232.993 117.513 233.215C117.761 233.437 118.17 233.606 118.739 233.722L120.192 234.002C121.089 234.188 121.751 234.477 122.178 234.868C122.604 235.25 122.818 235.779 122.818 236.454C122.818 236.996 122.671 237.472 122.378 237.88C122.093 238.289 121.685 238.609 121.151 238.84C120.618 239.062 119.987 239.173 119.259 239.173ZM127.507 239.173C126.423 239.173 125.57 238.867 124.948 238.254C124.326 237.64 124.015 236.792 124.015 235.708C124.015 235.006 124.148 234.393 124.415 233.868C124.69 233.344 125.068 232.94 125.548 232.655C126.036 232.362 126.601 232.215 127.24 232.215C127.871 232.215 128.4 232.349 128.827 232.615C129.253 232.882 129.577 233.26 129.8 233.748C130.022 234.228 130.133 234.797 130.133 235.454V235.881H125.068V235.108H129.213L128.986 235.281C128.986 234.615 128.835 234.099 128.533 233.735C128.24 233.362 127.814 233.175 127.254 233.175C126.632 233.175 126.152 233.393 125.814 233.828C125.477 234.255 125.308 234.846 125.308 235.601V235.734C125.308 236.525 125.499 237.121 125.881 237.52C126.272 237.92 126.823 238.12 127.534 238.12C127.925 238.12 128.289 238.067 128.627 237.96C128.973 237.845 129.302 237.658 129.613 237.4L130.053 238.32C129.742 238.596 129.364 238.809 128.92 238.96C128.476 239.102 128.005 239.173 127.507 239.173ZM134.623 239.173C133.948 239.173 133.357 239.036 132.851 238.76C132.353 238.476 131.966 238.071 131.691 237.547C131.424 237.014 131.291 236.383 131.291 235.654C131.291 234.935 131.429 234.317 131.704 233.802C131.98 233.286 132.366 232.895 132.864 232.629C133.362 232.353 133.948 232.215 134.623 232.215C135.059 232.215 135.481 232.291 135.89 232.442C136.298 232.584 136.636 232.789 136.903 233.055L136.463 234.002C136.214 233.762 135.934 233.584 135.623 233.468C135.312 233.344 135.01 233.282 134.717 233.282C134.077 233.282 133.575 233.486 133.21 233.895C132.846 234.304 132.664 234.895 132.664 235.668C132.664 236.45 132.846 237.049 133.21 237.467C133.575 237.885 134.077 238.094 134.717 238.094C135.001 238.094 135.299 238.04 135.61 237.934C135.921 237.818 136.205 237.636 136.463 237.387L136.903 238.334C136.627 238.6 136.281 238.809 135.863 238.96C135.454 239.102 135.041 239.173 134.623 239.173ZM140.715 239.173C139.906 239.173 139.298 238.956 138.889 238.52C138.489 238.076 138.289 237.396 138.289 236.481V232.335H139.635V236.454C139.635 237.014 139.751 237.427 139.982 237.694C140.213 237.96 140.564 238.094 141.035 238.094C141.568 238.094 141.999 237.916 142.328 237.56C142.657 237.205 142.821 236.734 142.821 236.148V232.335H144.167V239.053H142.861V237.614H143.034C142.848 238.111 142.55 238.498 142.141 238.773C141.732 239.04 141.257 239.173 140.715 239.173ZM146.112 239.053V234.002C146.112 233.726 146.104 233.451 146.086 233.175C146.077 232.891 146.059 232.611 146.033 232.335H147.339L147.485 234.068H147.272C147.361 233.651 147.512 233.304 147.725 233.029C147.939 232.753 148.196 232.549 148.498 232.415C148.809 232.282 149.134 232.215 149.471 232.215C149.614 232.215 149.734 232.224 149.831 232.242C149.929 232.251 150.027 232.269 150.125 232.295L150.111 233.495C149.96 233.433 149.827 233.397 149.711 233.388C149.605 233.371 149.471 233.362 149.311 233.362C148.92 233.362 148.587 233.451 148.312 233.628C148.036 233.797 147.828 234.028 147.685 234.321C147.543 234.615 147.472 234.93 147.472 235.268V239.053H146.112ZM151.164 239.053V232.335H152.51V239.053H151.164ZM151.057 230.936V229.536H152.616V230.936H151.057ZM157.095 239.173C156.367 239.173 155.816 238.978 155.443 238.587C155.069 238.187 154.883 237.592 154.883 236.801V233.375H153.576V232.335H154.883V230.563L156.229 230.203V232.335H158.095V233.375H156.229V236.681C156.229 237.178 156.318 237.534 156.496 237.747C156.673 237.96 156.931 238.067 157.269 238.067C157.437 238.067 157.584 238.054 157.708 238.027C157.842 237.991 157.962 237.951 158.068 237.907V239C157.935 239.053 157.78 239.093 157.602 239.12C157.424 239.155 157.255 239.173 157.095 239.173ZM159.216 242.079L158.896 240.986C159.314 240.897 159.661 240.791 159.936 240.666C160.22 240.542 160.456 240.377 160.642 240.173C160.829 239.977 160.989 239.724 161.122 239.413L161.456 238.627L161.429 239.173L158.51 232.335H159.949L162.215 237.934H161.855L164.121 232.335H165.508L162.429 239.533C162.233 239.977 162.024 240.351 161.802 240.653C161.58 240.955 161.34 241.199 161.082 241.386C160.825 241.572 160.54 241.719 160.229 241.826C159.918 241.932 159.581 242.017 159.216 242.079Z" fill="#F2F7FF"/>
<path d="M73.3819 252.131C72.7581 252.131 72.2268 252.004 71.7878 251.75C71.3488 251.496 71.0109 251.135 70.7741 250.667C70.5431 250.193 70.4276 249.636 70.4276 248.995C70.4276 248.354 70.5431 247.799 70.7741 247.331C71.0109 246.864 71.3488 246.503 71.7878 246.248C72.2268 245.994 72.7581 245.867 73.3819 245.867C73.8151 245.867 74.2021 245.931 74.5429 246.058C74.8837 246.185 75.1811 246.37 75.4353 246.612L75.1234 247.331C74.8461 247.095 74.5747 246.924 74.309 246.82C74.0491 246.716 73.7458 246.664 73.3993 246.664C72.7408 246.664 72.2383 246.866 71.8918 247.271C71.5452 247.675 71.3719 248.25 71.3719 248.995C71.3719 249.74 71.5452 250.318 71.8918 250.728C72.2383 251.132 72.7408 251.334 73.3993 251.334C73.7458 251.334 74.0491 251.282 74.309 251.178C74.5747 251.074 74.8461 250.901 75.1234 250.658L75.4353 251.377C75.1811 251.62 74.8837 251.808 74.5429 251.941C74.2021 252.068 73.8151 252.131 73.3819 252.131ZM78.0554 252.131C77.6222 252.131 77.2467 252.042 76.9291 251.863C76.6114 251.678 76.3659 251.418 76.1926 251.083C76.0194 250.742 75.9327 250.338 75.9327 249.87C75.9327 249.402 76.0194 249.001 76.1926 248.666C76.3659 248.325 76.6114 248.065 76.9291 247.886C77.2467 247.701 77.6222 247.609 78.0554 247.609C78.4886 247.609 78.864 247.701 79.1817 247.886C79.5051 248.065 79.7535 248.325 79.9268 248.666C80.1058 249.001 80.1954 249.402 80.1954 249.87C80.1954 250.338 80.1058 250.742 79.9268 251.083C79.7535 251.418 79.5051 251.678 79.1817 251.863C78.864 252.042 78.4886 252.131 78.0554 252.131ZM78.0554 251.447C78.4366 251.447 78.7398 251.314 78.9651 251.048C79.1903 250.783 79.303 250.39 79.303 249.87C79.303 249.35 79.1903 248.96 78.9651 248.7C78.7398 248.435 78.4366 248.302 78.0554 248.302C77.6799 248.302 77.3796 248.435 77.1543 248.7C76.9291 248.96 76.8164 249.35 76.8164 249.87C76.8164 250.39 76.9262 250.783 77.1457 251.048C77.3709 251.314 77.6742 251.447 78.0554 251.447ZM81.2182 252.053V248.735C81.2182 248.568 81.2095 248.397 81.1922 248.224C81.1806 248.045 81.1662 247.866 81.1489 247.687H81.9979L82.0759 248.605H81.9719C82.0932 248.287 82.2781 248.042 82.5264 247.869C82.7806 247.695 83.0838 247.609 83.4361 247.609C83.7942 247.609 84.0859 247.695 84.3112 247.869C84.5422 248.036 84.7011 248.296 84.7877 248.648H84.6491C84.7646 248.331 84.961 248.079 85.2382 247.895C85.5155 247.704 85.836 247.609 86.1999 247.609C86.6851 247.609 87.049 247.75 87.2916 248.033C87.5342 248.316 87.6555 248.755 87.6555 249.35V252.053H86.7804V249.393C86.7804 249.012 86.714 248.738 86.5811 248.57C86.4541 248.397 86.2461 248.31 85.9573 248.31C85.6223 248.31 85.3566 248.426 85.1602 248.657C84.9639 248.888 84.8657 249.2 84.8657 249.593V252.053H83.9906V249.393C83.9906 249.012 83.9242 248.738 83.7914 248.57C83.6643 248.397 83.4563 248.31 83.1676 248.31C82.8325 248.31 82.5697 248.426 82.3791 248.657C82.1885 248.888 82.0932 249.2 82.0932 249.593V252.053H81.2182ZM88.9091 253.925V248.735C88.9091 248.568 88.9004 248.397 88.8831 248.224C88.8715 248.045 88.8571 247.866 88.8398 247.687H89.6888L89.7755 248.674H89.6802C89.7726 248.345 89.9574 248.085 90.2347 247.895C90.5177 247.704 90.8527 247.609 91.2397 247.609C91.6267 247.609 91.9645 247.701 92.2533 247.886C92.5421 248.065 92.7645 248.322 92.9205 248.657C93.0822 248.992 93.1631 249.396 93.1631 249.87C93.1631 250.338 93.0822 250.742 92.9205 251.083C92.7645 251.424 92.5421 251.684 92.2533 251.863C91.9645 252.042 91.6267 252.131 91.2397 252.131C90.8585 252.131 90.5263 252.039 90.2433 251.854C89.9661 251.663 89.7812 251.406 89.6888 251.083H89.7841V253.925H88.9091ZM91.0231 251.447C91.4043 251.447 91.7075 251.314 91.9328 251.048C92.1638 250.783 92.2793 250.39 92.2793 249.87C92.2793 249.35 92.1638 248.96 91.9328 248.7C91.7075 248.435 91.4043 248.302 91.0231 248.302C90.6419 248.302 90.3357 248.435 90.1047 248.7C89.8794 248.96 89.7668 249.35 89.7668 249.87C89.7668 250.39 89.8794 250.783 90.1047 251.048C90.3357 251.314 90.6419 251.447 91.0231 251.447ZM94.1886 252.053V245.677H95.0637V252.053H94.1886ZM98.3649 252.131C97.6602 252.131 97.1057 251.932 96.7014 251.533C96.2971 251.135 96.0949 250.583 96.0949 249.879C96.0949 249.422 96.1815 249.024 96.3548 248.683C96.5339 248.342 96.7794 248.079 97.0913 247.895C97.4089 247.704 97.7757 247.609 98.1916 247.609C98.6017 247.609 98.9453 247.695 99.2226 247.869C99.4998 248.042 99.7106 248.287 99.855 248.605C99.9994 248.917 100.072 249.287 100.072 249.714V249.991H96.7794V249.489H99.4738L99.3265 249.601C99.3265 249.168 99.2284 248.833 99.032 248.596C98.8414 248.354 98.5641 248.233 98.2002 248.233C97.7959 248.233 97.484 248.374 97.2645 248.657C97.045 248.934 96.9353 249.318 96.9353 249.809V249.896C96.9353 250.41 97.0595 250.797 97.3079 251.057C97.562 251.317 97.9201 251.447 98.3822 251.447C98.6363 251.447 98.8731 251.412 99.0926 251.343C99.3179 251.268 99.5316 251.146 99.7337 250.979L100.02 251.577C99.8175 251.756 99.572 251.894 99.2832 251.993C98.9944 252.085 98.6883 252.131 98.3649 252.131ZM102.765 252.131C102.292 252.131 101.934 252.004 101.691 251.75C101.449 251.49 101.327 251.103 101.327 250.589V248.362H100.478V247.687H101.327V246.534L102.202 246.3V247.687H103.415V248.362H102.202V250.511C102.202 250.835 102.26 251.066 102.376 251.204C102.491 251.343 102.659 251.412 102.878 251.412C102.988 251.412 103.083 251.403 103.164 251.386C103.251 251.363 103.329 251.337 103.398 251.308V252.019C103.311 252.053 103.21 252.079 103.095 252.097C102.979 252.12 102.869 252.131 102.765 252.131ZM106.191 252.131C105.486 252.131 104.932 251.932 104.528 251.533C104.123 251.135 103.921 250.583 103.921 249.879C103.921 249.422 104.008 249.024 104.181 248.683C104.36 248.342 104.606 248.079 104.918 247.895C105.235 247.704 105.602 247.609 106.018 247.609C106.428 247.609 106.772 247.695 107.049 247.869C107.326 248.042 107.537 248.287 107.681 248.605C107.826 248.917 107.898 249.287 107.898 249.714V249.991H104.606V249.489H107.3L107.153 249.601C107.153 249.168 107.055 248.833 106.858 248.596C106.668 248.354 106.39 248.233 106.027 248.233C105.622 248.233 105.31 248.374 105.091 248.657C104.871 248.934 104.762 249.318 104.762 249.809V249.896C104.762 250.41 104.886 250.797 105.134 251.057C105.388 251.317 105.746 251.447 106.208 251.447C106.463 251.447 106.699 251.412 106.919 251.343C107.144 251.268 107.358 251.146 107.56 250.979L107.846 251.577C107.644 251.756 107.398 251.894 107.11 251.993C106.821 252.085 106.515 252.131 106.191 252.131ZM110.574 252.131C110.193 252.131 109.855 252.042 109.561 251.863C109.272 251.684 109.046 251.424 108.885 251.083C108.729 250.742 108.651 250.338 108.651 249.87C108.651 249.396 108.729 248.992 108.885 248.657C109.046 248.322 109.272 248.065 109.561 247.886C109.855 247.701 110.193 247.609 110.574 247.609C110.95 247.609 111.279 247.704 111.562 247.895C111.851 248.079 112.041 248.334 112.134 248.657H112.03V245.677H112.905V252.053H112.038V251.066H112.142C112.044 251.395 111.854 251.655 111.571 251.845C111.288 252.036 110.955 252.131 110.574 252.131ZM110.791 251.447C111.166 251.447 111.469 251.314 111.7 251.048C111.932 250.783 112.047 250.39 112.047 249.87C112.047 249.35 111.932 248.96 111.7 248.7C111.469 248.435 111.166 248.302 110.791 248.302C110.41 248.302 110.103 248.435 109.872 248.7C109.647 248.96 109.535 249.35 109.535 249.87C109.535 250.39 109.647 250.783 109.872 251.048C110.103 251.314 110.41 251.447 110.791 251.447Z" fill="#04C33A"/>
<path d="M229.865 230.052L233.864 234.051L229.865 238.049" stroke="#A9ADB3" stroke-width="0.666454"/>
<rect x="21.9316" y="275.209" width="228.594" height="53.3163" rx="15.9949" fill="#2D2E42"/>
<path d="M59.5036 300.447C60.021 301.075 60.2797 301.389 60.2797 301.867C60.2797 302.345 60.021 302.659 59.5036 303.288C57.6108 305.586 53.4358 309.865 48.5897 309.865C43.7436 309.865 39.5687 305.586 37.6758 303.288C37.1585 302.659 36.8998 302.345 36.8998 301.867C36.8998 301.389 37.1585 301.075 37.6758 300.447C39.5687 298.148 43.7436 293.87 48.5897 293.87C53.4358 293.87 57.6108 298.148 59.5036 300.447Z" fill="#F0EFFB"/>
<circle cx="48.5897" cy="301.867" r="3.99872" fill="#7067FB"/>
<path d="M70.0496 300.367L74.2349 290.97H75.4212L79.6731 300.367H78.2469L77.0873 297.701L77.6738 298.074H71.9823L72.6087 297.701L71.4491 300.367H70.0496ZM74.808 292.49L72.782 297.275L72.4621 296.968H77.1939L76.9274 297.275L74.8613 292.49H74.808ZM83.3027 300.487C82.7162 300.487 82.1964 300.349 81.7432 300.074C81.2989 299.798 80.9524 299.398 80.7035 298.874C80.4636 298.35 80.3437 297.728 80.3437 297.008C80.3437 296.279 80.4636 295.657 80.7035 295.142C80.9524 294.627 81.2989 294.231 81.7432 293.956C82.1964 293.671 82.7162 293.529 83.3027 293.529C83.8803 293.529 84.3868 293.676 84.8222 293.969C85.2665 294.253 85.5598 294.644 85.702 295.142H85.542V290.557H86.8882V300.367H85.5553V298.848H85.7153C85.5642 299.354 85.271 299.754 84.8356 300.047C84.4001 300.34 83.8892 300.487 83.3027 300.487ZM83.6359 299.434C84.2135 299.434 84.6801 299.23 85.0355 298.821C85.3909 298.412 85.5687 297.808 85.5687 297.008C85.5687 296.208 85.3909 295.609 85.0355 295.209C84.6801 294.8 84.2135 294.596 83.6359 294.596C83.0495 294.596 82.5785 294.8 82.2231 295.209C81.8765 295.609 81.7032 296.208 81.7032 297.008C81.7032 297.808 81.8765 298.412 82.2231 298.821C82.5785 299.23 83.0495 299.434 83.6359 299.434ZM92.5261 300.367V290.97H96.4449C97.4579 290.97 98.2354 291.183 98.7775 291.61C99.3284 292.036 99.6039 292.636 99.6039 293.409C99.6039 293.987 99.4306 294.471 99.084 294.862C98.7375 295.253 98.2621 295.515 97.6578 295.649V295.449C98.3509 295.537 98.8885 295.782 99.2706 296.182C99.6527 296.582 99.8438 297.11 99.8438 297.768C99.8438 298.603 99.5594 299.247 98.9907 299.701C98.4309 300.145 97.6401 300.367 96.6182 300.367H92.5261ZM93.8724 299.287H96.4715C97.1024 299.287 97.5956 299.167 97.9511 298.928C98.3154 298.688 98.4976 298.283 98.4976 297.715C98.4976 297.146 98.3154 296.742 97.9511 296.502C97.5956 296.262 97.1024 296.142 96.4715 296.142H93.8724V299.287ZM93.8724 295.075H96.2316C96.907 295.075 97.4135 294.947 97.7511 294.689C98.0888 294.431 98.2576 294.054 98.2576 293.556C98.2576 293.058 98.0888 292.681 97.7511 292.423C97.4135 292.165 96.907 292.036 96.2316 292.036H93.8724V295.075ZM101.531 300.367V290.557H102.877V300.367H101.531ZM107.729 300.487C107.063 300.487 106.485 300.349 105.996 300.074C105.508 299.789 105.13 299.39 104.863 298.874C104.597 298.35 104.464 297.728 104.464 297.008C104.464 296.288 104.597 295.671 104.863 295.155C105.13 294.631 105.508 294.231 105.996 293.956C106.485 293.671 107.063 293.529 107.729 293.529C108.396 293.529 108.973 293.671 109.462 293.956C109.96 294.231 110.342 294.631 110.608 295.155C110.884 295.671 111.021 296.288 111.021 297.008C111.021 297.728 110.884 298.35 110.608 298.874C110.342 299.39 109.96 299.789 109.462 300.074C108.973 300.349 108.396 300.487 107.729 300.487ZM107.729 299.434C108.316 299.434 108.782 299.23 109.129 298.821C109.475 298.412 109.649 297.808 109.649 297.008C109.649 296.208 109.475 295.609 109.129 295.209C108.782 294.8 108.316 294.596 107.729 294.596C107.152 294.596 106.69 294.8 106.343 295.209C105.996 295.609 105.823 296.208 105.823 297.008C105.823 297.808 105.992 298.412 106.33 298.821C106.676 299.23 107.143 299.434 107.729 299.434ZM115.541 300.487C114.865 300.487 114.275 300.349 113.768 300.074C113.27 299.789 112.884 299.385 112.608 298.861C112.342 298.328 112.209 297.697 112.209 296.968C112.209 296.248 112.346 295.631 112.622 295.115C112.897 294.6 113.284 294.209 113.781 293.942C114.279 293.667 114.865 293.529 115.541 293.529C115.976 293.529 116.398 293.605 116.807 293.756C117.216 293.898 117.553 294.102 117.82 294.369L117.38 295.315C117.131 295.075 116.851 294.898 116.54 294.782C116.229 294.658 115.927 294.596 115.634 294.596C114.994 294.596 114.492 294.8 114.128 295.209C113.764 295.617 113.581 296.208 113.581 296.981C113.581 297.763 113.764 298.363 114.128 298.781C114.492 299.199 114.994 299.407 115.634 299.407C115.918 299.407 116.216 299.354 116.527 299.247C116.838 299.132 117.122 298.95 117.38 298.701L117.82 299.647C117.545 299.914 117.198 300.123 116.78 300.274C116.372 300.416 115.958 300.487 115.541 300.487ZM119.247 300.367V290.557H120.593V296.582H120.619L123.552 293.649H125.218L121.672 297.181L121.686 296.582L125.511 300.367H123.805L120.619 297.288H120.593V300.367H119.247ZM129.303 300.487C128.219 300.487 127.366 300.18 126.744 299.567C126.122 298.954 125.811 298.106 125.811 297.021C125.811 296.319 125.944 295.706 126.211 295.182C126.486 294.658 126.864 294.253 127.344 293.969C127.833 293.676 128.397 293.529 129.037 293.529C129.667 293.529 130.196 293.663 130.623 293.929C131.049 294.196 131.374 294.573 131.596 295.062C131.818 295.542 131.929 296.111 131.929 296.768V297.195H126.864V296.422H131.009L130.783 296.595C130.783 295.928 130.632 295.413 130.329 295.049C130.036 294.676 129.61 294.489 129.05 294.489C128.428 294.489 127.948 294.707 127.61 295.142C127.273 295.569 127.104 296.16 127.104 296.915V297.048C127.104 297.839 127.295 298.434 127.677 298.834C128.068 299.234 128.619 299.434 129.33 299.434C129.721 299.434 130.085 299.381 130.423 299.274C130.769 299.159 131.098 298.972 131.409 298.714L131.849 299.634C131.538 299.909 131.16 300.123 130.716 300.274C130.272 300.416 129.801 300.487 129.303 300.487ZM133.447 300.367V295.315C133.447 295.04 133.438 294.764 133.42 294.489C133.412 294.205 133.394 293.925 133.367 293.649H134.673L134.82 295.382H134.607C134.696 294.964 134.847 294.618 135.06 294.342C135.273 294.067 135.531 293.862 135.833 293.729C136.144 293.596 136.468 293.529 136.806 293.529C136.948 293.529 137.068 293.538 137.166 293.556C137.264 293.565 137.361 293.583 137.459 293.609L137.446 294.809C137.295 294.747 137.162 294.711 137.046 294.702C136.939 294.684 136.806 294.676 136.646 294.676C136.255 294.676 135.922 294.764 135.646 294.942C135.371 295.111 135.162 295.342 135.02 295.635C134.878 295.928 134.807 296.244 134.807 296.582V300.367H133.447Z" fill="#F2F7FF"/>
<path d="M73.3818 313.445C72.758 313.445 72.2266 313.318 71.7877 313.064C71.3487 312.81 71.0108 312.449 70.774 311.981C70.5429 311.507 70.4274 310.95 70.4274 310.309C70.4274 309.668 70.5429 309.113 70.774 308.645C71.0108 308.177 71.3487 307.816 71.7877 307.562C72.2266 307.308 72.758 307.181 73.3818 307.181C73.815 307.181 74.202 307.245 74.5428 307.372C74.8836 307.499 75.181 307.684 75.4352 307.926L75.1233 308.645C74.846 308.408 74.5746 308.238 74.3089 308.134C74.0489 308.03 73.7457 307.978 73.3991 307.978C72.7407 307.978 72.2382 308.18 71.8916 308.585C71.5451 308.989 71.3718 309.564 71.3718 310.309C71.3718 311.054 71.5451 311.631 71.8916 312.041C72.2382 312.446 72.7407 312.648 73.3991 312.648C73.7457 312.648 74.0489 312.596 74.3089 312.492C74.5746 312.388 74.846 312.215 75.1233 311.972L75.4352 312.691C75.181 312.934 74.8836 313.122 74.5428 313.254C74.202 313.382 73.815 313.445 73.3818 313.445ZM78.0553 313.445C77.6221 313.445 77.2466 313.356 76.9289 313.176C76.6113 312.992 76.3658 312.732 76.1925 312.397C76.0192 312.056 75.9326 311.652 75.9326 311.184C75.9326 310.716 76.0192 310.314 76.1925 309.979C76.3658 309.639 76.6113 309.379 76.9289 309.2C77.2466 309.015 77.6221 308.922 78.0553 308.922C78.4884 308.922 78.8639 309.015 79.1816 309.2C79.505 309.379 79.7534 309.639 79.9267 309.979C80.1057 310.314 80.1952 310.716 80.1952 311.184C80.1952 311.652 80.1057 312.056 79.9267 312.397C79.7534 312.732 79.505 312.992 79.1816 313.176C78.8639 313.356 78.4884 313.445 78.0553 313.445ZM78.0553 312.761C78.4365 312.761 78.7397 312.628 78.965 312.362C79.1902 312.096 79.3029 311.704 79.3029 311.184C79.3029 310.664 79.1902 310.274 78.965 310.014C78.7397 309.748 78.4365 309.616 78.0553 309.616C77.6798 309.616 77.3795 309.748 77.1542 310.014C76.9289 310.274 76.8163 310.664 76.8163 311.184C76.8163 311.704 76.9261 312.096 77.1455 312.362C77.3708 312.628 77.674 312.761 78.0553 312.761ZM81.2181 313.367V310.049C81.2181 309.881 81.2094 309.711 81.1921 309.538C81.1805 309.359 81.1661 309.18 81.1487 309H81.9978L82.0758 309.919H81.9718C82.0931 309.601 82.2779 309.356 82.5263 309.182C82.7804 309.009 83.0837 308.922 83.436 308.922C83.7941 308.922 84.0858 309.009 84.3111 309.182C84.5421 309.35 84.7009 309.61 84.7876 309.962H84.649C84.7645 309.644 84.9609 309.393 85.2381 309.208C85.5153 309.018 85.8359 308.922 86.1998 308.922C86.685 308.922 87.0489 309.064 87.2914 309.347C87.534 309.63 87.6553 310.069 87.6553 310.664V313.367H86.7803V310.707C86.7803 310.326 86.7139 310.052 86.581 309.884C86.4539 309.711 86.246 309.624 85.9572 309.624C85.6222 309.624 85.3565 309.74 85.1601 309.971C84.9637 310.202 84.8656 310.514 84.8656 310.907V313.367H83.9905V310.707C83.9905 310.326 83.9241 310.052 83.7912 309.884C83.6642 309.711 83.4562 309.624 83.1674 309.624C82.8324 309.624 82.5696 309.74 82.379 309.971C82.1884 310.202 82.0931 310.514 82.0931 310.907V313.367H81.2181ZM88.909 315.238V310.049C88.909 309.881 88.9003 309.711 88.883 309.538C88.8714 309.359 88.857 309.18 88.8396 309H89.6887L89.7753 309.988H89.68C89.7725 309.659 89.9573 309.399 90.2345 309.208C90.5176 309.018 90.8526 308.922 91.2395 308.922C91.6265 308.922 91.9644 309.015 92.2532 309.2C92.542 309.379 92.7644 309.636 92.9203 309.971C93.0821 310.306 93.1629 310.71 93.1629 311.184C93.1629 311.652 93.0821 312.056 92.9203 312.397C92.7644 312.737 92.542 312.997 92.2532 313.176C91.9644 313.356 91.6265 313.445 91.2395 313.445C90.8583 313.445 90.5262 313.353 90.2432 313.168C89.966 312.977 89.7811 312.72 89.6887 312.397H89.784V315.238H88.909ZM91.0229 312.761C91.4042 312.761 91.7074 312.628 91.9327 312.362C92.1637 312.096 92.2792 311.704 92.2792 311.184C92.2792 310.664 92.1637 310.274 91.9327 310.014C91.7074 309.748 91.4042 309.616 91.0229 309.616C90.6417 309.616 90.3356 309.748 90.1046 310.014C89.8793 310.274 89.7667 310.664 89.7667 311.184C89.7667 311.704 89.8793 312.096 90.1046 312.362C90.3356 312.628 90.6417 312.761 91.0229 312.761ZM94.1885 313.367V306.99H95.0636V313.367H94.1885ZM98.3647 313.445C97.6601 313.445 97.1056 313.246 96.7013 312.847C96.2969 312.449 96.0948 311.897 96.0948 311.192C96.0948 310.736 96.1814 310.338 96.3547 309.997C96.5338 309.656 96.7792 309.393 97.0911 309.208C97.4088 309.018 97.7756 308.922 98.1915 308.922C98.6015 308.922 98.9452 309.009 99.2225 309.182C99.4997 309.356 99.7105 309.601 99.8549 309.919C99.9993 310.231 100.072 310.6 100.072 311.028V311.305H96.7792V310.803H99.4737L99.3264 310.915C99.3264 310.482 99.2282 310.147 99.0318 309.91C98.8412 309.668 98.564 309.546 98.2001 309.546C97.7958 309.546 97.4839 309.688 97.2644 309.971C97.0449 310.248 96.9352 310.632 96.9352 311.123V311.21C96.9352 311.724 97.0594 312.111 97.3077 312.371C97.5619 312.631 97.92 312.761 98.3821 312.761C98.6362 312.761 98.873 312.726 99.0925 312.657C99.3178 312.582 99.5315 312.46 99.7336 312.293L100.02 312.891C99.8174 313.07 99.5719 313.208 99.2831 313.306C98.9943 313.399 98.6882 313.445 98.3647 313.445ZM102.765 313.445C102.292 313.445 101.934 313.318 101.691 313.064C101.448 312.804 101.327 312.417 101.327 311.903V309.676H100.478V309H101.327V307.848L102.202 307.614V309H103.415V309.676H102.202V311.825C102.202 312.148 102.26 312.379 102.375 312.518C102.491 312.657 102.658 312.726 102.878 312.726C102.988 312.726 103.083 312.717 103.164 312.7C103.25 312.677 103.328 312.651 103.398 312.622V313.332C103.311 313.367 103.21 313.393 103.095 313.41C102.979 313.433 102.869 313.445 102.765 313.445ZM106.191 313.445C105.486 313.445 104.932 313.246 104.528 312.847C104.123 312.449 103.921 311.897 103.921 311.192C103.921 310.736 104.008 310.338 104.181 309.997C104.36 309.656 104.606 309.393 104.917 309.208C105.235 309.018 105.602 308.922 106.018 308.922C106.428 308.922 106.771 309.009 107.049 309.182C107.326 309.356 107.537 309.601 107.681 309.919C107.826 310.231 107.898 310.6 107.898 311.028V311.305H104.606V310.803H107.3L107.153 310.915C107.153 310.482 107.055 310.147 106.858 309.91C106.668 309.668 106.39 309.546 106.026 309.546C105.622 309.546 105.31 309.688 105.091 309.971C104.871 310.248 104.761 310.632 104.761 311.123V311.21C104.761 311.724 104.886 312.111 105.134 312.371C105.388 312.631 105.746 312.761 106.208 312.761C106.462 312.761 106.699 312.726 106.919 312.657C107.144 312.582 107.358 312.46 107.56 312.293L107.846 312.891C107.644 313.07 107.398 313.208 107.109 313.306C106.821 313.399 106.514 313.445 106.191 313.445ZM110.574 313.445C110.193 313.445 109.855 313.356 109.56 313.176C109.272 312.997 109.046 312.737 108.885 312.397C108.729 312.056 108.651 311.652 108.651 311.184C108.651 310.71 108.729 310.306 108.885 309.971C109.046 309.636 109.272 309.379 109.56 309.2C109.855 309.015 110.193 308.922 110.574 308.922C110.949 308.922 111.279 309.018 111.562 309.208C111.851 309.393 112.041 309.647 112.134 309.971H112.03V306.99H112.905V313.367H112.038V312.379H112.142C112.044 312.709 111.853 312.969 111.57 313.159C111.287 313.35 110.955 313.445 110.574 313.445ZM110.791 312.761C111.166 312.761 111.469 312.628 111.7 312.362C111.931 312.096 112.047 311.704 112.047 311.184C112.047 310.664 111.931 310.274 111.7 310.014C111.469 309.748 111.166 309.616 110.791 309.616C110.409 309.616 110.103 309.748 109.872 310.014C109.647 310.274 109.534 310.664 109.534 311.184C109.534 311.704 109.647 312.096 109.872 312.362C110.103 312.628 110.409 312.761 110.791 312.761Z" fill="#04C33A"/>
<path d="M229.865 291.366L233.864 295.365L229.865 299.363" stroke="#A9ADB3" stroke-width="0.666454"/>
<rect x="21.9316" y="336.523" width="228.594" height="53.3163" rx="15.9949" fill="#2D2E42"/>
</g>
</g>
<rect x="100.137" y="16.2635" width="72.0243" height="20.9103" rx="10.4551" fill="black"/>
<circle cx="161.706" cy="26.7187" r="5.80841" fill="url(#paint14_linear_2_1307)"/>
<circle cx="161.706" cy="26.7187" r="3.48505" fill="#12121A"/>
<g filter="url(#filter2_i_2_1307)">
<circle cx="161.706" cy="26.7188" r="2.32336" fill="#050412"/>
<circle cx="161.706" cy="26.7188" r="2.32336" fill="url(#paint15_radial_2_1307)"/>
<circle cx="161.706" cy="26.7188" r="2.32336" fill="url(#paint16_radial_2_1307)"/>
</g>
<rect x="104.784" y="20.9103" width="37.1738" height="11.6168" rx="5.80841" fill="#040404"/>
<defs>
<filter id="filter0_i_2_1307" x="1.97491" y="0" width="268.349" height="559.931" filterUnits="userSpaceOnUse" color-interpolation-filters="sRGB">
<feFlood flood-opacity="0" result="BackgroundImageFix"/>
<feBlend mode="normal" in="SourceGraphic" in2="BackgroundImageFix" result="shape"/>
<feColorMatrix in="SourceAlpha" type="matrix" values="0 0 0 0 0 0 0 0 0 0 0 0 0 0 0 0 0 0 127 0" result="hardAlpha"/>
<feOffset/>
<feGaussianBlur stdDeviation="2.03294"/>
<feComposite in2="hardAlpha" operator="arithmetic" k2="-1" k3="1"/>
<feColorMatrix type="matrix" values="0 0 0 0 0.088139 0 0 0 0 0.115498 0 0 0 0 0.212499 0 0 0 1 0"/>
<feBlend mode="plus-darker" in2="shape" result="effect1_innerShadow_2_1307"/>
</filter>
<filter id="filter1_i_2_1307" x="5.4599" y="3.48499" width="261.378" height="552.961" filterUnits="userSpaceOnUse" color-interpolation-filters="sRGB">
<feFlood flood-opacity="0" result="BackgroundImageFix"/>
<feBlend mode="normal" in="SourceGraphic" in2="BackgroundImageFix" result="shape"/>
<feColorMatrix in="SourceAlpha" type="matrix" values="0 0 0 0 0 0 0 0 0 0 0 0 0 0 0 0 0 0 127 0" result="hardAlpha"/>
<feOffset/>
<feGaussianBlur stdDeviation="1.74252"/>
<feComposite in2="hardAlpha" operator="arithmetic" k2="-1" k3="1"/>
<feColorMatrix type="matrix" values="0 0 0 0 1 0 0 0 0 1 0 0 0 0 1 0 0 0 0.39 0"/>
<feBlend mode="normal" in2="shape" result="effect1_innerShadow_2_1307"/>
</filter>
<filter id="filter2_i_2_1307" x="159.383" y="24.3954" width="4.64673" height="4.64673" filterUnits="userSpaceOnUse" color-interpolation-filters="sRGB">
<feFlood flood-opacity="0" result="BackgroundImageFix"/>
<feBlend mode="normal" in="SourceGraphic" in2="BackgroundImageFix" result="shape"/>
<feColorMatrix in="SourceAlpha" type="matrix" values="0 0 0 0 0 0 0 0 0 0 0 0 0 0 0 0 0 0 127 0" result="hardAlpha"/>
<feOffset/>
<feGaussianBlur stdDeviation="0.464673"/>
<feComposite in2="hardAlpha" operator="arithmetic" k2="-1" k3="1"/>
<feColorMatrix type="matrix" values="0 0 0 0 0.0168179 0 0 0 0 0.0515777 0 0 0 0 0.373106 0 0 0 1 0"/>
<feBlend mode="normal" in2="shape" result="effect1_innerShadow_2_1307"/>
</filter>
<radialGradient id="paint0_radial_2_1307" cx="0" cy="0" r="1" gradientUnits="userSpaceOnUse" gradientTransform="translate(270.323 227.69) rotate(-90) scale(61.5691 2.36656)">
<stop stop-color="#161D36" stop-opacity="0.46"/>
<stop offset="1" stop-color="#161D36" stop-opacity="0"/>
</radialGradient>
<linearGradient id="paint1_linear_2_1307" x1="270.323" y1="196.905" x2="272.066" y2="196.905" gradientUnits="userSpaceOnUse">
<stop stop-color="#161D36" stop-opacity="0.21"/>
<stop offset="1" stop-color="#161D36" stop-opacity="0"/>
</linearGradient>
<radialGradient id="paint2_radial_2_1307" cx="0" cy="0" r="1" gradientUnits="userSpaceOnUse" gradientTransform="translate(271.195 226.818) scale(1.4521 0.335221)">
<stop stop-color="#88919D" stop-opacity="0.49"/>
<stop offset="1" stop-color="#88919D" stop-opacity="0"/>
</radialGradient>
<radialGradient id="paint3_radial_2_1307" cx="0" cy="0" r="1" gradientUnits="userSpaceOnUse" gradientTransform="translate(1.97488 121.977) rotate(-90) scale(21.4911 2.36656)">
<stop stop-color="#161D36" stop-opacity="0.46"/>
<stop offset="1" stop-color="#161D36" stop-opacity="0"/>
</radialGradient>
<linearGradient id="paint4_linear_2_1307" x1="1.97488" y1="110.941" x2="0.232361" y2="110.941" gradientUnits="userSpaceOnUse">
<stop stop-color="#161D36" stop-opacity="0.21"/>
<stop offset="1" stop-color="#161D36" stop-opacity="0"/>
</linearGradient>
<radialGradient id="paint5_radial_2_1307" cx="0" cy="0" r="1" gradientUnits="userSpaceOnUse" gradientTransform="translate(1.10362 121.105) scale(1.4521 0.394095)">
<stop stop-color="#88919D" stop-opacity="0.49"/>
<stop offset="1" stop-color="#88919D" stop-opacity="0"/>
</radialGradient>
<radialGradient id="paint6_radial_2_1307" cx="0" cy="0" r="1" gradientUnits="userSpaceOnUse" gradientTransform="translate(1.97488 178.318) rotate(-90) scale(38.9163 2.36656)">
<stop stop-color="#161D36" stop-opacity="0.46"/>
<stop offset="1" stop-color="#161D36" stop-opacity="0"/>
</radialGradient>
<linearGradient id="paint7_linear_2_1307" x1="1.97488" y1="158.334" x2="0.232361" y2="158.334" gradientUnits="userSpaceOnUse">
<stop stop-color="#161D36" stop-opacity="0.21"/>
<stop offset="1" stop-color="#161D36" stop-opacity="0"/>
</linearGradient>
<radialGradient id="paint8_radial_2_1307" cx="0" cy="0" r="1" gradientUnits="userSpaceOnUse" gradientTransform="translate(1.10362 177.447) scale(1.4521 0.382172)">
<stop stop-color="#88919D" stop-opacity="0.49"/>
<stop offset="1" stop-color="#88919D" stop-opacity="0"/>
</radialGradient>
<radialGradient id="paint9_radial_2_1307" cx="0" cy="0" r="1" gradientUnits="userSpaceOnUse" gradientTransform="translate(1.97488 227.69) rotate(-90) scale(38.9163 2.36656)">
<stop stop-color="#161D36" stop-opacity="0.46"/>
<stop offset="1" stop-color="#161D36" stop-opacity="0"/>
</radialGradient>
<linearGradient id="paint10_linear_2_1307" x1="1.97488" y1="207.706" x2="0.232361" y2="207.706" gradientUnits="userSpaceOnUse">
<stop stop-color="#161D36" stop-opacity="0.21"/>
<stop offset="1" stop-color="#161D36" stop-opacity="0"/>
</linearGradient>
<radialGradient id="paint11_radial_2_1307" cx="0" cy="0" r="1" gradientUnits="userSpaceOnUse" gradientTransform="translate(1.10362 226.818) scale(1.4521 0.382172)">
<stop stop-color="#88919D" stop-opacity="0.49"/>
<stop offset="1" stop-color="#88919D" stop-opacity="0"/>
</radialGradient>
<linearGradient id="paint12_linear_2_1307" x1="135.859" y1="3.48499" x2="135.859" y2="5.22751" gradientUnits="userSpaceOnUse">
<stop/>
<stop offset="1" stop-color="#353535"/>
</linearGradient>
<radialGradient id="paint13_radial_2_1307" cx="0" cy="0" r="1" gradientUnits="userSpaceOnUse" gradientTransform="translate(136.149 5.51793) rotate(90) scale(2.03294 37.8635)">
<stop stop-color="white" stop-opacity="0.12"/>
<stop offset="1" stop-color="white" stop-opacity="0"/>
</radialGradient>
<linearGradient id="paint14_linear_2_1307" x1="161.706" y1="20.9103" x2="161.706" y2="32.5271" gradientUnits="userSpaceOnUse">
<stop stop-color="#040404"/>
<stop offset="1" stop-color="#0C070D"/>
</linearGradient>
<radialGradient id="paint15_radial_2_1307" cx="0" cy="0" r="1" gradientUnits="userSpaceOnUse" gradientTransform="translate(161.706 29.0421) rotate(-90) scale(2.32336)">
<stop stop-color="#7E4193"/>
<stop offset="0.421875" stop-color="#0F1B7F"/>
<stop offset="0.744792" stop-color="#00210F"/>
<stop offset="1" stop-color="#050412" stop-opacity="0"/>
</radialGradient>
<radialGradient id="paint16_radial_2_1307" cx="0" cy="0" r="1" gradientUnits="userSpaceOnUse" gradientTransform="translate(161.706 24.3954) rotate(90) scale(2.32336)">
<stop stop-color="#7385A8"/>
<stop offset="1" stop-color="#130088" stop-opacity="0"/>
</radialGradient>
<clipPath id="clip0_2_1307">
<rect x="11.2683" y="9.29346" width="249.762" height="541.344" rx="31.9463" fill="white"/>
</clipPath>
<clipPath id="clip1_2_1307">
<rect width="249.92" height="541.161" fill="white" transform="translate(11.2683 9.29346)"/>
</clipPath>
<clipPath id="clip2_2_1307">
<rect width="53.3163" height="53.3163" fill="white" transform="translate(186.546 141.918)"/>
</clipPath>
</defs>
</svg>
