<svg width="400" height="264" viewBox="0 0 400 264" fill="none" xmlns="http://www.w3.org/2000/svg">
<rect width="400" height="263.067" rx="33" fill="#242535"/>
<g filter="url(#filter0_f_3_1442)">
<rect x="18" y="18" width="364" height="58.95" rx="17.4667" fill="#2D2E42"/>
<rect x="18.5458" y="18.5458" width="362.908" height="57.8583" rx="16.9208" stroke="#2E2E2E" stroke-width="1.09167"/>
<path d="M37.0998 54.4667V41.383H45.4511V42.645H38.603V47.1918H45.0428V48.4723H38.603V53.1861H45.4511V54.4667H37.0998ZM47.8431 54.4667V47.3032C47.8431 46.9567 47.8245 46.6041 47.7874 46.2453C47.7626 45.8742 47.7317 45.5092 47.6946 45.1504H49.1421L49.3277 47.1918H49.105C49.3772 46.4742 49.8102 45.9298 50.4041 45.5587C51.0103 45.1751 51.7094 44.9834 52.5012 44.9834C53.6023 44.9834 54.4313 45.2803 54.988 45.8742C55.5571 46.4557 55.8417 47.3774 55.8417 48.6394V54.4667H54.3385V48.7321C54.3385 47.8537 54.1591 47.2166 53.8003 46.8206C53.4539 46.4124 52.9095 46.2082 52.1671 46.2082C51.3011 46.2082 50.6144 46.4742 50.1072 47.0062C49.5999 47.5382 49.3463 48.2496 49.3463 49.1404V54.4667H47.8431ZM62.0205 54.6337C61.1049 54.6337 60.4059 54.3739 59.9234 53.8542C59.4409 53.3222 59.1996 52.5242 59.1996 51.4602V46.3196H57.3809V45.1504H59.1996V42.6079L60.7028 42.1811V45.1504H63.3752V46.3196H60.7028V51.2932C60.7028 52.0355 60.8265 52.5675 61.074 52.8892C61.3338 53.1985 61.7173 53.3532 62.2246 53.3532C62.4597 53.3532 62.67 53.3346 62.8556 53.2975C63.0412 53.248 63.2082 53.1923 63.3567 53.1305V54.3924C63.1835 54.4667 62.9731 54.5223 62.7257 54.5595C62.4906 54.609 62.2555 54.6337 62.0205 54.6337ZM69.2531 54.6337C67.7932 54.6337 66.6426 54.213 65.8013 53.3717C64.96 52.518 64.5393 51.3365 64.5393 49.8271C64.5393 48.8497 64.7249 48.0022 65.0961 47.2846C65.4672 46.5546 65.9869 45.9917 66.655 45.5958C67.3231 45.1875 68.0901 44.9834 68.9562 44.9834C69.8099 44.9834 70.5275 45.1628 71.109 45.5216C71.6905 45.8804 72.1359 46.3938 72.4452 47.0619C72.7545 47.7176 72.9091 48.4971 72.9091 49.4002V49.957H65.6899V49.0105H71.9255L71.61 49.2518C71.61 48.262 71.3873 47.4887 70.9419 46.932C70.4965 46.3752 69.8346 46.0969 68.9562 46.0969C68.0283 46.0969 67.3045 46.4247 66.7849 47.0805C66.2652 47.7238 66.0054 48.5961 66.0054 49.6972V49.8642C66.0054 51.0272 66.29 51.9118 66.8591 52.518C67.4406 53.1119 68.251 53.4088 69.2903 53.4088C69.847 53.4088 70.3666 53.3284 70.8492 53.1676C71.344 52.9944 71.8142 52.716 72.2596 52.3325L72.7792 53.3903C72.3709 53.7862 71.8513 54.0955 71.2203 54.3182C70.6017 54.5285 69.946 54.6337 69.2531 54.6337ZM75.1722 54.4667V47.3959C75.1722 47.0248 75.1599 46.6474 75.1351 46.2639C75.1227 45.8804 75.098 45.5092 75.0609 45.1504H76.5084L76.694 47.4145L76.4342 47.4331C76.5579 46.8763 76.7744 46.4185 77.0837 46.0597C77.393 45.701 77.758 45.435 78.1787 45.2617C78.5993 45.0762 79.0386 44.9834 79.4963 44.9834C79.6819 44.9834 79.8427 44.9896 79.9788 45.0019C80.1273 45.0143 80.2634 45.0452 80.3871 45.0947L80.3686 46.4309C80.183 46.3691 80.0098 46.3319 79.8489 46.3196C79.7005 46.2948 79.5273 46.2824 79.3293 46.2824C78.7849 46.2824 78.3086 46.4124 77.9003 46.6722C77.5044 46.932 77.2013 47.266 76.9909 47.6743C76.793 48.0826 76.694 48.5156 76.694 48.9734V54.4667H75.1722ZM90.1864 54.4667V48.361L90.5204 49.4002L85.1014 41.383H86.883L91.1885 47.897H90.7988L95.0858 41.383H96.7931L91.3926 49.4002L91.7267 48.361V54.4667H90.1864ZM100.418 54.6337C99.5271 54.6337 98.7477 54.4419 98.0796 54.0584C97.4239 53.6625 96.9166 53.1057 96.5578 52.3881C96.199 51.6582 96.0196 50.7983 96.0196 49.8085C96.0196 48.8064 96.199 47.9465 96.5578 47.2289C96.9166 46.5113 97.4239 45.9608 98.0796 45.5772C98.7477 45.1813 99.5271 44.9834 100.418 44.9834C101.321 44.9834 102.101 45.1813 102.756 45.5772C103.424 45.9608 103.938 46.5113 104.297 47.2289C104.668 47.9465 104.853 48.8064 104.853 49.8085C104.853 50.7983 104.668 51.6582 104.297 52.3881C103.938 53.1057 103.424 53.6625 102.756 54.0584C102.101 54.4419 101.321 54.6337 100.418 54.6337ZM100.418 53.4088C101.309 53.4088 102.014 53.1057 102.534 52.4995C103.053 51.8809 103.313 50.9839 103.313 49.8085C103.313 48.6208 103.047 47.7238 102.515 47.1176C101.995 46.499 101.296 46.1897 100.418 46.1897C99.5395 46.1897 98.8405 46.499 98.3209 47.1176C97.8012 47.7238 97.5414 48.6208 97.5414 49.8085C97.5414 50.9839 97.8012 51.8809 98.3209 52.4995C98.8405 53.1057 99.5395 53.4088 100.418 53.4088ZM110.482 54.6337C109.381 54.6337 108.546 54.3306 107.977 53.7243C107.42 53.1181 107.141 52.1902 107.141 50.9406V45.1504H108.645V50.9035C108.645 51.7572 108.818 52.3881 109.164 52.7964C109.511 53.1923 110.049 53.3903 110.779 53.3903C111.595 53.3903 112.251 53.1243 112.746 52.5923C113.241 52.0603 113.488 51.3489 113.488 50.4581V45.1504H114.992V54.4667H113.525V52.3696H113.767C113.507 53.0872 113.086 53.6439 112.505 54.0398C111.936 54.4357 111.261 54.6337 110.482 54.6337ZM117.871 54.4667V47.3959C117.871 47.0248 117.859 46.6474 117.834 46.2639C117.821 45.8804 117.797 45.5092 117.76 45.1504H119.207L119.393 47.4145L119.133 47.4331C119.257 46.8763 119.473 46.4185 119.782 46.0597C120.092 45.701 120.457 45.435 120.877 45.2617C121.298 45.0762 121.737 44.9834 122.195 44.9834C122.381 44.9834 122.541 44.9896 122.678 45.0019C122.826 45.0143 122.962 45.0452 123.086 45.0947L123.067 46.4309C122.882 46.3691 122.708 46.3319 122.548 46.3196C122.399 46.2948 122.226 46.2824 122.028 46.2824C121.484 46.2824 121.007 46.4124 120.599 46.6722C120.203 46.932 119.9 47.266 119.69 47.6743C119.492 48.0826 119.393 48.5156 119.393 48.9734V54.4667H117.871ZM129.656 54.4667V41.383H138.007V42.645H131.159V47.1918H137.599V48.4723H131.159V53.1861H138.007V54.4667H129.656ZM140.399 54.4667V47.3032C140.399 46.9567 140.381 46.6041 140.343 46.2453C140.319 45.8742 140.288 45.5092 140.251 45.1504H141.698L141.884 47.1918H141.661C141.909 46.4866 142.298 45.9422 142.83 45.5587C143.375 45.1751 144.03 44.9834 144.797 44.9834C145.577 44.9834 146.208 45.1689 146.69 45.5401C147.185 45.9113 147.519 46.4866 147.693 47.266H147.414C147.649 46.5608 148.064 46.0041 148.658 45.5958C149.251 45.1875 149.944 44.9834 150.736 44.9834C151.763 44.9834 152.536 45.2803 153.056 45.8742C153.576 46.4557 153.835 47.3774 153.835 48.6394V54.4667H152.332V48.7321C152.332 47.8537 152.177 47.2166 151.868 46.8206C151.559 46.4124 151.064 46.2082 150.384 46.2082C149.604 46.2082 148.985 46.4804 148.528 47.0248C148.082 47.5568 147.86 48.2744 147.86 49.1775V54.4667H146.356V48.7321C146.356 47.8537 146.202 47.2166 145.892 46.8206C145.583 46.4124 145.088 46.2082 144.408 46.2082C143.628 46.2082 143.016 46.4804 142.57 47.0248C142.125 47.5568 141.902 48.2744 141.902 49.1775V54.4667H140.399ZM160.237 54.6337C159.408 54.6337 158.684 54.4419 158.065 54.0584C157.447 53.6625 156.964 53.1057 156.618 52.3881C156.284 51.6706 156.117 50.8107 156.117 49.8085C156.117 48.794 156.284 47.928 156.618 47.2104C156.964 46.4928 157.447 45.9422 158.065 45.5587C158.684 45.1751 159.408 44.9834 160.237 44.9834C161.078 44.9834 161.802 45.1999 162.408 45.6329C163.027 46.0536 163.435 46.6289 163.633 47.3588H163.41L163.614 45.1504H165.062C165.025 45.5092 164.988 45.8742 164.95 46.2453C164.926 46.6041 164.913 46.9567 164.913 47.3032V54.4667H163.41V52.2768H163.614C163.416 53.0068 163.008 53.5821 162.389 54.0027C161.771 54.4234 161.053 54.6337 160.237 54.6337ZM160.534 53.4088C161.424 53.4088 162.13 53.1057 162.649 52.4995C163.169 51.8809 163.429 50.9839 163.429 49.8085C163.429 48.6208 163.169 47.7238 162.649 47.1176C162.13 46.499 161.424 46.1897 160.534 46.1897C159.655 46.1897 158.95 46.499 158.418 47.1176C157.898 47.7238 157.639 48.6208 157.639 49.8085C157.639 50.9839 157.898 51.8809 158.418 52.4995C158.95 53.1057 159.655 53.4088 160.534 53.4088ZM167.82 54.4667V45.1504H169.323V54.4667H167.82ZM167.634 43.0347V41.3459H169.49V43.0347H167.634ZM172.242 54.4667V40.8077H173.745V54.4667H172.242Z" fill="#A9ADB3"/>
</g>
<g filter="url(#filter1_f_3_1442)">
<rect x="18" y="90.05" width="364" height="155.017" rx="17.4667" fill="#2D2E42"/>
<rect x="18.5458" y="90.5958" width="362.908" height="153.925" rx="16.9208" stroke="#2E2E2E" stroke-width="1.09167"/>
<path d="M40.663 126.517L36.0977 113.433H37.7122L41.7023 125.218H41.0527L45.2469 113.433H46.4718L50.4433 125.218H49.8494L53.9508 113.433H55.4726L50.8701 126.517H49.4968L45.6366 115.178H46.0264L41.9992 126.517H40.663ZM56.5052 126.517V119.446C56.5052 119.075 56.4928 118.697 56.468 118.314C56.4557 117.93 56.4309 117.559 56.3938 117.2H57.8414L58.0269 119.464L57.7671 119.483C57.8908 118.926 58.1074 118.469 58.4167 118.11C58.726 117.751 59.091 117.485 59.5116 117.312C59.9323 117.126 60.3715 117.033 60.8292 117.033C61.0148 117.033 61.1757 117.04 61.3118 117.052C61.4602 117.064 61.5963 117.095 61.72 117.145L61.7015 118.481C61.5159 118.419 61.3427 118.382 61.1819 118.37C61.0334 118.345 60.8602 118.332 60.6622 118.332C60.1178 118.332 59.6415 118.462 59.2332 118.722C58.8373 118.982 58.5342 119.316 58.3239 119.724C58.1259 120.133 58.0269 120.566 58.0269 121.023V126.517H56.5052ZM63.2842 126.517V117.2H64.7874V126.517H63.2842ZM63.0986 115.085V113.396H64.9544V115.085H63.0986ZM71.0097 126.684C70.0941 126.684 69.3951 126.424 68.9126 125.904C68.43 125.372 68.1888 124.574 68.1888 123.51V118.37H66.3701V117.2H68.1888V114.658L69.692 114.231V117.2H72.3644V118.37H69.692V123.343C69.692 124.086 69.8157 124.618 70.0632 124.939C70.323 125.249 70.7065 125.403 71.2138 125.403C71.4489 125.403 71.6592 125.385 71.8448 125.347C72.0304 125.298 72.1974 125.242 72.3459 125.18V126.442C72.1726 126.517 71.9623 126.572 71.7149 126.609C71.4798 126.659 71.2447 126.684 71.0097 126.684ZM78.2423 126.684C76.7824 126.684 75.6318 126.263 74.7905 125.422C73.9492 124.568 73.5285 123.386 73.5285 121.877C73.5285 120.9 73.7141 120.052 74.0853 119.335C74.4564 118.605 74.9761 118.042 75.6442 117.646C76.3123 117.237 77.0793 117.033 77.9454 117.033C78.7991 117.033 79.5167 117.213 80.0982 117.572C80.6797 117.93 81.1251 118.444 81.4344 119.112C81.7437 119.768 81.8983 120.547 81.8983 121.45V122.007H74.6791V121.061H80.9147L80.5992 121.302C80.5992 120.312 80.3765 119.539 79.9311 118.982C79.4857 118.425 78.8238 118.147 77.9454 118.147C77.0175 118.147 76.2937 118.475 75.7741 119.13C75.2544 119.774 74.9946 120.646 74.9946 121.747V121.914C74.9946 123.077 75.2792 123.962 75.8483 124.568C76.4298 125.162 77.2402 125.459 78.2794 125.459C78.8362 125.459 79.3558 125.378 79.8383 125.218C80.3332 125.044 80.8034 124.766 81.2488 124.382L81.7684 125.44C81.3601 125.836 80.8405 126.145 80.2095 126.368C79.5909 126.579 78.9352 126.684 78.2423 126.684ZM88.6663 130.729L88.3137 129.486C88.8952 129.35 89.3777 129.189 89.7613 129.003C90.1572 128.83 90.485 128.595 90.7448 128.298C91.0047 128.001 91.2274 127.63 91.4129 127.185L91.8955 126.09L91.8583 126.721L87.7941 117.2H89.4272L92.7863 125.385H92.3037L95.6257 117.2H97.2031L92.8976 127.296C92.6502 127.89 92.378 128.385 92.081 128.781C91.7841 129.189 91.4624 129.517 91.116 129.764C90.782 130.024 90.4108 130.228 90.0025 130.377C89.5942 130.525 89.1488 130.643 88.6663 130.729ZM102.593 126.684C101.702 126.684 100.922 126.492 100.254 126.108C99.5987 125.712 99.0914 125.156 98.7326 124.438C98.3738 123.708 98.1944 122.848 98.1944 121.859C98.1944 120.856 98.3738 119.997 98.7326 119.279C99.0914 118.561 99.5987 118.011 100.254 117.627C100.922 117.231 101.702 117.033 102.593 117.033C103.496 117.033 104.275 117.231 104.931 117.627C105.599 118.011 106.113 118.561 106.471 119.279C106.843 119.997 107.028 120.856 107.028 121.859C107.028 122.848 106.843 123.708 106.471 124.438C106.113 125.156 105.599 125.712 104.931 126.108C104.275 126.492 103.496 126.684 102.593 126.684ZM102.593 125.459C103.484 125.459 104.189 125.156 104.708 124.549C105.228 123.931 105.488 123.034 105.488 121.859C105.488 120.671 105.222 119.774 104.69 119.168C104.17 118.549 103.471 118.24 102.593 118.24C101.714 118.24 101.015 118.549 100.496 119.168C99.976 119.774 99.7162 120.671 99.7162 121.859C99.7162 123.034 99.976 123.931 100.496 124.549C101.015 125.156 101.714 125.459 102.593 125.459ZM112.657 126.684C111.556 126.684 110.72 126.381 110.151 125.774C109.595 125.168 109.316 124.24 109.316 122.991V117.2H110.819V122.953C110.819 123.807 110.993 124.438 111.339 124.846C111.686 125.242 112.224 125.44 112.954 125.44C113.77 125.44 114.426 125.174 114.921 124.642C115.416 124.11 115.663 123.399 115.663 122.508V117.2H117.166V126.517H115.7V124.42H115.942C115.682 125.137 115.261 125.694 114.68 126.09C114.11 126.486 113.436 126.684 112.657 126.684ZM120.046 126.517V119.446C120.046 119.075 120.033 118.697 120.009 118.314C119.996 117.93 119.971 117.559 119.934 117.2H121.382L121.567 119.464L121.308 119.483C121.431 118.926 121.648 118.469 121.957 118.11C122.267 117.751 122.632 117.485 123.052 117.312C123.473 117.126 123.912 117.033 124.37 117.033C124.555 117.033 124.716 117.04 124.852 117.052C125.001 117.064 125.137 117.095 125.261 117.145L125.242 118.481C125.056 118.419 124.883 118.382 124.722 118.37C124.574 118.345 124.401 118.332 124.203 118.332C123.658 118.332 123.182 118.462 122.774 118.722C122.378 118.982 122.075 119.316 121.864 119.724C121.666 120.133 121.567 120.566 121.567 121.023V126.517H120.046ZM131.664 126.517V119.353C131.664 119.007 131.645 118.654 131.608 118.295C131.583 117.924 131.552 117.559 131.515 117.2H132.963L133.148 119.242H132.926C133.173 118.537 133.563 117.992 134.095 117.609C134.639 117.225 135.295 117.033 136.062 117.033C136.841 117.033 137.472 117.219 137.955 117.59C138.45 117.961 138.784 118.537 138.957 119.316H138.679C138.914 118.611 139.328 118.054 139.922 117.646C140.516 117.237 141.209 117.033 142.001 117.033C143.028 117.033 143.801 117.33 144.32 117.924C144.84 118.506 145.1 119.427 145.1 120.689V126.517H143.597V120.782C143.597 119.904 143.442 119.267 143.133 118.871C142.823 118.462 142.329 118.258 141.648 118.258C140.869 118.258 140.25 118.53 139.792 119.075C139.347 119.607 139.124 120.324 139.124 121.228V126.517H137.621V120.782C137.621 119.904 137.466 119.267 137.157 118.871C136.848 118.462 136.353 118.258 135.672 118.258C134.893 118.258 134.28 118.53 133.835 119.075C133.39 119.607 133.167 120.324 133.167 121.228V126.517H131.664ZM152.095 126.684C150.635 126.684 149.485 126.263 148.643 125.422C147.802 124.568 147.381 123.386 147.381 121.877C147.381 120.9 147.567 120.052 147.938 119.335C148.309 118.605 148.829 118.042 149.497 117.646C150.165 117.237 150.932 117.033 151.798 117.033C152.652 117.033 153.369 117.213 153.951 117.572C154.532 117.93 154.978 118.444 155.287 119.112C155.596 119.768 155.751 120.547 155.751 121.45V122.007H148.532V121.061H154.767L154.452 121.302C154.452 120.312 154.229 119.539 153.784 118.982C153.338 118.425 152.677 118.147 151.798 118.147C150.87 118.147 150.146 118.475 149.627 119.13C149.107 119.774 148.847 120.646 148.847 121.747V121.914C148.847 123.077 149.132 123.962 149.701 124.568C150.283 125.162 151.093 125.459 152.132 125.459C152.689 125.459 153.209 125.378 153.691 125.218C154.186 125.044 154.656 124.766 155.102 124.382L155.621 125.44C155.213 125.836 154.693 126.145 154.062 126.368C153.444 126.579 152.788 126.684 152.095 126.684ZM161.151 126.684C160.408 126.684 159.715 126.585 159.072 126.387C158.429 126.176 157.897 125.886 157.476 125.515L157.996 124.457C158.453 124.815 158.948 125.081 159.48 125.255C160.025 125.428 160.588 125.515 161.169 125.515C161.911 125.515 162.468 125.385 162.839 125.125C163.223 124.853 163.415 124.481 163.415 124.011C163.415 123.652 163.291 123.368 163.043 123.158C162.808 122.935 162.419 122.762 161.874 122.638L160.148 122.285C159.357 122.112 158.763 121.821 158.367 121.413C157.971 120.992 157.773 120.46 157.773 119.817C157.773 119.273 157.915 118.796 158.2 118.388C158.484 117.967 158.899 117.64 159.443 117.405C159.988 117.157 160.625 117.033 161.355 117.033C162.035 117.033 162.66 117.139 163.229 117.349C163.811 117.547 164.293 117.838 164.677 118.221L164.138 119.26C163.767 118.902 163.34 118.636 162.858 118.462C162.388 118.277 161.899 118.184 161.392 118.184C160.662 118.184 160.111 118.332 159.74 118.629C159.381 118.914 159.202 119.291 159.202 119.761C159.202 120.12 159.313 120.417 159.536 120.652C159.771 120.875 160.13 121.042 160.612 121.153L162.338 121.506C163.18 121.691 163.804 121.982 164.213 122.378C164.633 122.762 164.844 123.281 164.844 123.937C164.844 124.494 164.689 124.983 164.38 125.403C164.07 125.811 163.637 126.127 163.081 126.35C162.536 126.572 161.893 126.684 161.151 126.684ZM170.357 126.684C169.615 126.684 168.922 126.585 168.279 126.387C167.635 126.176 167.103 125.886 166.683 125.515L167.202 124.457C167.66 124.815 168.155 125.081 168.687 125.255C169.231 125.428 169.794 125.515 170.376 125.515C171.118 125.515 171.675 125.385 172.046 125.125C172.43 124.853 172.621 124.481 172.621 124.011C172.621 123.652 172.498 123.368 172.25 123.158C172.015 122.935 171.625 122.762 171.081 122.638L169.355 122.285C168.563 122.112 167.969 121.821 167.573 121.413C167.178 120.992 166.98 120.46 166.98 119.817C166.98 119.273 167.122 118.796 167.406 118.388C167.691 117.967 168.105 117.64 168.65 117.405C169.194 117.157 169.831 117.033 170.561 117.033C171.242 117.033 171.867 117.139 172.436 117.349C173.017 117.547 173.5 117.838 173.883 118.221L173.345 119.26C172.974 118.902 172.547 118.636 172.065 118.462C171.594 118.277 171.106 118.184 170.598 118.184C169.869 118.184 169.318 118.332 168.947 118.629C168.588 118.914 168.409 119.291 168.409 119.761C168.409 120.12 168.52 120.417 168.743 120.652C168.978 120.875 169.336 121.042 169.819 121.153L171.545 121.506C172.386 121.691 173.011 121.982 173.419 122.378C173.84 122.762 174.05 123.281 174.05 123.937C174.05 124.494 173.896 124.983 173.586 125.403C173.277 125.811 172.844 126.127 172.287 126.35C171.743 126.572 171.1 126.684 170.357 126.684ZM180.009 126.684C179.18 126.684 178.457 126.492 177.838 126.108C177.219 125.712 176.737 125.156 176.39 124.438C176.056 123.721 175.889 122.861 175.889 121.859C175.889 120.844 176.056 119.978 176.39 119.26C176.737 118.543 177.219 117.992 177.838 117.609C178.457 117.225 179.18 117.033 180.009 117.033C180.851 117.033 181.574 117.25 182.181 117.683C182.799 118.104 183.207 118.679 183.405 119.409H183.183L183.387 117.2H184.834C184.797 117.559 184.76 117.924 184.723 118.295C184.698 118.654 184.686 119.007 184.686 119.353V126.517H183.183V124.327H183.387C183.189 125.057 182.781 125.632 182.162 126.053C181.543 126.473 180.826 126.684 180.009 126.684ZM180.306 125.459C181.197 125.459 181.902 125.156 182.422 124.549C182.941 123.931 183.201 123.034 183.201 121.859C183.201 120.671 182.941 119.774 182.422 119.168C181.902 118.549 181.197 118.24 180.306 118.24C179.428 118.24 178.723 118.549 178.191 119.168C177.671 119.774 177.411 120.671 177.411 121.859C177.411 123.034 177.671 123.931 178.191 124.549C178.723 125.156 179.428 125.459 180.306 125.459ZM191.694 130.655C190.89 130.655 190.147 130.556 189.467 130.358C188.786 130.16 188.174 129.857 187.63 129.449L188.075 128.317C188.458 128.589 188.836 128.806 189.207 128.966C189.578 129.127 189.962 129.245 190.358 129.319C190.753 129.406 191.174 129.449 191.62 129.449C192.535 129.449 193.228 129.208 193.698 128.725C194.168 128.243 194.403 127.556 194.403 126.665V123.937H194.589C194.391 124.667 193.983 125.249 193.364 125.682C192.745 126.102 192.022 126.313 191.193 126.313C190.339 126.313 189.597 126.127 188.966 125.756C188.347 125.372 187.865 124.834 187.518 124.141C187.184 123.436 187.017 122.607 187.017 121.654C187.017 120.714 187.184 119.898 187.518 119.205C187.865 118.512 188.347 117.98 188.966 117.609C189.597 117.225 190.339 117.033 191.193 117.033C192.034 117.033 192.758 117.244 193.364 117.664C193.983 118.085 194.391 118.666 194.589 119.409L194.403 119.223L194.57 117.2H196.036C195.987 117.559 195.95 117.924 195.925 118.295C195.9 118.654 195.888 119.007 195.888 119.353V126.461C195.888 127.847 195.529 128.892 194.812 129.597C194.106 130.303 193.067 130.655 191.694 130.655ZM191.471 125.088C192.374 125.088 193.086 124.791 193.605 124.197C194.125 123.591 194.385 122.743 194.385 121.654C194.385 120.566 194.125 119.724 193.605 119.13C193.086 118.537 192.374 118.24 191.471 118.24C190.58 118.24 189.869 118.537 189.337 119.13C188.805 119.724 188.539 120.566 188.539 121.654C188.539 122.743 188.805 123.591 189.337 124.197C189.869 124.791 190.58 125.088 191.471 125.088ZM202.913 126.684C201.453 126.684 200.302 126.263 199.461 125.422C198.62 124.568 198.199 123.386 198.199 121.877C198.199 120.9 198.385 120.052 198.756 119.335C199.127 118.605 199.647 118.042 200.315 117.646C200.983 117.237 201.75 117.033 202.616 117.033C203.47 117.033 204.187 117.213 204.769 117.572C205.35 117.93 205.796 118.444 206.105 119.112C206.414 119.768 206.569 120.547 206.569 121.45V122.007H199.35V121.061H205.585L205.27 121.302C205.27 120.312 205.047 119.539 204.602 118.982C204.156 118.425 203.495 118.147 202.616 118.147C201.688 118.147 200.964 118.475 200.445 119.13C199.925 119.774 199.665 120.646 199.665 121.747V121.914C199.665 123.077 199.95 123.962 200.519 124.568C201.1 125.162 201.911 125.459 202.95 125.459C203.507 125.459 204.027 125.378 204.509 125.218C205.004 125.044 205.474 124.766 205.919 124.382L206.439 125.44C206.031 125.836 205.511 126.145 204.88 126.368C204.262 126.579 203.606 126.684 202.913 126.684ZM213.708 126.517V112.858H215.211V119.26H214.97C215.23 118.53 215.663 117.98 216.269 117.609C216.888 117.225 217.599 117.033 218.403 117.033C219.517 117.033 220.346 117.336 220.89 117.943C221.435 118.537 221.707 119.44 221.707 120.652V126.517H220.204V120.745C220.204 119.879 220.03 119.248 219.684 118.852C219.35 118.456 218.806 118.258 218.051 118.258C217.185 118.258 216.492 118.524 215.972 119.056C215.465 119.588 215.211 120.287 215.211 121.153V126.517H213.708ZM228.721 126.684C227.261 126.684 226.11 126.263 225.269 125.422C224.428 124.568 224.007 123.386 224.007 121.877C224.007 120.9 224.192 120.052 224.564 119.335C224.935 118.605 225.454 118.042 226.123 117.646C226.791 117.237 227.558 117.033 228.424 117.033C229.277 117.033 229.995 117.213 230.577 117.572C231.158 117.93 231.603 118.444 231.913 119.112C232.222 119.768 232.377 120.547 232.377 121.45V122.007H225.158V121.061H231.393L231.078 121.302C231.078 120.312 230.855 119.539 230.41 118.982C229.964 118.425 229.302 118.147 228.424 118.147C227.496 118.147 226.772 118.475 226.252 119.13C225.733 119.774 225.473 120.646 225.473 121.747V121.914C225.473 123.077 225.758 123.962 226.327 124.568C226.908 125.162 227.719 125.459 228.758 125.459C229.315 125.459 229.834 125.378 230.317 125.218C230.812 125.044 231.282 124.766 231.727 124.382L232.247 125.44C231.839 125.836 231.319 126.145 230.688 126.368C230.069 126.579 229.414 126.684 228.721 126.684ZM234.64 126.517V119.446C234.64 119.075 234.627 118.697 234.603 118.314C234.59 117.93 234.566 117.559 234.528 117.2H235.976L236.162 119.464L235.902 119.483C236.025 118.926 236.242 118.469 236.551 118.11C236.861 117.751 237.226 117.485 237.646 117.312C238.067 117.126 238.506 117.033 238.964 117.033C239.149 117.033 239.31 117.04 239.446 117.052C239.595 117.064 239.731 117.095 239.855 117.145L239.836 118.481C239.651 118.419 239.477 118.382 239.316 118.37C239.168 118.345 238.995 118.332 238.797 118.332C238.252 118.332 237.776 118.462 237.368 118.722C236.972 118.982 236.669 119.316 236.459 119.724C236.261 120.133 236.162 120.566 236.162 121.023V126.517H234.64ZM245.449 126.684C243.989 126.684 242.838 126.263 241.997 125.422C241.155 124.568 240.735 123.386 240.735 121.877C240.735 120.9 240.92 120.052 241.292 119.335C241.663 118.605 242.182 118.042 242.85 117.646C243.519 117.237 244.286 117.033 245.152 117.033C246.005 117.033 246.723 117.213 247.304 117.572C247.886 117.93 248.331 118.444 248.641 119.112C248.95 119.768 249.105 120.547 249.105 121.45V122.007H241.885V121.061H248.121L247.805 121.302C247.805 120.312 247.583 119.539 247.137 118.982C246.692 118.425 246.03 118.147 245.152 118.147C244.224 118.147 243.5 118.475 242.98 119.13C242.461 119.774 242.201 120.646 242.201 121.747V121.914C242.201 123.077 242.485 123.962 243.055 124.568C243.636 125.162 244.446 125.459 245.486 125.459C246.042 125.459 246.562 125.378 247.045 125.218C247.539 125.044 248.01 124.766 248.455 124.382L248.975 125.44C248.566 125.836 248.047 126.145 247.416 126.368C246.797 126.579 246.141 126.684 245.449 126.684ZM251.108 126.517V124.624H253.001V126.517H251.108ZM255.331 126.517V124.624H257.224V126.517H255.331ZM259.553 126.517V124.624H261.446V126.517H259.553Z" fill="#A9ADB3"/>
</g>
<defs>
<filter id="filter0_f_3_1442" x="15.6" y="15.6" width="368.8" height="63.75" filterUnits="userSpaceOnUse" color-interpolation-filters="sRGB">
<feFlood flood-opacity="0" result="BackgroundImageFix"/>
<feBlend mode="normal" in="SourceGraphic" in2="BackgroundImageFix" result="shape"/>
<feGaussianBlur stdDeviation="1.2" result="effect1_foregroundBlur_3_1442"/>
</filter>
<filter id="filter1_f_3_1442" x="15.6" y="87.65" width="368.8" height="159.817" filterUnits="userSpaceOnUse" color-interpolation-filters="sRGB">
<feFlood flood-opacity="0" result="BackgroundImageFix"/>
<feBlend mode="normal" in="SourceGraphic" in2="BackgroundImageFix" result="shape"/>
<feGaussianBlur stdDeviation="1.2" result="effect1_foregroundBlur_3_1442"/>
</filter>
</defs>
</svg>
