<svg width="296" height="264" viewBox="0 0 296 264" fill="none" xmlns="http://www.w3.org/2000/svg">
<rect width="296" height="263.067" rx="33" fill="#242535"/>
<g filter="url(#filter0_f_3_3496)">
<rect x="18" y="18" width="260" height="58.95" rx="17.4667" fill="#2D2E42"/>
<rect x="18.5458" y="18.5458" width="258.908" height="57.8583" rx="16.9208" stroke="#2E2E2E" stroke-width="1.09167"/>
<path d="M37.0999 54.4667V41.383H45.4512V42.645H38.6032V47.1918H45.0429V48.4723H38.6032V53.1861H45.4512V54.4667H37.0999ZM47.8432 54.4667V47.3032C47.8432 46.9567 47.8246 46.6041 47.7875 46.2453C47.7628 45.8742 47.7318 45.5092 47.6947 45.1504H49.1423L49.3278 47.1918H49.1051C49.3773 46.4742 49.8104 45.9298 50.4042 45.5587C51.0105 45.1751 51.7095 44.9834 52.5013 44.9834C53.6024 44.9834 54.4314 45.2803 54.9881 45.8742C55.5573 46.4557 55.8418 47.3774 55.8418 48.6394V54.4667H54.3386V48.7321C54.3386 47.8537 54.1592 47.2166 53.8004 46.8206C53.454 46.4124 52.9096 46.2082 52.1673 46.2082C51.3012 46.2082 50.6146 46.4742 50.1073 47.0062C49.6 47.5382 49.3464 48.2496 49.3464 49.1404V54.4667H47.8432ZM62.0206 54.6337C61.105 54.6337 60.406 54.3739 59.9235 53.8542C59.441 53.3222 59.1997 52.5242 59.1997 51.4602V46.3196H57.381V45.1504H59.1997V42.6079L60.7029 42.1811V45.1504H63.3753V46.3196H60.7029V51.2932C60.7029 52.0355 60.8267 52.5675 61.0741 52.8892C61.3339 53.1985 61.7175 53.3532 62.2247 53.3532C62.4598 53.3532 62.6701 53.3346 62.8557 53.2975C63.0413 53.248 63.2083 53.1923 63.3568 53.1305V54.3924C63.1836 54.4667 62.9732 54.5223 62.7258 54.5595C62.4907 54.609 62.2557 54.6337 62.0206 54.6337ZM69.2533 54.6337C67.7933 54.6337 66.6427 54.213 65.8014 53.3717C64.9601 52.518 64.5394 51.3365 64.5394 49.8271C64.5394 48.8497 64.725 48.0022 65.0962 47.2846C65.4674 46.5546 65.987 45.9917 66.6551 45.5958C67.3232 45.1875 68.0903 44.9834 68.9563 44.9834C69.81 44.9834 70.5276 45.1628 71.1091 45.5216C71.6906 45.8804 72.136 46.3938 72.4453 47.0619C72.7546 47.7176 72.9093 48.4971 72.9093 49.4002V49.957H65.6901V49.0105H71.9257L71.6102 49.2518C71.6102 48.262 71.3875 47.4887 70.9421 46.932C70.4967 46.3752 69.8348 46.0969 68.9563 46.0969C68.0284 46.0969 67.3046 46.4247 66.785 47.0805C66.2654 47.7238 66.0056 48.5961 66.0056 49.6972V49.8642C66.0056 51.0272 66.2901 51.9118 66.8592 52.518C67.4407 53.1119 68.2511 53.4088 69.2904 53.4088C69.8471 53.4088 70.3668 53.3284 70.8493 53.1676C71.3442 52.9944 71.8143 52.716 72.2597 52.3325L72.7793 53.3903C72.3711 53.7862 71.8514 54.0955 71.2204 54.3182C70.6018 54.5285 69.9461 54.6337 69.2533 54.6337ZM75.1724 54.4667V47.3959C75.1724 47.0248 75.16 46.6474 75.1352 46.2639C75.1229 45.8804 75.0981 45.5092 75.061 45.1504H76.5086L76.6941 47.4145L76.4343 47.4331C76.558 46.8763 76.7746 46.4185 77.0839 46.0597C77.3932 45.701 77.7581 45.435 78.1788 45.2617C78.5995 45.0762 79.0387 44.9834 79.4964 44.9834C79.682 44.9834 79.8429 44.9896 79.979 45.0019C80.1274 45.0143 80.2635 45.0452 80.3872 45.0947L80.3687 46.4309C80.1831 46.3691 80.0099 46.3319 79.8491 46.3196C79.7006 46.2948 79.5274 46.2824 79.3294 46.2824C78.785 46.2824 78.3087 46.4124 77.9004 46.6722C77.5045 46.932 77.2014 47.266 76.9911 47.6743C76.7931 48.0826 76.6941 48.5156 76.6941 48.9734V54.4667H75.1724ZM90.1865 54.4667V48.361L90.5205 49.4002L85.1015 41.383H86.8831L91.1886 47.897H90.7989L95.0859 41.383H96.7932L91.3928 49.4002L91.7268 48.361V54.4667H90.1865ZM100.418 54.6337C99.5273 54.6337 98.7478 54.4419 98.0797 54.0584C97.424 53.6625 96.9167 53.1057 96.5579 52.3881C96.1991 51.6582 96.0197 50.7983 96.0197 49.8085C96.0197 48.8064 96.1991 47.9465 96.5579 47.2289C96.9167 46.5113 97.424 45.9608 98.0797 45.5772C98.7478 45.1813 99.5273 44.9834 100.418 44.9834C101.321 44.9834 102.101 45.1813 102.756 45.5772C103.425 45.9608 103.938 46.5113 104.297 47.2289C104.668 47.9465 104.854 48.8064 104.854 49.8085C104.854 50.7983 104.668 51.6582 104.297 52.3881C103.938 53.1057 103.425 53.6625 102.756 54.0584C102.101 54.4419 101.321 54.6337 100.418 54.6337ZM100.418 53.4088C101.309 53.4088 102.014 53.1057 102.534 52.4995C103.053 51.8809 103.313 50.9839 103.313 49.8085C103.313 48.6208 103.047 47.7238 102.515 47.1176C101.996 46.499 101.296 46.1897 100.418 46.1897C99.5396 46.1897 98.8406 46.499 98.321 47.1176C97.8013 47.7238 97.5415 48.6208 97.5415 49.8085C97.5415 50.9839 97.8013 51.8809 98.321 52.4995C98.8406 53.1057 99.5396 53.4088 100.418 53.4088ZM110.482 54.6337C109.381 54.6337 108.546 54.3306 107.977 53.7243C107.42 53.1181 107.142 52.1902 107.142 50.9406V45.1504H108.645V50.9035C108.645 51.7572 108.818 52.3881 109.164 52.7964C109.511 53.1923 110.049 53.3903 110.779 53.3903C111.596 53.3903 112.251 53.1243 112.746 52.5923C113.241 52.0603 113.489 51.3489 113.489 50.4581V45.1504H114.992V54.4667H113.526V52.3696H113.767C113.507 53.0872 113.086 53.6439 112.505 54.0398C111.936 54.4357 111.262 54.6337 110.482 54.6337ZM117.871 54.4667V47.3959C117.871 47.0248 117.859 46.6474 117.834 46.2639C117.822 45.8804 117.797 45.5092 117.76 45.1504H119.207L119.393 47.4145L119.133 47.4331C119.257 46.8763 119.473 46.4185 119.783 46.0597C120.092 45.701 120.457 45.435 120.877 45.2617C121.298 45.0762 121.737 44.9834 122.195 44.9834C122.381 44.9834 122.542 44.9896 122.678 45.0019C122.826 45.0143 122.962 45.0452 123.086 45.0947L123.067 46.4309C122.882 46.3691 122.709 46.3319 122.548 46.3196C122.399 46.2948 122.226 46.2824 122.028 46.2824C121.484 46.2824 121.007 46.4124 120.599 46.6722C120.203 46.932 119.9 47.266 119.69 47.6743C119.492 48.0826 119.393 48.5156 119.393 48.9734V54.4667H117.871ZM129.656 54.4667V41.383H138.007V42.645H131.159V47.1918H137.599V48.4723H131.159V53.1861H138.007V54.4667H129.656ZM140.399 54.4667V47.3032C140.399 46.9567 140.381 46.6041 140.344 46.2453C140.319 45.8742 140.288 45.5092 140.251 45.1504H141.698L141.884 47.1918H141.661C141.909 46.4866 142.298 45.9422 142.83 45.5587C143.375 45.1751 144.03 44.9834 144.798 44.9834C145.577 44.9834 146.208 45.1689 146.691 45.5401C147.185 45.9113 147.519 46.4866 147.693 47.266H147.414C147.649 46.5608 148.064 46.0041 148.658 45.5958C149.252 45.1875 149.944 44.9834 150.736 44.9834C151.763 44.9834 152.536 45.2803 153.056 45.8742C153.576 46.4557 153.835 47.3774 153.835 48.6394V54.4667H152.332V48.7321C152.332 47.8537 152.178 47.2166 151.868 46.8206C151.559 46.4124 151.064 46.2082 150.384 46.2082C149.604 46.2082 148.986 46.4804 148.528 47.0248C148.082 47.5568 147.86 48.2744 147.86 49.1775V54.4667H146.356V48.7321C146.356 47.8537 146.202 47.2166 145.893 46.8206C145.583 46.4124 145.088 46.2082 144.408 46.2082C143.628 46.2082 143.016 46.4804 142.571 47.0248C142.125 47.5568 141.902 48.2744 141.902 49.1775V54.4667H140.399ZM160.237 54.6337C159.408 54.6337 158.684 54.4419 158.065 54.0584C157.447 53.6625 156.964 53.1057 156.618 52.3881C156.284 51.6706 156.117 50.8107 156.117 49.8085C156.117 48.794 156.284 47.928 156.618 47.2104C156.964 46.4928 157.447 45.9422 158.065 45.5587C158.684 45.1751 159.408 44.9834 160.237 44.9834C161.078 44.9834 161.802 45.1999 162.408 45.6329C163.027 46.0536 163.435 46.6289 163.633 47.3588H163.41L163.614 45.1504H165.062C165.025 45.5092 164.988 45.8742 164.951 46.2453C164.926 46.6041 164.914 46.9567 164.914 47.3032V54.4667H163.41V52.2768H163.614C163.416 53.0068 163.008 53.5821 162.39 54.0027C161.771 54.4234 161.053 54.6337 160.237 54.6337ZM160.534 53.4088C161.425 53.4088 162.13 53.1057 162.649 52.4995C163.169 51.8809 163.429 50.9839 163.429 49.8085C163.429 48.6208 163.169 47.7238 162.649 47.1176C162.13 46.499 161.425 46.1897 160.534 46.1897C159.655 46.1897 158.95 46.499 158.418 47.1176C157.898 47.7238 157.639 48.6208 157.639 49.8085C157.639 50.9839 157.898 51.8809 158.418 52.4995C158.95 53.1057 159.655 53.4088 160.534 53.4088ZM167.82 54.4667V45.1504H169.323V54.4667H167.82ZM167.634 43.0347V41.3459H169.49V43.0347H167.634ZM172.242 54.4667V40.8077H173.745V54.4667H172.242Z" fill="#A9ADB3"/>
</g>
<g filter="url(#filter1_f_3_3496)">
<rect x="18" y="90.05" width="260" height="155.017" rx="17.4667" fill="#2D2E42"/>
<rect x="18.5458" y="90.5958" width="258.908" height="153.925" rx="16.9208" stroke="#2E2E2E" stroke-width="1.09167"/>
<path d="M40.6631 126.517L36.0978 113.433H37.7124L41.7024 125.218H41.0529L45.247 113.433H46.4719L50.4434 125.218H49.8495L53.9509 113.433H55.4727L50.8702 126.517H49.4969L45.6368 115.178H46.0265L41.9993 126.517H40.6631ZM56.5053 126.517V119.446C56.5053 119.075 56.4929 118.697 56.4682 118.314C56.4558 117.93 56.431 117.559 56.3939 117.2H57.8415L58.0271 119.464L57.7672 119.483C57.891 118.926 58.1075 118.469 58.4168 118.11C58.7261 117.751 59.0911 117.485 59.5117 117.312C59.9324 117.126 60.3716 117.033 60.8294 117.033C61.015 117.033 61.1758 117.04 61.3119 117.052C61.4604 117.064 61.5964 117.095 61.7202 117.145L61.7016 118.481C61.516 118.419 61.3428 118.382 61.182 118.37C61.0335 118.345 60.8603 118.332 60.6623 118.332C60.118 118.332 59.6416 118.462 59.2334 118.722C58.8374 118.982 58.5343 119.316 58.324 119.724C58.126 120.133 58.0271 120.566 58.0271 121.023V126.517H56.5053ZM63.2843 126.517V117.2H64.7875V126.517H63.2843ZM63.0987 115.085V113.396H64.9545V115.085H63.0987ZM71.0098 126.684C70.0942 126.684 69.3952 126.424 68.9127 125.904C68.4302 125.372 68.1889 124.574 68.1889 123.51V118.37H66.3702V117.2H68.1889V114.658L69.6921 114.231V117.2H72.3645V118.37H69.6921V123.343C69.6921 124.086 69.8159 124.618 70.0633 124.939C70.3231 125.249 70.7067 125.403 71.2139 125.403C71.449 125.403 71.6593 125.385 71.8449 125.347C72.0305 125.298 72.1975 125.242 72.346 125.18V126.442C72.1728 126.517 71.9624 126.572 71.715 126.609C71.4799 126.659 71.2448 126.684 71.0098 126.684ZM78.2424 126.684C76.7825 126.684 75.6319 126.263 74.7906 125.422C73.9493 124.568 73.5286 123.386 73.5286 121.877C73.5286 120.9 73.7142 120.052 74.0854 119.335C74.4565 118.605 74.9762 118.042 75.6443 117.646C76.3124 117.237 77.0795 117.033 77.9455 117.033C78.7992 117.033 79.5168 117.213 80.0983 117.572C80.6798 117.93 81.1252 118.444 81.4345 119.112C81.7438 119.768 81.8984 120.547 81.8984 121.45V122.007H74.6792V121.061H80.9148L80.5994 121.302C80.5994 120.312 80.3767 119.539 79.9313 118.982C79.4859 118.425 78.8239 118.147 77.9455 118.147C77.0176 118.147 76.2938 118.475 75.7742 119.13C75.2546 119.774 74.9947 120.646 74.9947 121.747V121.914C74.9947 123.077 75.2793 123.962 75.8484 124.568C76.4299 125.162 77.2403 125.459 78.2796 125.459C78.8363 125.459 79.3559 125.378 79.8385 125.218C80.3334 125.044 80.8035 124.766 81.2489 124.382L81.7685 125.44C81.3603 125.836 80.8406 126.145 80.2096 126.368C79.591 126.579 78.9353 126.684 78.2424 126.684ZM88.6664 130.729L88.3138 129.486C88.8953 129.35 89.3778 129.189 89.7614 129.003C90.1573 128.83 90.4852 128.595 90.745 128.298C91.0048 128.001 91.2275 127.63 91.4131 127.185L91.8956 126.09L91.8585 126.721L87.7942 117.2H89.4273L92.7864 125.385H92.3039L95.6258 117.2H97.2033L92.8977 127.296C92.6503 127.89 92.3781 128.385 92.0812 128.781C91.7842 129.189 91.4626 129.517 91.1161 129.764C90.7821 130.024 90.4109 130.228 90.0026 130.377C89.5944 130.525 89.149 130.643 88.6664 130.729ZM102.593 126.684C101.702 126.684 100.923 126.492 100.255 126.108C99.5988 125.712 99.0915 125.156 98.7327 124.438C98.3739 123.708 98.1945 122.848 98.1945 121.859C98.1945 120.856 98.3739 119.997 98.7327 119.279C99.0915 118.561 99.5988 118.011 100.255 117.627C100.923 117.231 101.702 117.033 102.593 117.033C103.496 117.033 104.275 117.231 104.931 117.627C105.599 118.011 106.113 118.561 106.472 119.279C106.843 119.997 107.028 120.856 107.028 121.859C107.028 122.848 106.843 123.708 106.472 124.438C106.113 125.156 105.599 125.712 104.931 126.108C104.275 126.492 103.496 126.684 102.593 126.684ZM102.593 125.459C103.484 125.459 104.189 125.156 104.709 124.549C105.228 123.931 105.488 123.034 105.488 121.859C105.488 120.671 105.222 119.774 104.69 119.168C104.17 118.549 103.471 118.24 102.593 118.24C101.714 118.24 101.015 118.549 100.496 119.168C99.9761 119.774 99.7163 120.671 99.7163 121.859C99.7163 123.034 99.9761 123.931 100.496 124.549C101.015 125.156 101.714 125.459 102.593 125.459ZM112.657 126.684C111.556 126.684 110.721 126.381 110.151 125.774C109.595 125.168 109.316 124.24 109.316 122.991V117.2H110.82V122.953C110.82 123.807 110.993 124.438 111.339 124.846C111.686 125.242 112.224 125.44 112.954 125.44C113.77 125.44 114.426 125.174 114.921 124.642C115.416 124.11 115.663 123.399 115.663 122.508V117.2H117.167V126.517H115.7V124.42H115.942C115.682 125.137 115.261 125.694 114.68 126.09C114.111 126.486 113.436 126.684 112.657 126.684ZM120.046 126.517V119.446C120.046 119.075 120.033 118.697 120.009 118.314C119.996 117.93 119.972 117.559 119.934 117.2H121.382L121.568 119.464L121.308 119.483C121.432 118.926 121.648 118.469 121.957 118.11C122.267 117.751 122.632 117.485 123.052 117.312C123.473 117.126 123.912 117.033 124.37 117.033C124.556 117.033 124.716 117.04 124.852 117.052C125.001 117.064 125.137 117.095 125.261 117.145L125.242 118.481C125.057 118.419 124.883 118.382 124.723 118.37C124.574 118.345 124.401 118.332 124.203 118.332C123.659 118.332 123.182 118.462 122.774 118.722C122.378 118.982 122.075 119.316 121.865 119.724C121.667 120.133 121.568 120.566 121.568 121.023V126.517H120.046ZM131.664 126.517V119.353C131.664 119.007 131.645 118.654 131.608 118.295C131.583 117.924 131.552 117.559 131.515 117.2H132.963L133.148 119.242H132.926C133.173 118.537 133.563 117.992 134.095 117.609C134.639 117.225 135.295 117.033 136.062 117.033C136.842 117.033 137.473 117.219 137.955 117.59C138.45 117.961 138.784 118.537 138.957 119.316H138.679C138.914 118.611 139.328 118.054 139.922 117.646C140.516 117.237 141.209 117.033 142.001 117.033C143.028 117.033 143.801 117.33 144.321 117.924C144.84 118.506 145.1 119.427 145.1 120.689V126.517H143.597V120.782C143.597 119.904 143.442 119.267 143.133 118.871C142.824 118.462 142.329 118.258 141.648 118.258C140.869 118.258 140.25 118.53 139.792 119.075C139.347 119.607 139.124 120.324 139.124 121.228V126.517H137.621V120.782C137.621 119.904 137.466 119.267 137.157 118.871C136.848 118.462 136.353 118.258 135.672 118.258C134.893 118.258 134.281 118.53 133.835 119.075C133.39 119.607 133.167 120.324 133.167 121.228V126.517H131.664ZM152.095 126.684C150.635 126.684 149.485 126.263 148.643 125.422C147.802 124.568 147.381 123.386 147.381 121.877C147.381 120.9 147.567 120.052 147.938 119.335C148.309 118.605 148.829 118.042 149.497 117.646C150.165 117.237 150.932 117.033 151.798 117.033C152.652 117.033 153.37 117.213 153.951 117.572C154.533 117.93 154.978 118.444 155.287 119.112C155.597 119.768 155.751 120.547 155.751 121.45V122.007H148.532V121.061H154.768L154.452 121.302C154.452 120.312 154.229 119.539 153.784 118.982C153.339 118.425 152.677 118.147 151.798 118.147C150.87 118.147 150.147 118.475 149.627 119.13C149.107 119.774 148.847 120.646 148.847 121.747V121.914C148.847 123.077 149.132 123.962 149.701 124.568C150.283 125.162 151.093 125.459 152.132 125.459C152.689 125.459 153.209 125.378 153.691 125.218C154.186 125.044 154.656 124.766 155.102 124.382L155.621 125.44C155.213 125.836 154.693 126.145 154.062 126.368C153.444 126.579 152.788 126.684 152.095 126.684ZM161.151 126.684C160.408 126.684 159.715 126.585 159.072 126.387C158.429 126.176 157.897 125.886 157.476 125.515L157.996 124.457C158.454 124.815 158.948 125.081 159.48 125.255C160.025 125.428 160.588 125.515 161.169 125.515C161.912 125.515 162.468 125.385 162.839 125.125C163.223 124.853 163.415 124.481 163.415 124.011C163.415 123.652 163.291 123.368 163.044 123.158C162.809 122.935 162.419 122.762 161.874 122.638L160.148 122.285C159.357 122.112 158.763 121.821 158.367 121.413C157.971 120.992 157.773 120.46 157.773 119.817C157.773 119.273 157.915 118.796 158.2 118.388C158.484 117.967 158.899 117.64 159.443 117.405C159.988 117.157 160.625 117.033 161.355 117.033C162.035 117.033 162.66 117.139 163.229 117.349C163.811 117.547 164.293 117.838 164.677 118.221L164.139 119.26C163.767 118.902 163.341 118.636 162.858 118.462C162.388 118.277 161.899 118.184 161.392 118.184C160.662 118.184 160.111 118.332 159.74 118.629C159.381 118.914 159.202 119.291 159.202 119.761C159.202 120.12 159.313 120.417 159.536 120.652C159.771 120.875 160.13 121.042 160.612 121.153L162.338 121.506C163.18 121.691 163.804 121.982 164.213 122.378C164.633 122.762 164.844 123.281 164.844 123.937C164.844 124.494 164.689 124.983 164.38 125.403C164.07 125.811 163.637 126.127 163.081 126.35C162.536 126.572 161.893 126.684 161.151 126.684ZM170.357 126.684C169.615 126.684 168.922 126.585 168.279 126.387C167.635 126.176 167.103 125.886 166.683 125.515L167.202 124.457C167.66 124.815 168.155 125.081 168.687 125.255C169.231 125.428 169.794 125.515 170.376 125.515C171.118 125.515 171.675 125.385 172.046 125.125C172.43 124.853 172.621 124.481 172.621 124.011C172.621 123.652 172.498 123.368 172.25 123.158C172.015 122.935 171.625 122.762 171.081 122.638L169.355 122.285C168.563 122.112 167.969 121.821 167.574 121.413C167.178 120.992 166.98 120.46 166.98 119.817C166.98 119.273 167.122 118.796 167.407 118.388C167.691 117.967 168.106 117.64 168.65 117.405C169.194 117.157 169.832 117.033 170.561 117.033C171.242 117.033 171.867 117.139 172.436 117.349C173.017 117.547 173.5 117.838 173.883 118.221L173.345 119.26C172.974 118.902 172.547 118.636 172.065 118.462C171.595 118.277 171.106 118.184 170.599 118.184C169.869 118.184 169.318 118.332 168.947 118.629C168.588 118.914 168.409 119.291 168.409 119.761C168.409 120.12 168.52 120.417 168.743 120.652C168.978 120.875 169.337 121.042 169.819 121.153L171.545 121.506C172.386 121.691 173.011 121.982 173.419 122.378C173.84 122.762 174.05 123.281 174.05 123.937C174.05 124.494 173.896 124.983 173.586 125.403C173.277 125.811 172.844 126.127 172.287 126.35C171.743 126.572 171.1 126.684 170.357 126.684ZM180.009 126.684C179.18 126.684 178.457 126.492 177.838 126.108C177.219 125.712 176.737 125.156 176.391 124.438C176.056 123.721 175.889 122.861 175.889 121.859C175.889 120.844 176.056 119.978 176.391 119.26C176.737 118.543 177.219 117.992 177.838 117.609C178.457 117.225 179.18 117.033 180.009 117.033C180.851 117.033 181.574 117.25 182.181 117.683C182.799 118.104 183.208 118.679 183.406 119.409H183.183L183.387 117.2H184.835C184.797 117.559 184.76 117.924 184.723 118.295C184.698 118.654 184.686 119.007 184.686 119.353V126.517H183.183V124.327H183.387C183.189 125.057 182.781 125.632 182.162 126.053C181.544 126.473 180.826 126.684 180.009 126.684ZM180.306 125.459C181.197 125.459 181.902 125.156 182.422 124.549C182.942 123.931 183.201 123.034 183.201 121.859C183.201 120.671 182.942 119.774 182.422 119.168C181.902 118.549 181.197 118.24 180.306 118.24C179.428 118.24 178.723 118.549 178.191 119.168C177.671 119.774 177.411 120.671 177.411 121.859C177.411 123.034 177.671 123.931 178.191 124.549C178.723 125.156 179.428 125.459 180.306 125.459ZM191.694 130.655C190.89 130.655 190.147 130.556 189.467 130.358C188.786 130.16 188.174 129.857 187.63 129.449L188.075 128.317C188.459 128.589 188.836 128.806 189.207 128.966C189.578 129.127 189.962 129.245 190.358 129.319C190.754 129.406 191.174 129.449 191.62 129.449C192.535 129.449 193.228 129.208 193.698 128.725C194.168 128.243 194.403 127.556 194.403 126.665V123.937H194.589C194.391 124.667 193.983 125.249 193.364 125.682C192.746 126.102 192.022 126.313 191.193 126.313C190.339 126.313 189.597 126.127 188.966 125.756C188.347 125.372 187.865 124.834 187.518 124.141C187.184 123.436 187.017 122.607 187.017 121.654C187.017 120.714 187.184 119.898 187.518 119.205C187.865 118.512 188.347 117.98 188.966 117.609C189.597 117.225 190.339 117.033 191.193 117.033C192.034 117.033 192.758 117.244 193.364 117.664C193.983 118.085 194.391 118.666 194.589 119.409L194.403 119.223L194.57 117.2H196.037C195.987 117.559 195.95 117.924 195.925 118.295C195.9 118.654 195.888 119.007 195.888 119.353V126.461C195.888 127.847 195.529 128.892 194.812 129.597C194.106 130.303 193.067 130.655 191.694 130.655ZM191.471 125.088C192.374 125.088 193.086 124.791 193.605 124.197C194.125 123.591 194.385 122.743 194.385 121.654C194.385 120.566 194.125 119.724 193.605 119.13C193.086 118.537 192.374 118.24 191.471 118.24C190.58 118.24 189.869 118.537 189.337 119.13C188.805 119.724 188.539 120.566 188.539 121.654C188.539 122.743 188.805 123.591 189.337 124.197C189.869 124.791 190.58 125.088 191.471 125.088ZM202.913 126.684C201.453 126.684 200.303 126.263 199.461 125.422C198.62 124.568 198.199 123.386 198.199 121.877C198.199 120.9 198.385 120.052 198.756 119.335C199.127 118.605 199.647 118.042 200.315 117.646C200.983 117.237 201.75 117.033 202.616 117.033C203.47 117.033 204.187 117.213 204.769 117.572C205.35 117.93 205.796 118.444 206.105 119.112C206.414 119.768 206.569 120.547 206.569 121.45V122.007H199.35V121.061H205.586L205.27 121.302C205.27 120.312 205.047 119.539 204.602 118.982C204.157 118.425 203.495 118.147 202.616 118.147C201.688 118.147 200.965 118.475 200.445 119.13C199.925 119.774 199.665 120.646 199.665 121.747V121.914C199.665 123.077 199.95 123.962 200.519 124.568C201.101 125.162 201.911 125.459 202.95 125.459C203.507 125.459 204.027 125.378 204.509 125.218C205.004 125.044 205.474 124.766 205.92 124.382L206.439 125.44C206.031 125.836 205.511 126.145 204.88 126.368C204.262 126.579 203.606 126.684 202.913 126.684ZM36.9329 150.517V136.858H38.4361V143.26H38.1949C38.4547 142.53 38.8877 141.98 39.494 141.609C40.1126 141.225 40.824 141.033 41.6282 141.033C42.7417 141.033 43.5706 141.336 44.115 141.943C44.6594 142.537 44.9315 143.44 44.9315 144.652V150.517H43.4283V144.745C43.4283 143.879 43.2551 143.248 42.9087 142.852C42.5746 142.456 42.0303 142.258 41.2756 142.258C40.4095 142.258 39.7167 142.524 39.197 143.056C38.6898 143.588 38.4361 144.287 38.4361 145.153V150.517H36.9329ZM51.9454 150.684C50.4855 150.684 49.3349 150.263 48.4936 149.422C47.6523 148.568 47.2316 147.386 47.2316 145.877C47.2316 144.9 47.4172 144.052 47.7884 143.335C48.1595 142.605 48.6792 142.042 49.3473 141.646C50.0154 141.237 50.7824 141.033 51.6485 141.033C52.5022 141.033 53.2198 141.213 53.8013 141.572C54.3828 141.93 54.8282 142.444 55.1375 143.112C55.4468 143.768 55.6014 144.547 55.6014 145.45V146.007H48.3822V145.061H54.6178L54.3023 145.302C54.3023 144.312 54.0796 143.539 53.6342 142.982C53.1888 142.425 52.5269 142.147 51.6485 142.147C50.7206 142.147 49.9968 142.475 49.4772 143.13C48.9575 143.774 48.6977 144.646 48.6977 145.747V145.914C48.6977 147.077 48.9823 147.962 49.5514 148.568C50.1329 149.162 50.9433 149.459 51.9826 149.459C52.5393 149.459 53.0589 149.378 53.5415 149.218C54.0363 149.044 54.5065 148.766 54.9519 148.382L55.4715 149.44C55.0632 149.836 54.5436 150.145 53.9126 150.368C53.294 150.579 52.6383 150.684 51.9454 150.684ZM57.8645 150.517V143.446C57.8645 143.075 57.8522 142.697 57.8274 142.314C57.815 141.93 57.7903 141.559 57.7532 141.2H59.2007L59.3863 143.464L59.1265 143.483C59.2502 142.926 59.4667 142.469 59.776 142.11C60.0853 141.751 60.4503 141.485 60.871 141.312C61.2916 141.126 61.7309 141.033 62.1886 141.033C62.3742 141.033 62.535 141.04 62.6711 141.052C62.8196 141.064 62.9557 141.095 63.0794 141.145L63.0609 142.481C62.8753 142.419 62.7021 142.382 62.5412 142.37C62.3928 142.345 62.2196 142.332 62.0216 142.332C61.4772 142.332 61.0009 142.462 60.5926 142.722C60.1967 142.982 59.8936 143.316 59.6832 143.724C59.4853 144.133 59.3863 144.566 59.3863 145.023V150.517H57.8645ZM68.6733 150.684C67.2134 150.684 66.0628 150.263 65.2215 149.422C64.3802 148.568 63.9595 147.386 63.9595 145.877C63.9595 144.9 64.1451 144.052 64.5162 143.335C64.8874 142.605 65.407 142.042 66.0751 141.646C66.7432 141.237 67.5103 141.033 68.3764 141.033C69.2301 141.033 69.9477 141.213 70.5291 141.572C71.1106 141.93 71.556 142.444 71.8653 143.112C72.1747 143.768 72.3293 144.547 72.3293 145.45V146.007H65.1101V145.061H71.3457L71.0302 145.302C71.0302 144.312 70.8075 143.539 70.3621 142.982C69.9167 142.425 69.2548 142.147 68.3764 142.147C67.4485 142.147 66.7247 142.475 66.2051 143.13C65.6854 143.774 65.4256 144.646 65.4256 145.747V145.914C65.4256 147.077 65.7102 147.962 66.2793 148.568C66.8608 149.162 67.6712 149.459 68.7104 149.459C69.2672 149.459 69.7868 149.378 70.2693 149.218C70.7642 149.044 71.2344 148.766 71.6798 148.382L72.1994 149.44C71.7911 149.836 71.2715 150.145 70.6405 150.368C70.0219 150.579 69.3662 150.684 68.6733 150.684ZM74.3326 150.517V148.624H76.2255V150.517H74.3326ZM78.5553 150.517V148.624H80.4483V150.517H78.5553ZM82.7781 150.517V148.624H84.671V150.517H82.7781Z" fill="#A9ADB3"/>
</g>
<defs>
<filter id="filter0_f_3_3496" x="15.6" y="15.6" width="264.8" height="63.75" filterUnits="userSpaceOnUse" color-interpolation-filters="sRGB">
<feFlood flood-opacity="0" result="BackgroundImageFix"/>
<feBlend mode="normal" in="SourceGraphic" in2="BackgroundImageFix" result="shape"/>
<feGaussianBlur stdDeviation="1.2" result="effect1_foregroundBlur_3_3496"/>
</filter>
<filter id="filter1_f_3_3496" x="15.6" y="87.65" width="264.8" height="167.267" filterUnits="userSpaceOnUse" color-interpolation-filters="sRGB">
<feFlood flood-opacity="0" result="BackgroundImageFix"/>
<feBlend mode="normal" in="SourceGraphic" in2="BackgroundImageFix" result="shape"/>
<feGaussianBlur stdDeviation="1.2" result="effect1_foregroundBlur_3_3496"/>
</filter>
</defs>
</svg>
