<svg width="341" height="180" viewBox="0 0 341 180" fill="none" xmlns="http://www.w3.org/2000/svg">
<rect x="100.745" y="12.4718" width="130.235" height="42.6174" rx="21.3087" transform="rotate(-3.09322 100.745 12.4718)" fill="#D94646"/>
<rect x="100.745" y="12.4718" width="130.235" height="42.6174" rx="21.3087" transform="rotate(-3.09322 100.745 12.4718)" fill="white" fill-opacity="0.8"/>
<path d="M117.929 41.3953L117.028 24.7223L125.174 24.2821C127.27 24.1688 128.863 24.4808 129.954 25.2181C131.061 25.9546 131.649 26.9739 131.72 28.276C131.767 29.1493 131.594 29.9231 131.2 30.5973C130.806 31.2556 130.245 31.7796 129.517 32.1693C128.79 32.559 127.942 32.78 126.973 32.8323L127.373 31.8313C128.421 31.7747 129.359 31.8991 130.188 32.2047C131.016 32.4944 131.67 32.9607 132.151 33.6036C132.648 34.2456 132.922 35.051 132.974 36.0196C133.052 37.4487 132.548 38.5987 131.465 39.4694C130.38 40.3243 128.742 40.8109 126.551 40.9294L117.929 41.3953ZM121.606 38.2822L126.108 38.0389C127.108 37.9849 127.854 37.7853 128.345 37.4403C128.851 37.0785 129.085 36.5403 129.046 35.8258C129.008 35.1271 128.719 34.6252 128.176 34.32C127.649 33.9982 126.886 33.8643 125.885 33.9183L121.098 34.177L120.946 31.3664L125.067 31.1438C126.003 31.0931 126.709 30.8957 127.185 30.5515C127.675 30.1906 127.902 29.6767 127.866 29.0098C127.83 28.3587 127.55 27.8882 127.025 27.598C126.515 27.2912 125.791 27.1631 124.854 27.2137L121.019 27.4209L121.606 38.2822ZM139.152 30.2631L147.179 29.8294L147.341 32.8305L139.315 33.2643L139.152 30.2631ZM139.809 37.1074L148.884 36.617L149.051 39.7135L136.141 40.4111L135.24 23.7381L147.84 23.0572L148.008 26.1536L139.243 26.6273L139.809 37.1074ZM155.199 30.1843L163.202 29.7518L163.369 32.8483L155.366 33.2807L155.199 30.1843ZM155.98 39.339L152.121 39.5475L151.22 22.8745L163.82 22.1936L163.988 25.29L155.246 25.7624L155.98 39.339ZM175.285 38.5825C173.967 38.6537 172.732 38.5054 171.582 38.1376C170.447 37.7689 169.446 37.2179 168.578 36.4844C167.726 35.7501 167.042 34.8714 166.525 33.8482C166.023 32.8243 165.739 31.693 165.672 30.4544C165.605 29.2158 165.766 28.0605 166.154 26.9885C166.558 25.9156 167.151 24.9678 167.935 24.1451C168.719 23.3224 169.655 22.6666 170.743 22.1778C171.832 21.689 173.027 21.4095 174.329 21.3391C175.647 21.2679 176.865 21.417 177.984 21.7865C179.119 22.1552 180.112 22.7067 180.964 23.441C181.832 24.1745 182.524 25.0528 183.041 26.0759C183.557 27.0832 183.85 28.214 183.917 29.4685C183.984 30.707 183.816 31.8707 183.413 32.9595C183.009 34.0324 182.416 34.9802 181.632 35.8029C180.863 36.6088 179.935 37.2562 178.846 37.745C177.774 38.233 176.587 38.5121 175.285 38.5825ZM175.083 35.2968C175.829 35.2565 176.505 35.0925 177.111 34.805C177.732 34.5166 178.268 34.1214 178.719 33.6193C179.17 33.1171 179.504 32.5337 179.723 31.8689C179.958 31.2033 180.054 30.4735 180.011 29.6795C179.968 28.8856 179.794 28.1704 179.489 27.5339C179.2 26.8966 178.804 26.3526 178.302 25.902C177.816 25.4505 177.248 25.1149 176.599 24.8952C175.95 24.6754 175.253 24.5857 174.506 24.6261C173.76 24.6664 173.076 24.8308 172.455 25.1191C171.849 25.4067 171.321 25.8015 170.871 26.3036C170.42 26.8057 170.077 27.3896 169.842 28.0552C169.624 28.72 169.536 29.4494 169.579 30.2433C169.621 31.0214 169.787 31.737 170.077 32.3902C170.382 33.0267 170.778 33.5706 171.264 34.0221C171.766 34.4728 172.341 34.8079 172.99 35.0277C173.639 35.2474 174.337 35.3371 175.083 35.2968ZM187.268 37.6483L186.367 20.9752L193.584 20.5852C195.076 20.5046 196.376 20.6812 197.482 21.1151C198.588 21.5331 199.459 22.1788 200.095 23.0522C200.732 23.9255 201.084 24.9894 201.152 26.2439C201.218 27.4824 200.983 28.5701 200.444 29.507C199.905 30.428 199.108 31.1558 198.054 31.6905C197 32.2253 195.726 32.533 194.234 32.6136L189.16 32.8878L190.784 31.104L191.126 37.4397L187.268 37.6483ZM197.867 37.0755L193.372 31.2508L197.492 31.0281L202.035 36.8502L197.867 37.0755ZM190.807 31.5327L188.994 29.8152L193.853 29.5526C195.044 29.4883 195.92 29.1861 196.48 28.6463C197.039 28.0905 197.294 27.3601 197.245 26.455C197.196 25.534 196.863 24.8353 196.248 24.3589C195.633 23.8825 194.73 23.6765 193.539 23.7409L188.68 24.0034L190.296 22.0767L190.807 31.5327ZM207.794 26.5538L215.821 26.12L215.983 29.1212L207.956 29.5549L207.794 26.5538ZM208.45 33.3981L217.525 32.9077L217.692 36.0041L204.783 36.7018L203.882 20.0287L216.482 19.3478L216.649 22.4442L207.884 22.9179L208.45 33.3981Z" fill="#D94646"/>
<g clip-path="url(#clip0_2_1614)">
<rect x="3.86786" y="71.9531" width="330.127" height="107.797" rx="23.0993" transform="rotate(-3.09322 3.86786 71.9531)" fill="#242020"/>
<path d="M34.8164 123.831C31.3207 124.02 28.5568 122.84 26.5248 120.292C24.4913 117.716 23.3412 113.961 23.0746 109.028C22.8049 104.038 23.5444 100.195 25.2931 97.4995C27.0418 94.8038 29.664 93.3615 33.1597 93.1726C36.6836 92.9822 39.4459 94.1335 41.4467 96.6265C43.4757 99.1181 44.6242 102.845 44.8924 107.806C45.1605 112.768 44.4225 116.639 42.6784 119.419C40.961 122.17 38.3403 123.64 34.8164 123.831ZM34.5742 119.348C36.4912 119.245 37.8676 118.294 38.7035 116.496C39.5378 114.669 39.8529 111.867 39.6488 108.09C39.4446 104.312 38.8317 101.603 37.81 99.9614C36.7867 98.292 35.3166 97.5091 33.3996 97.6127C31.5108 97.7148 30.1336 98.6516 29.268 100.423C28.4291 102.165 28.1117 104.924 28.3159 108.702C28.52 112.48 29.1352 115.231 30.1615 116.957C31.2145 118.653 32.6854 119.45 34.5742 119.348ZM61.0372 121.99L56.5125 122.234L72.4929 91.4712L77.0176 91.2266L61.0372 121.99ZM56.2018 110.206C53.8056 110.336 51.8867 109.62 50.4451 108.058C49.0036 106.496 48.2067 104.305 48.0543 101.486C47.9004 98.6386 48.4567 96.3749 49.723 94.6949C51.0176 93.0134 52.8489 92.1086 55.2169 91.9806C57.6132 91.8511 59.5321 92.5674 60.9736 94.1293C62.4152 95.6913 63.2114 97.8678 63.3622 100.659C63.5145 103.478 62.9583 105.742 61.6935 107.45C60.4286 109.158 58.5981 110.077 56.2018 110.206ZM56.019 106.823C57.0621 106.767 57.8404 106.258 58.354 105.298C58.8957 104.335 59.1133 102.867 59.0066 100.894C58.8985 98.8925 58.5248 97.4707 57.8855 96.6288C57.2729 95.7571 56.4451 95.3495 55.402 95.4059C54.359 95.4622 53.565 95.9434 53.0202 96.8493C52.5036 97.7537 52.3002 99.2208 52.4099 101.251C52.5196 103.28 52.8807 104.731 53.4933 105.603C54.134 106.473 54.976 106.88 56.019 106.823ZM78.3132 121.48C75.9169 121.61 73.998 120.893 72.5565 119.331C71.1134 117.741 70.3157 115.537 70.1634 112.717C70.0095 109.87 70.5665 107.621 71.8344 105.969C73.1289 104.287 74.9602 103.382 77.3283 103.254C79.7245 103.125 81.6434 103.841 83.085 105.403C84.525 106.937 85.3204 109.099 85.4712 111.89C85.6236 114.709 85.0681 116.987 83.8048 118.724C82.54 120.432 80.7094 121.351 78.3132 121.48ZM78.1281 118.055C79.1711 117.998 79.9502 117.504 80.4653 116.571C81.007 115.609 81.2238 114.127 81.1157 112.126C81.0075 110.124 80.6338 108.702 79.9946 107.86C79.382 106.989 78.5542 106.581 77.5111 106.637C76.468 106.694 75.6748 107.189 75.1316 108.123C74.615 109.027 74.4107 110.48 74.5189 112.482C74.6286 114.512 74.9897 115.963 75.6023 116.834C76.2431 117.704 77.085 118.111 78.1281 118.055Z" fill="#F2F7FF"/>
<path d="M25.4673 156.659L24.735 143.108L26.7341 143L27.3739 154.84L34.0245 154.481L34.1169 156.192L25.4673 156.659ZM39.9672 156.049C39.0061 156.101 38.1624 155.947 37.4362 155.588C36.7093 155.216 36.1335 154.669 35.7089 153.947C35.2836 153.211 35.0429 152.325 34.9868 151.287C34.9307 150.249 35.0748 149.348 35.4191 148.584C35.7627 147.807 36.2761 147.201 36.9594 146.766C37.6421 146.318 38.4639 146.068 39.425 146.016C40.386 145.964 41.23 146.124 41.957 146.496C42.696 146.854 43.2782 147.401 43.7035 148.136C44.1409 148.858 44.3876 149.738 44.4437 150.776C44.4998 151.814 44.3497 152.721 43.9933 153.499C43.649 154.263 43.1292 154.869 42.4337 155.318C41.7504 155.754 40.9282 155.997 39.9672 156.049ZM39.8851 154.531C40.7309 154.485 41.3877 154.154 41.8556 153.537C42.3235 152.921 42.5263 152.036 42.4639 150.883C42.4016 149.729 42.105 148.878 41.5741 148.328C41.0425 147.766 40.3538 147.508 39.5081 147.553C38.6751 147.598 38.0247 147.929 37.5568 148.545C37.0882 149.149 36.8851 150.028 36.9474 151.181C37.0097 152.334 37.3003 153.192 37.8191 153.756C38.3507 154.318 39.0394 154.576 39.8851 154.531ZM49.439 155.364L45.2443 145.875L47.2625 145.766L50.5627 153.684L50.063 153.711L52.5676 145.479L54.0669 145.398L57.4248 153.313L56.9442 153.339L59.3719 145.111L61.3133 145.006L58.1463 154.893L56.378 154.989L52.8964 146.926L53.7998 146.877L51.2459 155.266L49.439 155.364ZM73.5059 154.237C72.4166 154.296 71.4227 154.214 70.524 153.993C69.6245 153.759 68.8342 153.403 68.153 152.926L68.7406 151.313C69.1943 151.623 69.6576 151.874 70.1307 152.067C70.6166 152.259 71.1254 152.399 71.657 152.486C72.2007 152.559 72.7866 152.579 73.4144 152.545C74.4908 152.487 75.2685 152.252 75.7475 151.841C76.2393 151.429 76.4682 150.909 76.4343 150.281C76.4052 149.743 76.2033 149.336 75.8286 149.06C75.4667 148.784 74.8388 148.581 73.9449 148.449L71.8269 148.139C70.5701 147.95 69.6186 147.584 68.9723 147.041C68.3382 146.484 67.9938 145.699 67.9391 144.687C67.8948 143.867 68.0738 143.137 68.4763 142.499C68.8787 141.86 69.4554 141.353 70.2062 140.979C70.9699 140.603 71.8707 140.387 72.9086 140.331C73.8697 140.279 74.7615 140.373 75.584 140.611C76.4059 140.836 77.1068 141.203 77.6869 141.712L77.1155 143.266C76.5118 142.797 75.877 142.465 75.211 142.27C74.5443 142.061 73.7945 141.98 72.9616 142.025C71.9749 142.078 71.2107 142.325 70.6691 142.766C70.1402 143.206 69.8948 143.778 69.9329 144.483C69.9634 145.046 70.1603 145.479 70.5236 145.781C70.8997 146.082 71.5023 146.293 72.3314 146.416L74.4483 146.706C75.7571 146.905 76.7343 147.27 77.3798 147.801C78.0247 148.319 78.3734 149.064 78.4261 150.038C78.4683 150.82 78.2939 151.517 77.9029 152.129C77.5247 152.741 76.9602 153.234 76.2093 153.609C75.4578 153.971 74.5566 154.18 73.5059 154.237ZM85.4003 153.594C83.8369 153.678 82.5829 153.303 81.6381 152.467C80.6933 151.631 80.1787 150.432 80.0942 148.869C80.0395 147.856 80.1839 146.962 80.5275 146.185C80.8839 145.407 81.397 144.795 82.0668 144.347C82.7487 143.886 83.551 143.631 84.4736 143.581C85.3834 143.532 86.1563 143.683 86.7921 144.034C87.428 144.385 87.9251 144.905 88.2836 145.592C88.6413 146.267 88.8458 147.078 88.8971 148.027L88.9303 148.642L81.6262 149.036L81.5659 147.922L87.5438 147.598L87.2305 147.866C87.1786 146.905 86.9206 146.173 86.4565 145.672C86.0046 145.156 85.3749 144.92 84.5676 144.964C83.6706 145.013 82.9956 145.364 82.5426 146.018C82.0889 146.659 81.8915 147.525 81.9504 148.614L81.9608 148.806C82.0224 149.947 82.3443 150.79 82.9265 151.337C83.5214 151.883 84.3315 152.129 85.3566 152.073C85.9205 152.043 86.4417 151.938 86.9203 151.758C87.4111 151.564 87.8707 151.269 88.2991 150.873L89.0051 152.165C88.578 152.587 88.05 152.924 87.4211 153.176C86.7915 153.416 86.1179 153.555 85.4003 153.594ZM95.6625 153.039C94.6886 153.092 93.8257 152.939 93.0739 152.582C92.3341 152.21 91.7452 151.657 91.3071 150.923C90.8811 150.175 90.6397 149.275 90.5829 148.225C90.5269 147.187 90.6774 146.285 91.0344 145.521C91.3915 144.756 91.9185 144.162 92.6153 143.739C93.3114 143.303 94.1464 143.058 95.1203 143.006C95.7482 142.972 96.3628 143.048 96.964 143.234C97.5645 143.407 98.0674 143.676 98.4726 144.039L97.912 145.438C97.5345 145.112 97.117 144.877 96.6595 144.735C96.2013 144.58 95.7608 144.513 95.3379 144.536C94.4153 144.586 93.7072 144.92 93.2137 145.538C92.7202 146.156 92.5035 147.022 92.5638 148.137C92.6247 149.264 92.9342 150.115 93.4921 150.689C94.05 151.263 94.7903 151.525 95.7129 151.475C96.123 151.453 96.5481 151.353 96.9883 151.175C97.4278 150.984 97.8236 150.699 98.1759 150.32L98.8839 151.651C98.5074 152.057 98.024 152.385 97.4335 152.635C96.8551 152.872 96.2648 153.007 95.6625 153.039ZM104.447 152.565C103.281 152.628 102.386 152.361 101.763 151.765C101.152 151.156 100.81 150.191 100.739 148.871L100.416 142.893L102.357 142.788L102.678 148.728C102.722 149.535 102.921 150.122 103.275 150.488C103.629 150.855 104.145 151.019 104.824 150.983C105.593 150.941 106.201 150.651 106.647 150.113C107.094 149.575 107.294 148.883 107.248 148.037L106.951 142.54L108.893 142.435L109.416 152.123L107.532 152.224L107.42 150.149L107.67 150.135C107.44 150.867 107.041 151.448 106.473 151.877C105.904 152.293 105.229 152.522 104.447 152.565ZM112.221 151.971L111.828 144.686C111.806 144.289 111.772 143.892 111.725 143.497C111.69 143.087 111.642 142.685 111.582 142.29L113.466 142.188L113.813 144.675L113.505 144.692C113.601 144.083 113.791 143.571 114.077 143.157C114.364 142.743 114.719 142.429 115.145 142.213C115.583 141.996 116.045 141.875 116.532 141.849C116.737 141.838 116.911 141.841 117.053 141.859C117.195 141.864 117.337 141.882 117.48 141.913L117.554 143.644C117.332 143.566 117.137 143.525 116.97 143.522C116.814 143.504 116.621 143.502 116.391 143.514C115.827 143.545 115.353 143.699 114.97 143.977C114.586 144.242 114.303 144.591 114.121 145.025C113.938 145.459 113.86 145.919 113.887 146.406L114.182 151.865L112.221 151.971ZM119.505 151.577L118.982 141.89L120.923 141.785L121.447 151.473L119.505 151.577ZM118.719 139.88L118.61 137.862L120.859 137.74L120.968 139.758L118.719 139.88ZM128.068 151.288C127.018 151.345 126.208 151.106 125.639 150.571C125.07 150.024 124.754 149.18 124.693 148.039L124.426 143.099L122.542 143.201L122.461 141.702L124.345 141.6L124.207 139.044L126.12 138.42L126.286 141.495L128.977 141.35L129.058 142.849L126.367 142.994L126.625 147.761C126.664 148.479 126.819 148.985 127.092 149.278C127.365 149.572 127.745 149.706 128.232 149.679C128.476 149.666 128.686 149.635 128.863 149.587C129.053 149.526 129.223 149.459 129.373 149.386L129.458 150.962C129.27 151.05 129.049 151.12 128.795 151.172C128.541 151.237 128.299 151.276 128.068 151.288ZM131.353 155.313L130.807 153.762C131.402 153.601 131.894 153.42 132.281 153.22C132.682 153.018 133.008 152.763 133.262 152.453C133.515 152.157 133.726 151.779 133.894 151.32L134.314 150.16L134.318 150.95L129.575 141.317L131.651 141.205L135.355 149.102L134.836 149.13L137.668 140.88L139.667 140.772L135.787 151.392C135.54 152.047 135.268 152.602 134.971 153.055C134.674 153.508 134.347 153.879 133.99 154.168C133.633 154.457 133.235 154.691 132.794 154.869C132.354 155.047 131.874 155.195 131.353 155.313Z" fill="#F2F7FF"/>
<g clip-path="url(#clip1_2_1614)">
<circle cx="261.329" cy="91.7756" r="18.2869" transform="rotate(-3.09322 261.329 91.7756)" fill="white" fill-opacity="0.4"/>
<path d="M256.819 97.4812L266.516 86.6758" stroke="#FCFDFF" stroke-width="2.05327"/>
<path d="M297.183 95.3L306.881 84.4947" stroke="#FCFDFF" stroke-width="2.05327"/>
<path d="M299.365 135.665L309.062 124.859" stroke="#FCFDFF" stroke-width="2.05327"/>
<path d="M259 137.846L268.697 127.041" stroke="#FCFDFF" stroke-width="2.05327"/>
<path d="M267.07 96.928L256.264 87.2306" stroke="#FCFDFF" stroke-width="2.05327"/>
<path d="M307.435 94.7467L296.629 85.0493" stroke="#FCFDFF" stroke-width="2.05327"/>
<path d="M309.616 135.112L298.811 125.414" stroke="#FCFDFF" stroke-width="2.05327"/>
<path d="M269.251 137.293L258.446 127.595" stroke="#FCFDFF" stroke-width="2.05327"/>
<circle cx="301.694" cy="89.5943" r="18.2869" transform="rotate(-3.09322 301.694 89.5943)" fill="white" fill-opacity="0.4"/>
<circle cx="263.511" cy="132.14" r="18.2869" transform="rotate(-3.09322 263.511 132.14)" fill="white" fill-opacity="0.4"/>
<circle cx="303.876" cy="129.959" r="18.2869" transform="rotate(-3.09322 303.876 129.959)" fill="white" fill-opacity="0.4"/>
<path d="M275.745 90.9964C275.899 93.8477 275.205 96.6805 273.749 99.1368C272.293 101.593 270.141 103.563 267.566 104.796C264.991 106.029 262.108 106.472 259.281 106.066C256.455 105.661 253.812 104.427 251.687 102.52C249.562 100.613 248.05 98.1183 247.342 95.352C246.635 92.5856 246.764 89.6716 247.713 86.9784C248.661 84.2853 250.387 81.934 252.673 80.2218C254.958 78.5096 257.699 77.5135 260.55 77.3595" stroke="white" stroke-width="1.92494" stroke-linecap="round"/>
<path d="M277.927 131.361C278.081 134.213 277.386 137.045 275.93 139.502C274.474 141.958 272.322 143.927 269.747 145.161C267.172 146.394 264.289 146.837 261.462 146.431C258.636 146.026 255.993 144.792 253.868 142.885C251.743 140.978 250.231 138.483 249.524 135.717C248.816 132.951 248.945 130.037 249.894 127.343C250.843 124.65 252.569 122.299 254.854 120.587C257.139 118.875 259.88 117.878 262.732 117.724" stroke="white" stroke-width="1.92494" stroke-linecap="round"/>
<path d="M316.11 88.8152C316.264 91.6664 315.569 94.4993 314.113 96.9556C312.658 99.4119 310.506 101.381 307.931 102.615C305.355 103.848 302.472 104.29 299.646 103.885C296.819 103.48 294.176 102.246 292.051 100.339C289.926 98.4316 288.415 95.9371 287.707 93.1707C287 90.4043 287.129 87.4903 288.077 84.7972C289.026 82.104 290.752 79.7527 293.037 78.0405C295.322 76.3284 298.064 75.3323 300.915 75.1782" stroke="white" stroke-width="1.92494" stroke-linecap="round"/>
<path d="M318.292 129.18C318.446 132.031 317.751 134.864 316.295 137.32C314.839 139.777 312.687 141.746 310.112 142.98C307.537 144.213 304.654 144.655 301.827 144.25C299.001 143.845 296.358 142.611 294.233 140.704C292.108 138.796 290.596 136.302 289.889 133.536C289.181 130.769 289.31 127.855 290.259 125.162C291.208 122.469 292.934 120.118 295.219 118.405C297.504 116.693 300.245 115.697 303.097 115.543" stroke="white" stroke-width="1.92494" stroke-linecap="round"/>
</g>
</g>
<defs>
<clipPath id="clip0_2_1614">
<rect x="3.86786" y="71.9531" width="330.127" height="107.797" rx="23.0993" transform="rotate(-3.09322 3.86786 71.9531)" fill="white"/>
</clipPath>
<clipPath id="clip1_2_1614">
<rect width="76.9976" height="76.9976" fill="white" transform="translate(242.082 74.5021) rotate(-3.09322)"/>
</clipPath>
</defs>
</svg>
