<svg width="34" height="37" viewBox="0 0 34 37" fill="none" xmlns="http://www.w3.org/2000/svg">
<path fill-rule="evenodd" clip-rule="evenodd" d="M3.09675 1.78235C2.54248 0.833771 1.64616 -0.391612 0.680984 0.133225C-0.201931 0.613332 0.269948 1.89067 0.78163 2.75567L0.893791 2.94528L2.68137 6.0931C2.68137 6.0931 4.6392 9.40881 5.87348 11.4654C5.97424 11.6333 6.59703 12.8504 6.63959 13.1023C6.66145 13.2316 6.65608 13.3802 6.63959 13.438C6.6231 13.4958 6.50066 13.662 6.39378 13.7433C6.33489 13.788 6.27264 13.8353 6.21398 13.8997C6.13237 13.9893 6.05965 14.064 5.99119 14.1344C5.8484 14.2812 5.72402 14.4091 5.57555 14.6132C5.36285 14.9056 5.24289 15.0765 5.10738 15.4107C4.98013 15.7244 4.93961 15.9151 4.89457 16.2501C4.82899 16.7378 4.79904 17.0364 4.93713 17.5092C5.0072 17.7491 5.1925 18.0968 5.1925 18.0968C5.1925 18.0968 5.25605 17.5127 5.40531 17.1734C5.56577 16.8087 5.72687 16.6331 5.99587 16.3398L6.00117 16.334C6.19842 16.1189 6.31265 15.9954 6.55447 15.8304C6.71588 15.7202 6.84475 15.6657 6.99042 15.604C7.0654 15.5723 7.14483 15.5387 7.23545 15.4946C7.36648 15.4309 7.47996 15.3739 7.58651 15.3204C7.84325 15.1914 8.05976 15.0827 8.38461 14.949C8.97383 14.7065 9.36109 14.5989 9.9073 14.4472C10.0041 14.4203 10.1059 14.392 10.2148 14.3614C10.448 14.2957 10.6371 14.2522 10.822 14.2098C11.0427 14.1591 11.2575 14.1099 11.5342 14.0256C11.6694 13.9844 11.7909 13.9541 11.9052 13.9256C12.1899 13.8546 12.4298 13.7947 12.7259 13.6059C12.899 13.4955 12.9981 13.4044 13.1278 13.2854C13.1614 13.2545 13.1971 13.2217 13.2366 13.1862C13.3252 13.1067 13.39 13.034 13.4525 12.9639C13.5371 12.8689 13.6176 12.7786 13.7474 12.6825C13.932 12.5459 14.2581 12.3887 14.2581 12.3887C14.2581 12.3887 13.791 11.9255 13.3217 11.7592C13.2579 11.7366 13.198 11.7137 13.1396 11.6915C12.9366 11.6142 12.7502 11.5432 12.4705 11.5074C12.2046 11.4733 12.0305 11.483 11.8292 11.4944C11.7177 11.5006 11.5977 11.5074 11.449 11.5074C11.1461 11.5074 10.9376 11.5543 10.6893 11.6103C10.5959 11.6313 10.4968 11.6537 10.385 11.6752C10.2261 11.7059 10.0873 11.7618 9.95596 11.8146C9.70358 11.9162 9.47898 12.0066 9.19328 11.8851C9.04066 11.8202 8.85279 11.6333 8.85279 11.6333L3.09675 1.78235Z" fill="url(#paint0_linear_3_2354)"/>
<path d="M21.6751 32.849C22.3521 33.1572 23.5347 33.2756 23.5347 33.2756C23.5347 33.2756 22.4764 34.2905 21.6751 34.7685C20.918 35.2201 20.4405 35.3935 19.5994 35.6642C18.6642 35.9652 18.1167 36.1232 17.1344 36.176C16.1343 36.2298 15.5532 36.165 14.5829 35.9201C13.9567 35.7621 13.6001 35.6587 13.0261 35.3656C12.635 35.166 12.4401 35.0109 12.0747 34.7685C10.4347 33.6803 8.22583 31.5268 8.22583 31.5268L23.1022 18.6453C23.1022 18.6453 27.9228 20.8884 31.2324 21.0339C31.8398 21.0606 32.1958 21.1645 32.7892 21.0339C33.2913 20.9234 34.0001 20.522 34.0001 20.522C34.0001 20.522 33.906 21.6002 33.7406 22.2709C33.5004 23.2447 33.3668 23.8349 32.7892 24.6595C32.3751 25.2507 32.1032 25.5909 31.4918 25.9817C30.8524 26.3906 30.3961 26.477 29.6531 26.6176L29.6323 26.6216C28.504 26.8352 26.6916 26.5362 26.6916 26.5362C26.6916 26.5362 27.5803 27.3323 28.2917 27.432C28.8498 27.5102 29.7188 27.2187 29.7188 27.2187C29.7188 27.2187 29.5902 28.2921 29.3296 28.9249C28.9342 29.8848 28.5226 30.3782 27.7295 31.0576C26.9195 31.7515 26.3518 32.0936 25.3078 32.3372C24.371 32.5558 23.7952 32.475 22.8428 32.3372C21.585 32.1552 19.7723 31.2708 19.7723 31.2708C19.7723 31.2708 20.7936 32.4478 21.6751 32.849Z" fill="#DDCEFC"/>
<path d="M11.8656 32.6934C11.9565 33.4348 12.3344 34.5485 12.3344 34.5485C12.3344 34.5485 11.3941 34.1679 10.8427 33.8318C9.91891 33.2687 9.47154 32.8243 8.75432 32.0188C7.75244 30.8937 7.44226 30.0647 6.75115 28.7302C6.21098 27.6872 5.86092 27.1106 5.51515 25.9897C5.18926 24.9332 5.10315 24.3071 5.0037 23.207C4.90585 22.1246 4.92009 21.5078 5.0037 20.4243C5.06246 19.6627 5.07824 19.2273 5.25942 18.4848C5.38664 17.9635 5.4173 17.6438 5.68563 17.1778C5.85038 16.8917 5.96871 16.7428 6.19708 16.5032C6.75517 15.9177 7.253 15.7959 7.98714 15.4492C8.84697 15.043 9.3867 14.9519 10.2887 14.6481C11.3001 14.3074 11.9509 14.3116 12.8885 13.8049C13.5576 13.4433 13.7239 12.8416 14.4655 12.6665C15.1002 12.5166 15.4861 12.7174 16.1277 12.8351C17.287 13.0479 17.8905 13.3669 18.9833 13.8049C20.57 14.4407 21.3888 14.9567 22.9044 15.7443C25.0683 16.8689 25.9598 18.3213 28.3598 18.78C28.9193 18.8869 29.2575 19.0908 29.8089 18.9486C30.3407 18.8115 30.9597 18.1475 30.9597 18.1475C30.9597 18.1475 31.2664 19.2691 31.258 20.0027C31.2502 20.6875 31.183 21.0831 30.9597 21.7313C30.6363 22.6696 30.3568 23.2365 29.5958 23.8816C29.0248 24.3656 28.6156 24.5684 27.891 24.767C26.9767 25.0175 26.4032 24.882 25.4616 24.767C24.3837 24.6353 22.7765 24.0502 22.7765 24.0502C22.7765 24.0502 22.4551 25.2211 22.4355 25.9897C22.4127 26.8882 22.7765 28.2664 22.7765 28.2664C22.7765 28.2664 20.9546 28.5991 19.7931 28.4772C18.729 28.3656 17.1506 27.7605 17.1506 27.7605C17.1506 27.7605 17.4693 28.9308 17.5342 29.6999C17.6328 30.8691 17.2784 32.6934 17.2784 32.6934C17.2784 32.6934 15.5896 32.3705 14.5507 32.0188C13.465 31.6513 11.8656 30.8383 11.8656 30.8383C11.8656 30.8383 11.7775 31.9742 11.8656 32.6934Z" fill="url(#paint1_linear_3_2354)"/>
<ellipse cx="23.4243" cy="4.06491" rx="0.676235" ry="0.676234" fill="white" fill-opacity="0.8"/>
<ellipse cx="24.9459" cy="7.86873" rx="0.845293" ry="0.845293" fill="white" fill-opacity="0.9"/>
<path d="M28.7495 11.1285C27.5038 11.8871 27.5038 12.5508 27.3481 13.0249C27.1924 12.7088 27.0367 12.0451 25.791 11.2865C26.9117 10.3687 26.881 10.0223 27.1924 9.39014C27.3481 9.7062 27.5038 10.3699 28.7495 11.1285Z" fill="#F0EFFB"/>
<path d="M33.7369 5.1232C31.0676 6.72852 31.0676 8.13317 30.7339 9.1365C30.4002 8.46762 30.0666 7.06296 27.3972 5.45764C29.7986 3.5153 29.7329 2.7821 30.4002 1.44434C30.7339 2.11322 31.0676 3.51788 33.7369 5.1232Z" fill="#F0EFFB"/>
<defs>
<linearGradient id="paint0_linear_3_2354" x1="0.978914" y1="0.552936" x2="9.87181" y2="22.3816" gradientUnits="userSpaceOnUse">
<stop stop-color="white"/>
<stop offset="1" stop-color="white" stop-opacity="0.7"/>
</linearGradient>
<linearGradient id="paint1_linear_3_2354" x1="11.8656" y1="14.2686" x2="22.1298" y2="27.1608" gradientUnits="userSpaceOnUse">
<stop stop-color="#EBECF9"/>
<stop offset="1" stop-color="#EDE7F9"/>
</linearGradient>
</defs>
</svg>
