<svg width="120" height="37" viewBox="0 0 120 37" fill="none" xmlns="http://www.w3.org/2000/svg">
<path fill-rule="evenodd" clip-rule="evenodd" d="M3.09675 1.78235C2.54248 0.833771 1.64616 -0.391612 0.680984 0.133225C-0.201931 0.613332 0.269948 1.89067 0.78163 2.75567L0.893791 2.94528L2.68137 6.0931C2.68137 6.0931 4.6392 9.40881 5.87348 11.4654C5.97424 11.6333 6.59703 12.8504 6.63959 13.1023C6.66145 13.2316 6.65608 13.3802 6.63959 13.438C6.6231 13.4958 6.50066 13.662 6.39378 13.7433C6.33489 13.788 6.27264 13.8353 6.21398 13.8997C6.13237 13.9893 6.05965 14.064 5.99119 14.1344C5.8484 14.2812 5.72402 14.4091 5.57555 14.6132C5.36285 14.9056 5.24289 15.0765 5.10738 15.4107C4.98013 15.7244 4.93961 15.9151 4.89457 16.2501C4.82899 16.7378 4.79904 17.0364 4.93713 17.5092C5.0072 17.7491 5.1925 18.0968 5.1925 18.0968C5.1925 18.0968 5.25605 17.5127 5.40531 17.1734C5.56577 16.8087 5.72687 16.6331 5.99587 16.3398L6.00117 16.334C6.19842 16.1189 6.31265 15.9954 6.55447 15.8304C6.71588 15.7202 6.84475 15.6657 6.99042 15.604C7.0654 15.5723 7.14483 15.5387 7.23545 15.4946C7.36648 15.4309 7.47996 15.3739 7.58651 15.3204C7.84325 15.1914 8.05976 15.0827 8.38461 14.949C8.97383 14.7065 9.36109 14.5989 9.9073 14.4472C10.0041 14.4203 10.1059 14.392 10.2148 14.3614C10.448 14.2957 10.6371 14.2522 10.822 14.2098C11.0427 14.1591 11.2575 14.1099 11.5342 14.0256C11.6694 13.9844 11.7909 13.9541 11.9052 13.9256C12.1899 13.8546 12.4298 13.7947 12.7259 13.6059C12.899 13.4955 12.9981 13.4044 13.1278 13.2854C13.1614 13.2545 13.1971 13.2217 13.2366 13.1862C13.3252 13.1067 13.39 13.034 13.4525 12.9639C13.5371 12.8689 13.6176 12.7786 13.7474 12.6825C13.932 12.5459 14.2581 12.3887 14.2581 12.3887C14.2581 12.3887 13.791 11.9255 13.3217 11.7592C13.2579 11.7366 13.198 11.7137 13.1396 11.6915C12.9366 11.6142 12.7502 11.5432 12.4705 11.5074C12.2046 11.4733 12.0305 11.483 11.8292 11.4944C11.7177 11.5006 11.5977 11.5074 11.449 11.5074C11.1461 11.5074 10.9376 11.5543 10.6893 11.6103C10.5959 11.6313 10.4968 11.6537 10.385 11.6752C10.2261 11.7059 10.0873 11.7618 9.95596 11.8146C9.70358 11.9162 9.47898 12.0066 9.19328 11.8851C9.04066 11.8202 8.85279 11.6333 8.85279 11.6333L3.09675 1.78235Z" fill="url(#paint0_linear_1_5417)"/>
<path d="M21.6751 32.849C22.3521 33.1572 23.5347 33.2756 23.5347 33.2756C23.5347 33.2756 22.4764 34.2905 21.6751 34.7685C20.918 35.2201 20.4405 35.3935 19.5994 35.6642C18.6642 35.9652 18.1167 36.1232 17.1344 36.176C16.1343 36.2298 15.5532 36.165 14.5829 35.9201C13.9567 35.7621 13.6001 35.6587 13.0261 35.3656C12.635 35.166 12.4401 35.0109 12.0747 34.7685C10.4347 33.6803 8.22583 31.5268 8.22583 31.5268L23.1022 18.6453C23.1022 18.6453 27.9228 20.8884 31.2324 21.0339C31.8398 21.0606 32.1958 21.1645 32.7892 21.0339C33.2913 20.9234 34.0001 20.522 34.0001 20.522C34.0001 20.522 33.906 21.6002 33.7406 22.2709C33.5004 23.2447 33.3668 23.8349 32.7892 24.6595C32.3751 25.2507 32.1032 25.5909 31.4918 25.9817C30.8524 26.3906 30.3961 26.477 29.6531 26.6176L29.6323 26.6216C28.504 26.8352 26.6916 26.5362 26.6916 26.5362C26.6916 26.5362 27.5803 27.3323 28.2917 27.432C28.8498 27.5102 29.7188 27.2187 29.7188 27.2187C29.7188 27.2187 29.5902 28.2921 29.3296 28.9249C28.9342 29.8848 28.5226 30.3782 27.7295 31.0576C26.9195 31.7515 26.3518 32.0936 25.3078 32.3372C24.371 32.5558 23.7952 32.475 22.8428 32.3372C21.585 32.1552 19.7723 31.2708 19.7723 31.2708C19.7723 31.2708 20.7936 32.4478 21.6751 32.849Z" fill="#DDCEFC"/>
<path d="M11.8656 32.6934C11.9564 33.4348 12.3344 34.5485 12.3344 34.5485C12.3344 34.5485 11.3941 34.1679 10.8427 33.8318C9.91885 33.2687 9.47148 32.8243 8.75426 32.0188C7.75238 30.8937 7.44221 30.0647 6.75109 28.7302C6.21093 27.6872 5.86087 27.1106 5.51509 25.9897C5.1892 24.9332 5.1031 24.3071 5.00365 23.207C4.90579 22.1246 4.92004 21.5078 5.00365 20.4243C5.06241 19.6627 5.07818 19.2273 5.25937 18.4848C5.38659 17.9635 5.41725 17.6438 5.68558 17.1778C5.85033 16.8917 5.96866 16.7428 6.19702 16.5032C6.75512 15.9177 7.25295 15.7959 7.98709 15.4492C8.84691 15.043 9.38665 14.9519 10.2886 14.6481C11.3001 14.3074 11.9508 14.3116 12.8885 13.8049C13.5575 13.4433 13.7239 12.8416 14.4654 12.6665C15.1001 12.5166 15.486 12.7174 16.1276 12.8351C17.2869 13.0479 17.8904 13.3669 18.9832 13.8049C20.57 14.4407 21.3887 14.9567 22.9043 15.7443C25.0683 16.8689 25.9597 18.3213 28.3598 18.78C28.9192 18.8869 29.2575 19.0908 29.8089 18.9486C30.3406 18.8115 30.9596 18.1475 30.9596 18.1475C30.9596 18.1475 31.2664 19.2691 31.258 20.0027C31.2501 20.6875 31.183 21.0831 30.9596 21.7313C30.6363 22.6696 30.3567 23.2365 29.5958 23.8816C29.0248 24.3656 28.6156 24.5684 27.8909 24.767C26.9766 25.0175 26.4031 24.882 25.4616 24.767C24.3836 24.6353 22.7765 24.0502 22.7765 24.0502C22.7765 24.0502 22.455 25.2211 22.4355 25.9897C22.4127 26.8882 22.7765 28.2664 22.7765 28.2664C22.7765 28.2664 20.9546 28.5991 19.793 28.4772C18.7289 28.3656 17.1505 27.7605 17.1505 27.7605C17.1505 27.7605 17.4692 28.9308 17.5341 29.6999C17.6328 30.8691 17.2784 32.6934 17.2784 32.6934C17.2784 32.6934 15.5896 32.3705 14.5507 32.0188C13.465 31.6513 11.8656 30.8383 11.8656 30.8383C11.8656 30.8383 11.7774 31.9742 11.8656 32.6934Z" fill="url(#paint1_linear_1_5417)"/>
<ellipse cx="23.4243" cy="4.06491" rx="0.676235" ry="0.676234" fill="white" fill-opacity="0.8"/>
<ellipse cx="24.9458" cy="7.86873" rx="0.845293" ry="0.845293" fill="white" fill-opacity="0.9"/>
<path d="M28.7496 11.1285C27.5039 11.8871 27.5039 12.5508 27.3482 13.0249C27.1925 12.7088 27.0368 12.0451 25.7911 11.2865C26.9117 10.3687 26.881 10.0223 27.1925 9.39014C27.3482 9.7062 27.5039 10.3699 28.7496 11.1285Z" fill="#F0EFFB"/>
<path d="M33.7368 5.1232C31.0675 6.72852 31.0675 8.13317 30.7338 9.1365C30.4002 8.46762 30.0665 7.06296 27.3971 5.45764C29.7985 3.5153 29.7328 2.7821 30.4002 1.44434C30.7338 2.11322 31.0675 3.51788 33.7368 5.1232Z" fill="#F0EFFB"/>
<path d="M46.7462 24.7922C45.991 24.7922 45.2943 24.662 44.6563 24.4016C44.0183 24.1412 43.4649 23.8482 42.9962 23.5227V21.7063C43.504 22.0579 44.0834 22.3769 44.7345 22.6633C45.3985 22.9368 46.1472 23.0735 46.9805 23.0735C47.6316 23.0735 48.2045 22.9107 48.6993 22.5852C49.1941 22.2597 49.4415 21.8105 49.4415 21.2375C49.4415 20.912 49.3373 20.6321 49.129 20.3977C48.9337 20.1633 48.6928 19.9615 48.4063 19.7922C48.1199 19.623 47.8399 19.4797 47.5665 19.3625L45.3985 18.386C44.7735 18.0995 44.2852 17.787 43.9337 17.4485C43.5821 17.1099 43.3347 16.7389 43.1915 16.3352C43.0483 15.9185 42.9766 15.4693 42.9766 14.9875C42.9766 14.2974 43.172 13.679 43.5626 13.1321C43.9662 12.5722 44.5001 12.1295 45.1641 11.804C45.8282 11.4784 46.5443 11.3157 47.3126 11.3157C48.0808 11.3157 48.7123 11.4264 49.2071 11.6477C49.7149 11.8691 50.1576 12.1034 50.5352 12.3508V14.1672C50.1706 13.8938 49.7279 13.6399 49.2071 13.4055C48.6863 13.1581 48.1199 13.0344 47.5079 13.0344C47.1173 13.0344 46.7071 13.106 46.2774 13.2493C45.8608 13.3795 45.5092 13.5943 45.2227 13.8938C44.9363 14.1933 44.793 14.5774 44.793 15.0461C44.793 15.567 44.9818 15.9641 45.3595 16.2375C45.7371 16.511 46.1928 16.7714 46.7266 17.0188L48.5235 17.8391C49.422 18.2428 50.099 18.692 50.5548 19.1868C51.0105 19.6816 51.2384 20.3391 51.2384 21.1594C51.2384 21.8756 51.03 22.5071 50.6134 23.054C50.1967 23.5878 49.6498 24.011 48.9727 24.3235C48.2956 24.636 47.5535 24.7922 46.7462 24.7922ZM53.0751 29.2844V14.8313H54.6766V16.4915C55.0152 15.9706 55.4709 15.5344 56.0438 15.1829C56.6298 14.8183 57.2938 14.636 58.036 14.636C58.8824 14.636 59.6441 14.8443 60.3212 15.261C61.0113 15.6646 61.5581 16.2375 61.9618 16.9797C62.3785 17.7089 62.5868 18.5683 62.5868 19.5579C62.5868 20.6256 62.3785 21.5631 61.9618 22.3704C61.5581 23.1646 60.9983 23.7831 60.2821 24.2258C59.579 24.6685 58.7782 24.8899 57.8798 24.8899C57.3199 24.8899 56.747 24.7402 56.161 24.4407C55.5881 24.1412 55.0933 23.7571 54.6766 23.2883V29.2844H53.0751ZM57.5868 23.3274C58.2899 23.3274 58.8889 23.1451 59.3837 22.7805C59.8785 22.4159 60.2561 21.9472 60.5165 21.3743C60.7899 20.7883 60.9266 20.1829 60.9266 19.5579C60.9266 18.9198 60.7964 18.3534 60.536 17.8586C60.2756 17.3508 59.911 16.9472 59.4423 16.6477C58.9735 16.3482 58.4201 16.1985 57.7821 16.1985C57.1962 16.1985 56.6623 16.3482 56.1805 16.6477C55.7118 16.9472 55.3407 17.3639 55.0673 17.8977C54.8068 18.4185 54.6766 19.0305 54.6766 19.7336L54.6962 21.6086C55.1128 22.1165 55.549 22.5331 56.0048 22.8586C56.4605 23.1711 56.9878 23.3274 57.5868 23.3274ZM68.2907 24.8899C67.4574 24.8899 66.6956 24.6816 66.0055 24.2649C65.3154 23.8352 64.7621 23.2428 64.3454 22.4875C63.9417 21.7323 63.7399 20.8599 63.7399 19.8704C63.7399 18.7896 63.9417 17.8586 64.3454 17.0774C64.7621 16.2961 65.3285 15.6972 66.0446 15.2805C66.7608 14.8508 67.5615 14.636 68.447 14.636C69.0068 14.636 69.5733 14.7727 70.1462 15.0461C70.7321 15.3066 71.2334 15.6711 71.6501 16.1399V14.8313H73.2516V24.5969H71.6501V22.9368C71.3115 23.4576 70.8493 23.9133 70.2634 24.304C69.6904 24.6946 69.0329 24.8899 68.2907 24.8899ZM68.5446 23.3274C69.1436 23.3274 69.6774 23.1711 70.1462 22.8586C70.6149 22.5461 70.986 22.1165 71.2595 21.5696C71.5329 21.0097 71.6631 20.3847 71.6501 19.6946L71.6305 17.8196C71.2269 17.3118 70.7907 16.9146 70.322 16.6282C69.8662 16.3417 69.3389 16.1985 68.7399 16.1985C68.0368 16.1985 67.4378 16.3743 66.943 16.7258C66.4483 17.0774 66.0641 17.5331 65.7907 18.093C65.5303 18.6399 65.4001 19.2323 65.4001 19.8704C65.4001 20.4954 65.5303 21.0748 65.7907 21.6086C66.0511 22.1295 66.4157 22.5461 66.8845 22.8586C67.3662 23.1711 67.9196 23.3274 68.5446 23.3274ZM80.186 24.8899C79.4438 24.8899 78.7602 24.7597 78.1352 24.4993C77.5233 24.2258 76.9829 23.8547 76.5141 23.386C76.0584 22.9042 75.7068 22.3573 75.4594 21.7454C75.2121 21.1204 75.0884 20.4628 75.0884 19.7727C75.0884 19.0826 75.2121 18.4316 75.4594 17.8196C75.7068 17.1946 76.0584 16.6477 76.5141 16.179C76.9829 15.6972 77.5233 15.3196 78.1352 15.0461C78.7602 14.7727 79.4438 14.636 80.186 14.636C80.9022 14.636 81.5206 14.7532 82.0415 14.9875C82.5623 15.2089 82.9204 15.4107 83.1157 15.593V17.2141C82.7511 16.9407 82.3344 16.7063 81.8657 16.511C81.3969 16.3027 80.8371 16.1985 80.186 16.1985C79.4959 16.1985 78.8904 16.3678 78.3696 16.7063C77.8488 17.0318 77.4451 17.468 77.1587 18.0149C76.8852 18.5487 76.7485 19.1347 76.7485 19.7727C76.7485 20.3977 76.8852 20.9836 77.1587 21.5305C77.4451 22.0644 77.8488 22.5006 78.3696 22.8391C78.8904 23.1646 79.4959 23.3274 80.186 23.3274C80.8371 23.3274 81.3969 23.2297 81.8657 23.0344C82.3344 22.8261 82.7511 22.5852 83.1157 22.3118V23.9329C82.9204 24.1282 82.5623 24.3365 82.0415 24.5579C81.5206 24.7792 80.9022 24.8899 80.186 24.8899ZM89.3665 24.8899C88.6243 24.8899 87.9407 24.7597 87.3157 24.4993C86.7037 24.2258 86.1634 23.8547 85.6946 23.386C85.2389 22.9042 84.8873 22.3573 84.6399 21.7454C84.3925 21.1204 84.2688 20.4628 84.2688 19.7727C84.2688 18.8482 84.4706 17.9954 84.8743 17.2141C85.2779 16.4329 85.8313 15.8079 86.5345 15.3391C87.2506 14.8704 88.0644 14.636 88.9759 14.636C89.9785 14.636 90.8118 14.8443 91.4759 15.261C92.1399 15.6777 92.6347 16.2441 92.9602 16.9602C93.2988 17.6764 93.468 18.4836 93.468 19.3821V20.3391H85.7727V18.9719H91.886C91.8209 18.3339 91.6386 17.8131 91.3391 17.4094C91.0527 17.0058 90.7011 16.7063 90.2845 16.511C89.8678 16.3027 89.4316 16.1985 88.9759 16.1985C88.3509 16.1985 87.8105 16.3678 87.3548 16.7063C86.899 17.0318 86.5475 17.468 86.3001 18.0149C86.0527 18.5487 85.929 19.1347 85.929 19.7727C85.929 20.3977 86.0657 20.9836 86.3391 21.5305C86.6256 22.0644 87.0292 22.5006 87.5501 22.8391C88.0709 23.1646 88.6764 23.3274 89.3665 23.3274C90.0696 23.3274 90.7206 23.1516 91.3196 22.8C91.9316 22.4355 92.4459 22.0383 92.8626 21.6086V23.3469C92.6803 23.5683 92.4068 23.8027 92.0423 24.05C91.6907 24.2844 91.2805 24.4797 90.8118 24.636C90.3561 24.8053 89.8743 24.8899 89.3665 24.8899ZM100.988 24.8508C99.9727 24.8508 99.0548 24.636 98.2345 24.2063C97.4272 23.7766 96.7826 23.1581 96.3009 22.3508C95.8321 21.5305 95.5977 20.554 95.5977 19.4211V11.4719H97.3555V19.3625C97.3555 20.248 97.5183 20.9641 97.8438 21.511C98.1824 22.0448 98.6251 22.4355 99.172 22.6829C99.7318 22.9303 100.337 23.054 100.988 23.054C101.639 23.054 102.238 22.9303 102.785 22.6829C103.345 22.4355 103.788 22.0448 104.113 21.511C104.452 20.9641 104.621 20.248 104.621 19.3625V11.4719H106.379V19.4211C106.379 20.554 106.138 21.5305 105.656 22.3508C105.188 23.1581 104.55 23.7766 103.742 24.2063C102.935 24.636 102.017 24.8508 100.988 24.8508ZM109.192 29.2844V14.8313H110.794V16.4915C111.132 15.9706 111.588 15.5344 112.161 15.1829C112.747 14.8183 113.411 14.636 114.153 14.636C115 14.636 115.761 14.8443 116.438 15.261C117.128 15.6646 117.675 16.2375 118.079 16.9797C118.496 17.7089 118.704 18.5683 118.704 19.5579C118.704 20.6256 118.496 21.5631 118.079 22.3704C117.675 23.1646 117.115 23.7831 116.399 24.2258C115.696 24.6685 114.895 24.8899 113.997 24.8899C113.437 24.8899 112.864 24.7402 112.278 24.4407C111.705 24.1412 111.21 23.7571 110.794 23.2883V29.2844H109.192ZM113.704 23.3274C114.407 23.3274 115.006 23.1451 115.501 22.7805C115.996 22.4159 116.373 21.9472 116.634 21.3743C116.907 20.7883 117.044 20.1829 117.044 19.5579C117.044 18.9198 116.914 18.3534 116.653 17.8586C116.393 17.3508 116.028 16.9472 115.559 16.6477C115.091 16.3482 114.537 16.1985 113.899 16.1985C113.313 16.1985 112.78 16.3482 112.298 16.6477C111.829 16.9472 111.458 17.3639 111.184 17.8977C110.924 18.4185 110.794 19.0305 110.794 19.7336L110.813 21.6086C111.23 22.1165 111.666 22.5331 112.122 22.8586C112.578 23.1711 113.105 23.3274 113.704 23.3274Z" fill="white"/>
<defs>
<linearGradient id="paint0_linear_1_5417" x1="0.978914" y1="0.552936" x2="9.87181" y2="22.3816" gradientUnits="userSpaceOnUse">
<stop stop-color="white"/>
<stop offset="1" stop-color="white" stop-opacity="0.7"/>
</linearGradient>
<linearGradient id="paint1_linear_1_5417" x1="11.8656" y1="14.2686" x2="22.1297" y2="27.1608" gradientUnits="userSpaceOnUse">
<stop stop-color="#EBECF9"/>
<stop offset="1" stop-color="#EDE7F9"/>
</linearGradient>
</defs>
</svg>
